<?xml version="1.0" standalone="no"?>
<!DOCTYPE svg PUBLIC "-//W3C//DTD SVG 1.1//EN" "http://www.w3.org/Graphics/SVG/1.1/DTD/svg11.dtd" >
<svg>
<metadata>
Created by FontForge 20090914 at Sat Jan 14 21:54:24 2017
 By www-data
2016 Iconian Fonts - www.iconian.com
</metadata>
<defs>
<font id="EarthOrbiterGradient" horiz-adv-x="748" >
  <font-face 
    font-family="Earth Orbiter Gradient"
    font-weight="400"
    font-stretch="normal"
    units-per-em="1000"
    panose-1="0 0 0 0 0 0 0 0 0 0"
    ascent="800"
    descent="-200"
    x-height="623.999"
    cap-height="624"
    bbox="-55.001 -174.001 1119.02 801.002"
    underline-thickness="50"
    underline-position="-75"
    unicode-range="U+0020-U+2122"
  />
<missing-glyph horiz-adv-x="500" 
 />
    <glyph glyph-name=".notdef" horiz-adv-x="500" 
 />
    <glyph glyph-name="space" unicode=" " horiz-adv-x="354" 
 />
    <glyph glyph-name="space" unicode="&#xa0;" horiz-adv-x="354" 
 />
    <glyph glyph-name="exclam" unicode="!" horiz-adv-x="210" 
d="M50 52v6.99902h109c0.666992 -1.33301 1 -3.66602 1 -6.99902c0 -6 -0.333008 -10 -1 -12h-108c-0.666992 2 -1 6 -1 12zM64 14.999c-5.33301 5.33301 -9.33301 12 -12 20h105c-2 -8 -6 -14.667 -12 -20h-81zM150 83.999c4 -6 6.66699 -12 8 -18h-107
c0.666992 4.66699 3.66699 10.667 9 18h90zM70 216.999v15h70v-15h-70zM70 241.999v15h70v-15h-70zM70 267.999v14h70v-14h-70zM70 292.999v14h70v-14h-70zM70 317.999v13h70v-13h-70zM70 343.999v12h70v-12h-70zM70 393.999v12h70v-12h-70zM70 368.999v12h70v-12h-70z
M105 105.999c14 0 26.667 -5 38 -15h-77c10.667 10 23.667 15 39 15zM70 418.999v11h70v-11h-70zM70 444.999v10h70v-10h-70zM70 469.999v10h70v-10h-70zM70 494.999v9h70v-9h-70zM140 198.999h-70v9h70v-9zM105 -2.00098c-14 0 -26 4 -36 12h71
c-9.33301 -8 -21 -12 -35 -12zM70 570.999v8h70v-8h-70zM70 545.999v8h70v-8h-70zM70 520.999v8h70v-8h-70zM70 595.999v7h70v-7h-70zM140 623.999v-2h-70v2h70z" />
    <glyph glyph-name="quotedbl" unicode="&#x22;" horiz-adv-x="402" 
d="M340 579c0 -1.33301 0.166992 -2.66797 0.5 -4.00098s0.5 -2.66602 0.5 -3.99902h-112v1v7h111zM173 578.998c0 -1.33301 0.166992 -2.66797 0.5 -4.00098s0.5 -2.66602 0.5 -3.99902h-112v1v7h111zM340 553.996v-8h-104c-2 2 -3.33301 4.66699 -4 8h108zM173 553.996v-8
h-104c-2 2 -3.33301 4.66699 -4 8h108zM162 602.996c1.33301 -1.33301 2.16602 -2.5 2.49902 -3.5s1.16602 -2.16699 2.49902 -3.5h-100c0.666992 1.33301 1.33398 2.5 2.00098 3.5s1.33398 2.16699 2.00098 3.5h91zM329 602.996
c1.33301 -1.33301 2.16602 -2.5 2.49902 -3.5s1.16602 -2.16699 2.49902 -3.5h-100c0.666992 1.33301 1.33398 2.5 2.00098 3.5s1.33398 2.16699 2.00098 3.5h91zM322 479.996c-1.33301 -4 -3 -7.33301 -5 -10h-67c3.33301 4 5.33301 7.33301 6 10h66zM155 479.996
c-1.33301 -4 -3 -7.33301 -5 -10h-67c3.33301 4 5.33301 7.33301 6 10h66zM170 528.996c0 -1.33301 -0.166992 -2.66895 -0.5 -4.00195s-0.5 -2.66602 -0.5 -3.99902h-71c-7.33301 2.66699 -12 5.33398 -14 8.00098h86zM337 528.993
c0 -1.33301 -0.166992 -2.66895 -0.5 -4.00195s-0.5 -2.66602 -0.5 -3.99902h-71c-7.33301 2.66699 -12 5.33398 -14 8.00098h86zM331 503.99l-3 -9h-66l3 9h66zM164 503.99l-3 -9h-66l3 9h66zM284 625.99c8 0 15 -1.33301 21 -4h-43c6 2.66699 13.333 4 22 4zM117 625.99
c8 0 15 -1.33301 21 -4h-43c6 2.66699 13.333 4 22 4z" />
    <glyph glyph-name="numbersign" unicode="#" horiz-adv-x="815" 
d="M70 167v16h678v-16h-678zM70 192v16h678v-16h-678zM748 144h-145v-3h-70v3h-249v-3h-70v3h-144v14h678v-14zM70 419v11h678v-11h-678zM70 445v10h678v-10h-678zM70 470v8h144v2h70v-2h249v2h70v-2h145v-8h-678zM214 15v20h70v-20h-70zM533 15v20h70v-20h-70zM214 40v19
h70v-19h-70zM533 40v19h70v-19h-70zM214 66v18h70v-18h-70zM533 66v18h70v-18h-70zM533 116v18h70v-18h-70zM214 91v18h70v-18h-70zM214 116v18h70v-18h-70zM533 91v18h70v-18h-70zM533 242v15h70v-15h-70zM533 217v15h70v-15h-70zM533 293v14h70v-14h-70zM533 268v14h70
v-14h-70zM533 318v13h70v-13h-70zM533 369v12h70v-12h-70zM603 406v-12h-70v12h70zM533 344v12h70v-12h-70zM603 0h-70v10h70v-10zM284 0h-70v10h70v-10zM214 495v9h70v-9h-70zM533 495v9h70v-9h-70zM214 521v8h70v-8h-70zM533 546v8h70v-8h-70zM533 521v8h70v-8h-70z
M533 571v8h70v-8h-70zM214 546v8h70v-8h-70zM214 571v8h70v-8h-70zM214 596v7h70v-7h-70zM533 596v7h70v-7h-70zM533 622v2h70v-2h-70zM214 622v2h70v-2h-70z" />
    <glyph glyph-name="dollar" unicode="$" horiz-adv-x="673" 
d="M574 59c-2.66699 -3.33301 -5.33301 -6.5 -8 -9.5s-5.66699 -6.16699 -9 -9.5h-485v19h502zM552.001 35c-5.33301 -4 -10.5 -7.66699 -15.5 -11s-10.167 -6.33301 -15.5 -9h-449v20h480zM510.001 10c-15.333 -6.66699 -33 -10 -53 -10h-86v-10h-70v10h-229v10h438z
M102.001 571c1.33301 1.33301 2.5 2.66797 3.5 4.00098s2.16699 2.66602 3.5 3.99902h492v-8h-499zM129.001 596.002c2 1.33301 3.83301 2.5 5.5 3.5s3.16699 2.16699 4.5 3.5h462v-7h-472zM461.001 66.002c15.333 2.66699 28.666 8.66699 39.999 18h89
c-3.33301 -8 -6.66602 -14 -9.99902 -18h-119zM301.001 -110.998v22h70v-22h-70zM301.001 -85.998v22h70v-22h-70zM301.001 -60.998v22h70v-22h-70zM489.001 268.002l-12.5 5c-5 2 -10.833 3.66699 -17.5 5v4h116c1.33301 -2.66699 2.83301 -5 4.5 -7
s3.16699 -4.33301 4.5 -7h-95zM301.001 -35.998v21h70v-21h-70zM509.001 91.002c6.66699 6.66699 11.333 12.667 14 18h78l-3.5 -9l-3.5 -9h-85zM552 307.002l14 -14h-107v14h93zM527 116.002c1.33301 2.66699 2.33203 5.5 2.99902 8.5s1.66699 6.16699 3 9.5h74
c-0.666992 -3.33301 -1.16699 -6.33301 -1.5 -9s-1.16602 -5.66699 -2.49902 -9h-76zM118.999 318.002l-6 6c-2 2 -4 4.33301 -6 7h107v-13h-95zM300.999 66.002v18h70v-18h-70zM300.999 91.002v18h70v-18h-70zM300.999 116.002v18h70v-18h-70zM181.999 356.002
c10.667 -5.33301 21.333 -9 32 -11v-1h-118l-4 6l-4 6h94zM534.998 141.002l2 8c0.666992 2.66699 1 5.66699 1 9h72v-9c0 -3.33301 -0.333008 -6 -1 -8h-74zM519.998 242.002c-2 2.66699 -4 5.16699 -6 7.5s-4.66699 4.83301 -8 7.5h84
c1.33301 -2.66699 2.5 -5.16699 3.5 -7.5s2.16699 -4.83301 3.5 -7.5h-77zM300.998 141.002v17h70v-17h-70zM537.998 192.002c-0.666992 2.66699 -1.16699 5.33398 -1.5 8.00098s-0.833008 5.33398 -1.5 8.00098h72c0.666992 -2.66699 1.16699 -5.33398 1.5 -8.00098
s0.833008 -5.33398 1.5 -8.00098h-72zM538.998 167.002v6v10h71c0 -2 0.166992 -3.83301 0.5 -5.5s0.5 -3.16699 0.5 -4.5v-6h-72zM300.998 167.002v16h70v-16h-70zM300.998 192.002v16h70v-16h-70zM532.998 217.002c-1.33301 2.66699 -2.50195 5.16699 -3.50195 7.5
s-2.16699 4.83301 -3.5 7.5h75c0.666992 -2.66699 1.33398 -5.16699 2.00098 -7.5s1.33398 -4.83301 2.00098 -7.5h-72zM600.996 624.002v-2h-410c4 0.666992 8 1.16699 12 1.5s8.33301 0.5 13 0.5h85v4h70v-4h230zM300.996 217.002v15h70v-15h-70zM300.996 242.002v15h70
v-15h-70zM370.996 -127.998h-70v14h70v-14zM300.996 268.002v14h70v-14h-70zM300.996 293.002v14h70v-14h-70zM155.996 293.002l-12 6c-4 2 -7.66699 4.66699 -11 8h81v-14h-58zM152.996 381.002c1.33301 -2.66699 3.00098 -5 5.00098 -7l5 -5h-82
c-1.33301 2.66699 -2.33301 5 -3 7s-1.33398 3.66699 -2.00098 5h77zM300.997 318.002v13h70v-13h-70zM515.997 331.002c9.33301 -4 16.667 -8.33301 22 -13h-79v13h57zM139.998 406.002c1.33301 -2 2.16992 -4 2.50293 -6s1.16602 -4 2.49902 -6h-74
c-0.666992 1.33301 -1.33398 3 -2.00098 5s-1.33398 4.33301 -2.00098 7h73zM301.002 369.002v12h70v-12h-70zM301.002 344.002v12h70v-12h-70zM301.002 394.002v12h70v-12h-70zM197.002 554.002l-8 -4.00098c-2.66699 -1.33301 -5.66699 -2.66602 -9 -3.99902h-95l2 4l2 4
h108zM135.002 430.001c0 -2 0.666992 -5.66699 2 -11h-73c0 1.33301 -0.166992 3 -0.5 5s-0.5 4 -0.5 6h72zM301.002 419.001v11h70v-11h-70zM137.002 480.001c-1.33301 -5.33301 -2 -8.66699 -2 -10h-73c0.666992 0.666992 1 2 1 4c0 2.66699 0.333008 4.66699 1 6h73z
M134.002 451v-6h-72v6v4h72v-4zM301.002 470v10h70v-10h-70zM301.002 445v10h70v-10h-70zM144.002 504l-1.99902 -4.00098c-0.666992 -1.33301 -1.33398 -3 -2.00098 -5h-74c0.666992 0.666992 1 2 1 4c0 2.66699 0.333008 4.33398 1 5.00098h76zM160.003 528.999l-6 -8h-81
l2 4l2 4h83zM301.003 494.999v9h70v-9h-70zM301.003 520.999v8h70v-8h-70zM301.003 545.999v8h70v-8h-70zM301.003 646.999v6h70v-6h-70zM301.003 696.999v5h70v-5h-70zM301.003 671.999v5h70v-5h-70zM301.003 722.999v4h70v-4h-70zM214.003 279.999
c-4 0 -7.83301 0.166992 -11.5 0.5s-7.16699 0.833008 -10.5 1.5h22v-2z" />
    <glyph glyph-name="percent" unicode="%" horiz-adv-x="840" 
d="M512 40c-3.33301 3.33301 -6.33105 6.5 -8.99805 9.5s-5.33398 6.16699 -8.00098 9.5h249c-2.66699 -3.33301 -5.33398 -6.5 -8.00098 -9.5s-5.66699 -6.16699 -9 -9.5h-215zM548.002 15c-5.33301 2.66699 -10.332 5.5 -14.999 8.5s-9.66699 6.83301 -15 11.5h203
c-4.66699 -4.66699 -9.33398 -8.5 -14.001 -11.5s-9.66699 -5.83301 -15 -8.5h-144zM620.003 252c-15.333 0 -29.333 -3.33301 -42 -10h-90c1.33301 2.66699 3 5.16699 5 7.5s4 4.83301 6 7.5h241c2 -2.66699 4 -5.16699 6 -7.5s3.66699 -4.83301 5 -7.5h-88
c-14 6.66699 -28.333 10 -43 10zM713.003 282l17 -14h-221l8.5 7l8.5 7h187zM221.003 373c11.333 0 24 2.66699 38 8h93l-9 -12h-245l-9 12h93c14 -5.33301 27 -8 39 -8zM124.003 344c-2.66699 2 -5 3.83301 -7 5.5s-4.33301 3.83398 -7 6.50098h221
c-2 -2.66699 -4.16699 -4.83398 -6.5 -6.50098l-7.5 -5.5h-193zM101.003 571c4 4 6.33301 6.66504 7 7.99805h225c1.33301 -1.33301 2.5 -2.66602 3.5 -3.99902s2.16699 -2.66602 3.5 -3.99902h-239zM663.003 306.998l16.501 -6c5.66699 -2 11.167 -4.66699 16.5 -8h-152
c5.33301 3.33301 10.666 6 15.999 8s11 4 17 6h86zM174.004 317.998c-6 1.33301 -11.5 3.16602 -16.5 5.49902s-9.5 4.83301 -13.5 7.5h154c-4 -2.66699 -8.5 -5.16699 -13.5 -7.5s-10.5 -4.16602 -16.5 -5.49902h-94zM653.004 65.998c11.333 4.66699 21.667 10.667 31 18
h76c-1.33301 -3.33301 -3 -6.33301 -5 -9s-4 -5.66699 -6 -9h-96zM555.005 83.998c8.66699 -8 18.667 -14 30 -18h-95c-2 3.33301 -4 6.33301 -6 9s-4 5.66699 -6 9h77zM234.005 14.998l10 20h75l-10 -20h-75zM247.005 39.998l9 19h75l-9 -19h-75zM260.005 65.998l9 18h75
l-9 -18h-75zM285.005 115.998l9 18h75l-9 -18h-75zM272.005 90.998l9 18h75l-9 -18h-75zM297.005 140.998l9 17h75l-9 -17h-75zM535.005 108.998c3.33301 -6.66699 7.66699 -12.667 13 -18h-73l-3.5 9l-3.5 9h67zM691.006 90.998c6.66699 6.66699 11.333 12.667 14 18h66
l-3.5 -9l-3.5 -9h-73zM303.005 602.998c1.33301 -1.33301 2.83301 -2.5 4.5 -3.5s3.5 -2.16699 5.5 -3.5h-184c1.33301 1.33301 3 2.5 5 3.5s3.66699 2.16699 5 3.5h164zM323.005 191.998l8 16h75l-8 -16h-75zM310.005 166.998l8 16h75l-8 -16h-75zM525.005 133.998
c1.33301 -3.33301 2.33203 -6.5 2.99902 -9.5s1.66699 -5.83301 3 -8.5h-65c-1.33301 3.33301 -2.16602 6.33301 -2.49902 9s-0.833008 5.66699 -1.5 9h63zM562.004 231.998c-6 -4.66699 -11.3311 -9.66699 -15.998 -15h-73c1.33301 2.66699 2.66602 5.16699 3.99902 7.5
s2.66602 4.83301 3.99902 7.5h81zM335.006 216.998l8 15h75l-8 -15h-75zM348.006 241.998l7 15h75l-7 -15h-75zM709.006 115.998c2.66699 4.66699 4.66699 10.667 6 18h61l-3 -18h-64zM695.006 216.998l-7.50098 7.5c-2.33301 2.33301 -5.16602 4.83301 -8.49902 7.5h79
c1.33301 -2.66699 2.5 -5.16699 3.5 -7.5s2.16699 -4.83301 3.5 -7.5h-70zM539.005 207.998c-2 -2.66699 -3.66504 -5.33496 -4.99805 -8.00195l-4 -8h-65c1.33301 2.66699 2.16602 5.33398 2.49902 8.00098s1.16602 5.33398 2.49902 8.00098h69zM523.007 154.997
c0 -7.33301 0.333008 -12 1 -14h-63v15v2h62v-3zM361.007 267.997l7 14h75l-7 -14h-75zM373.007 292.997l7 14h75l-7 -14h-75zM710.007 191.997c-2 5.33301 -4.66602 10.6689 -7.99902 16.002h67c1.33301 -2.66699 2.16602 -5.33398 2.49902 -8.00098
s0.833008 -5.33398 1.5 -8.00098h-63zM716.008 141c1.33301 6.66699 2 11.333 2 14v3h60v-2c0 -8 -0.333008 -13 -1 -15h-61zM527.008 182.999l-2 -8l-2 -8h-62c0.666992 2 1 4.33301 1 7c0 4 0.333008 7 1 9h64zM620.008 -2.00098c-22 0 -42.334 4 -61.001 12h122
c-19.333 -8 -39.666 -12 -60.999 -12zM717.007 166.999c0 4.66699 -1.33301 9.99902 -4 15.999h62c0.666992 -3.33301 1.16699 -6.16602 1.5 -8.49902s0.5 -4.83301 0.5 -7.5h-60zM386.007 317.998l6 13h75l-6 -13h-75zM147.007 405.998c4 -5.33301 8.33301 -9.33301 13 -12
h-79l-6 12h72zM411.007 368.998l6 12h75l-6 -12h-75zM399.007 343.998l6 12h75l-6 -12h-75zM424.007 393.998l6 12h75l-6 -12h-75zM281.007 393.998c4.66699 2.66699 9 6.66699 13 12h72l-6 -12h-79zM436.007 418.998l6 11h75l-6 -11h-75zM227.007 -0.00195312l5 10h75
l-5 -10h-75zM449.007 444.998l5 10h75l-5 -10h-75zM462.007 469.998l5 10h75l-5 -10h-75zM132.007 429.998c1.33301 -4.66699 3.33301 -8.33301 6 -11h-68c-0.666992 2 -1.66699 5.66699 -3 11h65zM304.007 418.999c1.33301 1.33301 2.33301 3 3 5s1.66699 4 3 6h64
c-1.33301 -5.33301 -2.33301 -9 -3 -11h-67zM176.007 553.999l-6.00098 -4l-6 -4h-81c0.666992 0.666992 1.33398 1.66699 2.00098 3s1.66699 3 3 5h88zM474.006 494.999l5 9h75l-5 -9h-75zM279.006 545.999l-6.00098 4.00098c-2 1.33301 -4.33301 2.66602 -7 3.99902h87
c1.33301 -2 2.33301 -3.66699 3 -5s1.33398 -2.33301 2.00098 -3h-79zM125.005 455c0 -1.33301 0.666992 -4.66699 2 -10h-64c0 4.66699 -0.333008 8 -1 10h63zM124.005 479.999v-10h-62v10h62zM316.005 444.999c0.666992 0.666992 1 1.99902 1 3.99902
c0 2.66699 0.333008 4.66699 1 6h60c0 -5.33301 -0.333008 -8.66602 -1 -9.99902h-61zM319.005 469.998c0 4.66699 -0.333008 8 -1 10h60c0 -2 0.166992 -3.83301 0.5 -5.5s0.5 -3.16699 0.5 -4.5h-60zM488.005 520.998l4 8h75l-4 -8h-75zM513.005 570.998l4 8h75l-4 -8h-75
zM501.005 545.998l4 8h75l-4 -8h-75zM131.005 503.998l-3 -9h-64c0 0.666992 0.666992 3.66699 2 9h65zM146.005 528.998c-1.33301 -1.33301 -2.33301 -2.66895 -3 -4.00195s-1.66699 -2.66602 -3 -3.99902h-69c0.666992 0.666992 1.66699 3.33398 3 8.00098h72z
M315.005 494.995l-3 9h63c0 -0.666992 0.666992 -3.66699 2 -9h-62zM303.005 520.995c-1.33301 1.33301 -2.33301 2.66797 -3 4.00098s-1.66699 2.66602 -3 3.99902h69l2 -4l2 -4h-67zM526.005 595.997l4 7h75l-4 -7h-75zM221.005 625.997c13.333 0 25 -1.33301 35 -4h-71
c10.667 2.66699 22.667 4 36 4zM616.005 623.997l-1 -2h-75l1 2h75z" />
    <glyph glyph-name="ampersand" unicode="&#x26;" horiz-adv-x="712" 
d="M562 59c-3.33301 -3.33301 -6.33301 -6.5 -9 -9.5s-5.66699 -6.16699 -9 -9.5h-424c-3.33301 3.33301 -6.33301 6.5 -9 9.5s-5.66699 6.16699 -9 9.5h460zM539 35c-5.33301 -4.66699 -10.332 -8.5 -14.999 -11.5s-9.66699 -5.83301 -15 -8.5h-355
c-5.33301 2.66699 -10.333 5.5 -15 8.5s-9.33398 6.83301 -14.001 11.5h414zM339.001 293v14h306v-14h-306zM339.001 318v13h306v-13h-306zM107.001 571l8 8h406c4 -4 6.33301 -6.66699 7 -8h-421zM498.001 10c-13.333 -6.66699 -29.667 -10 -49 -10h-233
c-20 -0 -37 3.33301 -51 10h333zM134 596c1.33301 1.33301 2.83301 2.5 4.5 3.5s3.5 2.16699 5.5 3.5h347c2 -1.33301 3.83301 -2.5 5.5 -3.5s3.5 -2.16699 5.5 -3.5h-368zM97 66c-1.33301 2.66699 -3 5.5 -5 8.5s-4 6.16699 -6 9.5h89c8.66699 -8.66699 19 -14.667 31 -18
h-109zM578 84c-2 -3.33301 -4 -6.33301 -6 -9s-4 -5.66699 -6 -9h-107c12 3.33301 22.333 9.33301 31 18h88zM645 281h-79l4.5 -6.5l4.5 -6.5h-89c-2.66699 2 -5.16699 4.16699 -7.5 6.5s-4.83301 4.5 -7.5 6.5h-132v1h306v-1zM83 91
c-1.33301 3.33301 -2.66699 6.33301 -4 9s-2.66602 5.66699 -3.99902 9h80c5.33301 -8.66699 9.66602 -14.667 12.999 -18h-85zM588.999 109c-1.33301 -3.33301 -2.66699 -6.33301 -4 -9s-2.66602 -5.66699 -3.99902 -9h-84l6.5 8.5c2.33301 3 4.16602 6.16699 5.49902 9.5
h80zM596.998 134c-1.33301 -3.33301 -2.16602 -6.33301 -2.49902 -9s-1.16602 -5.66699 -2.49902 -9h-79c1.33301 3.33301 2.66602 6.33301 3.99902 9s2.66602 5.66699 3.99902 9h76zM72.998 116c-2.66699 5.33301 -4.33301 11.333 -5 18h76l3.5 -9l3.5 -9h-78zM89.999 268
c1.33301 2.66699 2.83301 5 4.5 7s3.16699 4.33301 4.5 7h96v-1c-6 -4 -11.333 -8.33301 -16 -13h-89zM600.999 158c0 -3.33301 -0.333984 -6.33301 -1.00098 -9l-2 -8h-75l2 8c0.666992 2.66699 1.33398 5.66699 2.00098 9h74zM65.998 141
c-0.666992 2.66699 -1.16602 5.33398 -1.49902 8.00098s-0.833008 5.66699 -1.5 9h75c0.666992 -3.33301 1.16699 -6.33301 1.5 -9s1.16602 -5.33398 2.49902 -8.00098h-76zM74.999 242c1.33301 2.66699 2.66797 5.16699 4.00098 7.5s2.66602 4.83301 3.99902 7.5h86
l-12 -15h-82zM582.001 257c1.33301 -2.66699 2.66797 -5.16699 4.00098 -7.5s2.66602 -4.83301 3.99902 -7.5h-82l-12 15h86zM62.0029 192c0 2.66699 0.166016 5.16699 0.499023 7.5s0.833008 5.16602 1.5 8.49902h76
c-1.33301 -3.33301 -2.16602 -6.16602 -2.49902 -8.49902s-0.833008 -4.83301 -1.5 -7.5h-74zM601.002 208c0.666992 -2 1.00098 -4.66602 1.00098 -7.99902s0.333008 -6 1 -8h-75c0 2.66699 -0.333008 5.16699 -1 7.5s-1.33398 5.16602 -2.00098 8.49902h76z
M603.003 183.001c0 -8.66699 -0.333008 -14.002 -1 -16.002h-74c0 2.66699 0.166992 5.33398 0.5 8.00098s0.5 5.33398 0.5 8.00098h74zM136.003 182.999v-8c0 -3.33301 0.333008 -6 1 -8h-75v16h74zM66.0029 216.999c1.33301 2.66699 2.16602 5.16699 2.49902 7.5
s1.16602 4.83301 2.49902 7.5h80c-1.33301 -2.66699 -2.66602 -5.16699 -3.99902 -7.5s-2.66602 -4.83301 -3.99902 -7.5h-77zM594.003 231.999c1.33301 -2.66699 2.16602 -5.16699 2.49902 -7.5s1.16602 -4.83301 2.49902 -7.5h-77
c-1.33301 2.66699 -2.66602 5.16699 -3.99902 7.5s-2.66602 4.83301 -3.99902 7.5h80zM180.003 355.999c2 -2.66699 4.33301 -5 7 -7s5.33398 -3.66699 8.00098 -5h-101c-0.666992 2 -3.33398 6 -8.00098 12h94zM108.003 292.999c2 2.66699 4 5 6 7s4 4.33301 6 7h75v-14
h-87zM115.003 317.999l-6 6c-2 2 -3.66699 4.33301 -5 7h91v-13h-80zM79.0029 368.999c-1.33301 2.66699 -2.33203 5 -2.99902 7s-1.33398 3.66699 -2.00098 5h84l9 -12h-88zM69.0039 393.999l-3 12h77l3.5 -7c1 -2 2.16699 -3.66699 3.5 -5h-81zM136.004 429.999
c0 -2 0.166992 -3.83301 0.5 -5.5s0.833008 -3.5 1.5 -5.5h-75c0 1.33301 -0.166992 3 -0.5 5s-0.5 4 -0.5 6h74zM541.004 553.999c1.33301 -2 2.33203 -3.66504 2.99902 -4.99805s1.33398 -2.33301 2.00098 -3h-95c-2 1.33301 -4.16699 2.66602 -6.5 3.99902
s-4.5 2.66602 -6.5 3.99902h103zM90.0029 546.001c0.666992 2.66699 2.33301 5.33105 5 7.99805h102c-2.66699 -1.33301 -5 -2.66602 -7 -3.99902s-4.33301 -2.66602 -7 -3.99902h-93zM64.002 469.998c0 1.33301 0.166992 2.83301 0.5 4.5s0.5 3.5 0.5 5.5h75l-2 -10h-74z
M62.002 444.998v10h73v-10h-73zM472.002 520.998c-1.33301 1.33301 -2.16797 2.66797 -2.50098 4.00098s-1.16602 2.66602 -2.49902 3.99902h88l2 -4l2 -4h-87zM149 504c-0.666992 -2 -1.33301 -3.66797 -2 -5.00098l-2 -4h-76c0.666992 0.666992 1 2 1 4
c0 2.66699 0.333008 4.33398 1 5.00098h78zM77.001 520.999l2 3.99805l2 4h85c-1.33301 -1.33301 -2.5 -2.66602 -3.5 -3.99902s-2.16699 -2.66602 -3.5 -3.99902h-82zM194.001 621.997c3.33301 0.666992 6.83301 1.16699 10.5 1.5s7.5 0.5 11.5 0.5h205
c4 0 8 -0.166992 12 -0.5s7.66699 -0.833008 11 -1.5h-250z" />
    <glyph glyph-name="quotesingle" unicode="'" horiz-adv-x="235" 
d="M173 579c0 -1.33301 0.166992 -2.66797 0.5 -4.00098s0.5 -2.66602 0.5 -3.99902h-112v1v7h111zM173 553.998v-8h-104c-2 2 -3.33301 4.66699 -4 8h108zM162 602.998c1.33301 -1.33301 2.16602 -2.5 2.49902 -3.5s1.16602 -2.16699 2.49902 -3.5h-100
c0.666992 1.33301 1.33398 2.5 2.00098 3.5s1.33398 2.16699 2.00098 3.5h91zM155 479.998c-1.33301 -4 -3 -7.33301 -5 -10h-67c3.33301 4 5.33301 7.33301 6 10h66zM170 528.998c0 -1.33301 -0.166992 -2.66895 -0.5 -4.00195s-0.5 -2.66602 -0.5 -3.99902h-71
c-7.33301 2.66699 -12 5.33398 -14 8.00098h86zM164 503.995l-3 -9h-66l3 9h66zM117 625.995c8 0 15 -1.33301 21 -4h-43c6 2.66699 13.333 4 22 4z" />
    <glyph glyph-name="parenleft" unicode="(" horiz-adv-x="401" 
d="M315 35c3.33301 -1.33301 6.5 -2.33203 9.5 -2.99902s6.16699 -1.33398 9.5 -2.00098v-15h-135l-12 10l-12 10h140zM260 59.001c5.33301 -3.33301 11.333 -6.66699 18 -10s13.667 -6.33301 21 -9h-130c-3.33301 3.33301 -6.33301 6.5 -9 9.5s-5.66699 6.16699 -9 9.5h109
zM239 -10l-17.001 9.5c-5.33301 3 -10.666 6.5 -15.999 10.5h128v-20h-95zM225.999 84c8 -7.33301 16 -13.333 24 -18h-105l-15 18h96zM200.999 109c3.33301 -3.33301 6.16797 -6.5 8.50098 -9.5s5.16602 -5.83301 8.49902 -8.5h-93l-12 18h88zM181.001 134l7 -9l7 -9h-86
l-5.5 9c-1.66699 2.66699 -3.16699 5.66699 -4.5 9h82zM166.001 158l5.49902 -8.99902c1.66699 -2.66699 3.16699 -5.33398 4.5 -8.00098h-81l-4 8c-1.33301 2.66699 -2.66602 5.66699 -3.99902 9h79zM305 -35.999c-20 4.66699 -39 11.667 -57 21h86v-21h-29zM153 183.001
c2.66699 -6 5.33301 -11.332 8 -15.999h-77c-1.33301 2.66699 -2.33301 5.16699 -3 7.5s-1.66699 5.16602 -3 8.49902h75zM143.999 208.002c1.33301 -3.33301 2.16895 -6.16699 2.50195 -8.5s1.16602 -4.83301 2.49902 -7.5h-74c-2.66699 4 -4.33398 9.33301 -5.00098 16h74
zM136.002 232.001c1.33301 -2.66699 2.16797 -5.16699 2.50098 -7.5s1.16602 -4.83301 2.49902 -7.5h-74l-3 15h72zM166.004 571.001c1.33301 0.666992 4.33301 3.33301 9 8h143l-12 -4l-12 -4h-128zM131.004 257l3 -15h-72c-0.666992 2 -1 4.33301 -1 7
c0 3.33301 -0.333008 6 -1 8h71zM128.004 282c0 -2.66699 0.166992 -5.16699 0.5 -7.5s0.5 -4.5 0.5 -6.5h-70c-0.666992 2 -1 6.66699 -1 14h70zM57.0039 307h70v-1v-13h-70v14zM195.004 596c1.33301 1.33301 3 2.5 5 3.5s3.66699 2.16699 5 3.5h129v-7h-139zM57.0039 318
c0 6.66699 0.333008 11 1 13h70c-0.666992 -2 -1 -6.33301 -1 -13h-70zM67.0039 394l3.00195 12h75c-0.666992 -1.33301 -1.33398 -3 -2.00098 -5s-1.33398 -4.33301 -2.00098 -7h-74zM143.006 546c1.33301 1.33301 2.5 2.66797 3.5 4.00098s2.16699 2.66602 3.5 3.99902
h111l-6 -4l-6 -4h-106zM62.0059 369.002c0 1.33301 0.666992 5.33301 2 12h73l-3 -12h-72zM59.0059 344.002c0 6 0.333008 10 1 12h71c0 -1.33301 -0.666992 -5.33301 -2 -12h-70zM74.0059 419.002c0.666992 2 1.66797 5.66699 3.00098 11h77l-2 -6
c-0.666992 -2 -1.33398 -3.66699 -2.00098 -5h-76zM184.007 480.002c-2.66699 -4 -5 -7.33301 -7 -10h-83c1.33301 4 3 7.33301 5 10h85zM107.007 495.002c1.33301 1.33301 2.16602 2.83301 2.49902 4.5s1.16602 3.16699 2.49902 4.5h91
c-1.33301 -1.33301 -2.66602 -2.83301 -3.99902 -4.5s-2.66602 -3.16699 -3.99902 -4.5h-88zM167.007 455.002c-1.33301 -1.33301 -2.16992 -3 -2.50293 -5s-1.16602 -3.66699 -2.49902 -5h-79c0.666992 1.33301 1.33398 2.83301 2.00098 4.5s1.33398 3.5 2.00098 5.5h80z
M123.003 521.002c1.33301 1.33301 2.33301 2.66602 3 3.99902s1.66699 2.66602 3 3.99902h99c-1.33301 -1.33301 -2.83301 -2.66602 -4.5 -3.99902s-3.16699 -2.66602 -4.5 -3.99902h-96zM235.003 622.002c1.33301 0.666992 2.83203 1.5 4.49902 2.5
s3.83398 2.16699 6.50098 3.5h88v-6h-99zM295.002 647.002c3.33301 1.33301 7 2.33301 11 3s8 1.66699 12 3h16v-6h-39zM334.002 -41.998c-3.33301 0.666992 -6.16699 1.16699 -8.5 1.5s-4.83301 0.833008 -7.5 1.5h16v-3z" />
    <glyph glyph-name="parenright" unicode=")" horiz-adv-x="401" 
d="M67 30c2.66699 0.666992 5.66797 1.33203 9.00098 1.99902s6.66602 1.66699 9.99902 3h140l-12 -10c-4 -3.33301 -8.33301 -6.66602 -13 -9.99902h-134v15zM101.001 39.998c7.33301 2.66699 14.333 5.66797 21 9.00098s12.667 6.66602 18 9.99902h110
c-6 -6.66699 -12.333 -13 -19 -19h-130zM195.001 9.99902c-5.33301 -4 -10.833 -7.5 -16.5 -10.5s-11.167 -6.16699 -16.5 -9.5h-95v20h128zM150.001 65.999c8 4.66699 16 10.667 24 18h96c-2 -3.33301 -4.16699 -6.33301 -6.5 -9l-7.5 -9h-106zM182.001 90.999l8.99902 9
c2.66699 2.66699 5.33398 5.66699 8.00098 9h88l-5.5 -9l-5.5 -9h-94zM205 115.999l7.5 9c2.33301 2.66699 4.5 5.66699 6.5 9h82l-9 -18h-87zM224 140.999c1.33301 2.66699 2.99902 5.33301 4.99902 8s3.66699 5.66699 5 9h79l-4 -8
c-1.33301 -2.66699 -2.66602 -5.66699 -3.99902 -9h-81zM151.999 -15.002c-18 -9.33301 -37 -16.333 -57 -21h-28v21h85zM322.999 182.998c-1.33301 -3.33301 -2.33398 -6.16699 -3.00098 -8.5s-1.66699 -4.83301 -3 -7.5h-78c2.66699 4.66699 5.33398 10 8.00098 16h76z
M250.998 191.997c1.33301 2.66699 2.33496 5.16699 3.00195 7.5s1.66699 5.16602 3 8.49902h73c-0.666992 -3.33301 -1.33398 -6.16602 -2.00098 -8.49902s-1.33398 -4.83301 -2.00098 -7.5h-75zM260 216.997c0.666992 2.66699 1.33203 5.16699 1.99902 7.5
s1.33398 4.83301 2.00098 7.5h72l-3 -15h-73zM225.998 578.997l8 -8h-128l-12 4l-12 4h144zM266.998 241.997l3 15h70c0 -1.33301 -0.166992 -3.33301 -0.5 -6s-0.833008 -5.66699 -1.5 -9h-71zM270.998 267.997c0.666992 1.33301 1 3.33301 1 6c0 3.33301 0.333008 6 1 8
h70c-0.666992 -2 -1 -4.66699 -1 -8v-6h-71zM343.998 306.997v-14h-70v13v1h70zM195.998 602.997c0.666992 -0.666992 3.66699 -3 9 -7h-138v7h129zM342.998 330.997c0 -2.66699 0.166992 -5 0.5 -7s0.5 -4 0.5 -6h-70c0 2 -0.166992 4 -0.5 6s-0.5 4.33301 -0.5 7h70z
M330.998 405.997l3.00195 -12h-74c-0.666992 1.33301 -1.33398 3 -2.00098 5s-1.33398 4.33301 -2.00098 7h75zM250 553.997c1.33301 -1.33301 2.5 -2.66797 3.5 -4.00098s2.16699 -2.66602 3.5 -3.99902h-106l-6 4l-6 4h111zM336 380.995l3 -12h-73l-3 12h73zM341 355.995
c0 -6 0.333008 -10 1 -12h-71c0 1.33301 -0.666992 5.33301 -2 12h72zM323 429.995l1.99902 -6c0.666992 -2 1.33398 -3.66699 2.00098 -5h-76c-2 2 -3.66699 5.66699 -5 11h77zM222.999 469.995c-1.33301 1.33301 -2.33301 3 -3 5s-1.66699 3.66699 -3 5h84
c2 -2.66699 3.66699 -6 5 -10h-83zM287.999 503.995l6.00098 -9h-89c-0.666992 1.33301 -3.33398 4.33301 -8.00098 9h91zM238 444.995c-1.33301 1.33301 -2.16602 2.83301 -2.49902 4.5s-1.16602 3.5 -2.49902 5.5h80c1.33301 -2 2.16602 -3.83301 2.49902 -5.5
s1.16602 -3.16699 2.49902 -4.5h-80zM181 520.995c-1.33301 1.33301 -2.83301 2.66602 -4.5 3.99902s-3.16699 2.66602 -4.5 3.99902h99c1.33301 -1.33301 2.33301 -2.66602 3 -3.99902s1.66699 -2.66602 3 -3.99902h-96zM154 627.995l12 -6h-99v6h87zM83 652.995
c3.33301 -1.33301 7 -2.33301 11 -3s8 -1.66699 12 -3h-39v6h16zM83 -39.0049c-3.33301 -0.666992 -6.16699 -1.16699 -8.5 -1.5s-4.83301 -0.833008 -7.5 -1.5v3h16z" />
    <glyph glyph-name="asterisk" unicode="*" horiz-adv-x="267" 
d="M58 596l2 7h146l3 -7h-151zM76 571l9 8h93l9 -8h-111zM141 546l-4 8h54l-13 -8h-37zM88 546l-12 8h50l-3 -8h-35zM105 647l-2 6h57l-1 -6h-54zM111 622l-1 6h45l-1 -6h-43zM67 622l3 6h31l9 -6h-43zM155 622l10 6h31l2 -6h-43zM149 527l-1 2h4zM115 527l-3 2h4z" />
    <glyph glyph-name="plus" unicode="+" horiz-adv-x="499" 
d="M67 318v13h365v-13h-365zM67 344v12h365v-12h-365zM67 296v11h365v-11h-151v-3h-64v3h-150zM217 167v16h64v-16h-64zM217 192v16h64v-16h-64zM217 242v15h64v-15h-64zM217 217v15h64v-15h-64zM217 268v14h64v-14h-64zM217 369v12h64v-12h-64zM217 394v12h64v-12h-64z
M281 146h-64v12h64v-12zM217 419v11h64v-11h-64zM217 470v10h64v-10h-64zM217 445v10h64v-10h-64zM217 495v9h64v-9h-64z" />
    <glyph glyph-name="comma" unicode="," horiz-adv-x="234" 
d="M173 50v-10h-110c-0.666992 2 -1 6 -1 12v7h110c0.666992 -1.33301 1 -4.33301 1 -9zM172 35c0 -3.33301 -0.166992 -6.66797 -0.5 -10.001s-0.833008 -6.66602 -1.5 -9.99902h-93c-6 6 -10 12.667 -12 20h107zM161 83.998l5.5 -9
c1.66699 -2.66699 3.16699 -5.66699 4.5 -9h-108c0.666992 4.66699 3.66699 10.667 9 18h89zM155 -39.002c-1.33301 -4 -3.16699 -7.83203 -5.5 -11.499s-4.83301 -7.16699 -7.5 -10.5h-67c6 7.33301 10.667 14.666 14 21.999h66zM169.999 9.99902l-2 -10.001
c-0.666992 -3.33301 -1.66699 -6.66602 -3 -9.99902h-66c0.666992 1.33301 1 3.33301 1 6c0 2 0.333008 3.33301 1 4c-7.33301 2 -13.333 5.33301 -18 10h87zM163.999 -15.002c-1.33301 -3.33301 -2.5 -6.83301 -3.5 -10.5s-2.16699 -7.16699 -3.5 -10.5h-66
c1.33301 3.33301 2.5 6.83301 3.5 10.5s2.16699 7.16699 3.5 10.5h66zM116.999 105.998c14 0 26.667 -5 38 -15h-77c10.667 10 23.667 15 39 15z" />
    <glyph glyph-name="hyphen" unicode="-" horiz-adv-x="499" 
d="M67 318v13h365v-13h-365zM67 344v12h365v-12h-365zM67 296v11h365v-11h-365z" />
    <glyph glyph-name="period" unicode="." horiz-adv-x="234" 
d="M62 52v6.99902h109c0.666992 -1.33301 1 -3.66602 1 -6.99902c0 -6 -0.333008 -10 -1 -12h-108c-0.666992 2 -1 6 -1 12zM76 14.999c-5.33301 5.33301 -9.33301 12 -12 20h105c-2 -8 -6 -14.667 -12 -20h-81zM162 83.999c4 -6 6.66699 -12 8 -18h-107
c0.666992 4.66699 3.66699 10.667 9 18h90zM117 105.999c14 0 26.667 -5 38 -15h-77c10.667 10 23.667 15 39 15zM117 -2.00098c-14 0 -26 4 -36 12h71c-9.33301 -8 -21 -12 -35 -12z" />
    <glyph glyph-name="slash" unicode="/" horiz-adv-x="473" 
d="M49 15l10 20h75l-10 -20h-75zM62 40l9 19h75l-9 -19h-75zM75 66l9 18h75l-9 -18h-75zM100 116l9 18h75l-9 -18h-75zM87 91l9 18h75l-9 -18h-75zM112 141l9 17h75l-9 -17h-75zM125 167l8 16h75l-8 -16h-75zM138 192l8 16h75l-8 -16h-75zM150 217l8 15h75l-8 -15h-75z
M163 242l7 15h75l-7 -15h-75zM176 268l7 14h75l-7 -14h-75zM188 293l7 14h75l-7 -14h-75zM201 318l6 13h75l-6 -13h-75zM214 344l6 12h75l-6 -12h-75zM226 369l6 12h75l-6 -12h-75zM239 394l6 12h75l-6 -12h-75zM251 419l6 11h75l-6 -11h-75zM117 0h-75l5 10h75zM277 470
l5 10h75l-5 -10h-75zM264 445l5 10h75l-5 -10h-75zM289 495l5 9h75l-5 -9h-75zM316 546l4 8h75l-4 -8h-75zM328 571l4 8h75l-4 -8h-75zM303 521l4 8h75l-4 -8h-75zM341 596l4 7h75l-4 -7h-75zM355 622l1 2h75l-1 -2h-75z" />
    <glyph glyph-name="zero" unicode="0" 
d="M214 40l-14.998 9.49902c-4.66699 3 -9.33398 6.16699 -14.001 9.5h378c-5.33301 -3.33301 -10.333 -6.66602 -15 -9.99902s-9.33398 -6.33301 -14.001 -9h-320zM268.002 14.999l-22.5 8.5c-7.66699 3 -15.167 6.83301 -22.5 11.5h302
c-8.66699 -4.66699 -16.667 -8.5 -24 -11.5l-21 -8.5h-212zM148.002 90.999c-3.33301 2.66699 -6.16699 5.5 -8.5 8.5l-7.5 9.5h96c2 -2 4 -3.33301 6 -4l2 4h75l-9 -18h-154zM542.001 578.999l6 -4l6 -4h-361l6 4l6 4h337zM592.001 83.999
c-3.33301 -3.33301 -6.66797 -6.33301 -10.001 -9s-6.66602 -5.66699 -9.99902 -9h-168c22.667 2.66699 44.667 8.66699 66 18h122zM175.999 65.999c-3.33301 3.33301 -6.83203 6.33398 -10.499 9.00098s-7.16699 5.66699 -10.5 9h143l-4 -9
c6.66699 -2 13.167 -3.83301 19.5 -5.5s13.166 -2.83398 20.499 -3.50098h-158zM616 109c-2.66699 -3.33301 -5.33203 -6.5 -7.99902 -9.5s-5.33398 -5.83301 -8.00098 -8.5h-115c10 4.66699 20 10.667 30 18h101zM495.002 603l8.5 -3.5
c2.33301 -1 4.83301 -2.16699 7.5 -3.5h-274c2.66699 1.33301 5.16699 2.5 7.5 3.5s4.83301 2.16699 7.5 3.5h243zM635.002 134c-2.66699 -3.33301 -5 -6.5 -7 -9.5s-4 -5.83301 -6 -8.5h-97c6.66699 4.66699 13.667 10.667 21 18h89zM126.002 116
c-4 4 -8.33398 10 -13.001 18h85c4.66699 -6.66699 11.334 -12.667 20.001 -18h-92zM374.001 -3c-34 0 -64 4.33301 -90 13h180c-26.667 -8.66699 -56.667 -13 -90 -13zM650.001 158c-1.33301 -3.33301 -3 -6.33301 -5 -9s-3.66699 -5.33398 -5 -8.00098h-87
c3.33301 2.66699 6 5.33398 8 8.00098l7 9h82zM108.001 141c-3.33301 4 -7 9.66797 -11 17.001h79l7.5 -9c2.33301 -2.66699 4.83301 -5.33398 7.5 -8.00098h-83zM239.001 116.001l9 18h75l-9 -18h-75zM603.001 529.001l8 -8h-166l4 8h154zM252.001 141.001l8 17h75l-8 -17
h-75zM663.001 183.001c-2.66699 -6 -5.33301 -11.332 -8 -15.999h-79c4 5.33301 7.66699 10.666 11 15.999h76zM92.002 167.002c-1.33301 2.66699 -2.5 5.16602 -3.5 7.49902l-3.5 8.5h74c2 -3.33301 3.83301 -6.16602 5.5 -8.49902l5.5 -7.5h-78zM265.002 167.001l8 16h75
l-8 -16h-75zM277.002 192.001l8 16h75l-8 -16h-75zM673.002 208.001c-1.33301 -3.33301 -2.33301 -6.16602 -3 -8.49902s-1.66699 -4.83301 -3 -7.5h-75c1.33301 2.66699 2.83301 5.16699 4.5 7.5s3.16699 5.16602 4.5 8.49902h72zM81.002 192.001
c-1.33301 2.66699 -2.50098 5.16699 -3.50098 7.5l-3.5 8.5h72c2.66699 -6 5.33398 -11.333 8.00098 -16h-73zM290.001 217.001l7 15h75l-7 -15h-75zM302.001 242.001l8 15h75l-8 -15h-75zM162.001 546.001c1.33301 0.666992 4.33203 3.33203 8.99902 7.99902h151
c-5.33301 -1.33301 -10.166 -2.66602 -14.499 -3.99902l-13.5 -4h-132zM577 553.999c4.66699 -4.66699 7.66699 -7.33301 9 -8h-130l-13.5 4l-13.5 4h148zM680 232c-0.666992 -2.66699 -1.33203 -5.16699 -1.99902 -7.5s-1.33398 -4.83301 -2.00098 -7.5h-71l6 15h69z
M315.002 268l7 14h75l-7 -14h-75zM328.002 293l7 14h75l-7 -14h-75zM72.002 217c-1.33301 2.66699 -2.16797 5.16699 -2.50098 7.5s-1.16602 4.83301 -2.49902 7.5h69l6 -15h-70zM129 257c0.666992 -2.66699 1.33203 -5.16699 1.99902 -7.5s1.33398 -4.83301 2.00098 -7.5
h-68l-3 15h67zM613.998 242c0.666992 1.33301 1.33203 3.33301 1.99902 6s1.33398 5.66699 2.00098 9h68l-3 -15h-69zM339.996 318l7 13h75l-7 -13h-75zM59.9961 268c-0.666992 1.33301 -1 3.33301 -1 6c0 3.33301 -0.333008 6 -1 8h67c0.666992 -6 1.66699 -10.667 3 -14
h-68zM56.9961 293v14h67v-14h-67zM688.996 282c0 -2.66699 -0.166992 -5.16699 -0.5 -7.5s-0.5 -4.5 -0.5 -6.5h-67c0.666992 1.33301 1 3.33301 1 6c0 3.33301 0.333008 6 1 8h66zM690.996 307c0 -7.33301 -0.333008 -12 -1 -14h-66c0 2 0.166992 4.16699 0.5 6.5
s0.5 4.83301 0.5 7.5h66zM352.996 344l6 12h75l-6 -12h-75zM365.996 369l6 12h75l-6 -12h-75zM378.996 394l6 12h75l-6 -12h-75zM56.9961 318v13h68c-0.666992 -2 -1 -6.33301 -1 -13h-67zM136.996 521c4 4 6.33301 6.66504 7 7.99805h112
c-2 -1.33301 -4.16699 -2.66602 -6.5 -3.99902s-4.5 -2.66602 -6.5 -3.99902h-106zM67.9961 393.998l2.99805 12h73c-1.33301 -2 -2.16602 -4 -2.49902 -6s-1.16602 -4 -2.49902 -6h-71zM99.9941 469.998c3.33301 4 5.33301 7.33301 6 10h87
c-1.33301 -2 -4.33301 -5.33301 -9 -10h-84zM689.994 330.998c0.666992 -2 1 -6.33301 1 -13h-66c0 6.66699 -0.333008 11 -1 13h66zM115.994 494.998c4 5.33301 6.33301 8.33301 7 9h96c-1.33301 -1.33301 -3 -2.83301 -5 -4.5s-3.66699 -3.16699 -5 -4.5h-93z
M675.994 405.998c0.666992 -1.33301 1.33301 -3 2 -5s1.33398 -4.33301 2.00098 -7h-70c-0.666992 1.33301 -1.33398 3 -2.00098 5s-1.66699 4.33301 -3 7h71zM134.993 380.998l-2 -6l-2 -6h-69c0 1.33301 0.666992 5.33301 2 12h71zM641.993 479.998
c0.666992 -2.66699 2.66699 -6 6 -10h-82c-1.33301 1.33301 -2.83301 3 -4.5 5s-3.16699 3.66699 -4.5 5h85zM624.993 503.998l6 -9h-90c-2 1.33301 -3.83301 2.83301 -5.5 4.5s-3.5 3.16699 -5.5 4.5h95zM74.9932 418.998c1.33301 1.33301 2.16797 3.00098 2.50098 5.00098
s1.16602 4 2.49902 6h76c-1.33301 -2.66699 -2.5 -4.83398 -3.5 -6.50098s-1.83301 -3.16699 -2.5 -4.5h-75zM391.995 418.999l6 11h75l-6 -11h-75zM617.995 368.999l-2 6l-2 6h69l3 -12h-68zM57.9951 343.999c0.666992 1.33301 1 3.33301 1 6s0.333008 4.66699 1 6h68
c-0.666992 -1.33301 -1 -3.33301 -1 -6s-0.333008 -4.66699 -1 -6h-68zM667.995 429.999l1.99707 -6c0.666992 -2 1.33398 -3.66699 2.00098 -5h-73c-1.33301 1.33301 -2.16602 3 -2.49902 5s-1.16602 4 -2.49902 6h74zM687.992 355.999c0 -6 0.333008 -10 1 -12h-66
c-0.666992 1.33301 -1 3.33301 -1 6s-0.333008 4.66699 -1 6h67zM86.9922 444.999c0.666992 1.33301 1.33203 2.83301 1.99902 4.5s1.33398 3.5 2.00098 5.5h81c-2 -4 -4.33301 -7.33301 -7 -10h-78zM655.99 454.999c1.33301 -2 2.16797 -3.83301 2.50098 -5.5
s1.16602 -3.16699 2.49902 -4.5h-76c-1.33301 1.33301 -2.5 3 -3.5 5s-2.16699 3.66699 -3.5 5h78zM405.992 444.999l5 10h75l-5 -10h-75zM418.992 469.999l5 10h75l-5 -10h-75zM431.992 494.999l4 9h75l-4 -9h-75zM373.992 626.999c9.33301 0 18.6689 -0.5 28.002 -1.5
s18.666 -2.16699 27.999 -3.5h-113c9.33301 1.33301 18.666 2.5 27.999 3.5s19 1.5 29 1.5z" />
    <glyph glyph-name="one" unicode="1" horiz-adv-x="336" 
d="M67 571v8h199v-8h-199zM196 15v20h70v-20h-70zM67 596v7h199v-7h-199zM196 40v19h70v-19h-70zM196 66v18h70v-18h-70zM196 91v18h70v-18h-70zM196 116v18h70v-18h-70zM196 141v17h70v-17h-70zM196 167v16h70v-16h-70zM196 192v16h70v-16h-70zM196 217v15h70v-15h-70z
M196 242v15h70v-15h-70zM196 268v14h70v-14h-70zM196 293v14h70v-14h-70zM196 318v13h70v-13h-70zM196 344v12h70v-12h-70zM196 369v12h70v-12h-70zM196 394v12h70v-12h-70zM196 419v11h70v-11h-70zM196 445v10h70v-10h-70zM196 470v10h70v-10h-70zM266 0h-70v10h70v-10z
M196 495v9h70v-9h-70zM196 546v8h70v-8h-70zM196 521v8h70v-8h-70zM67 624h199v-2h-199v2z" />
    <glyph glyph-name="two" unicode="2" horiz-adv-x="678" 
d="M67 15v20h539v-20h-539zM67 40v19h539v-19h-539zM606 0h-539v10h539v-10zM568 579c3.33301 -4.66699 5.66699 -7.33301 7 -8h-498v8h491zM77.001 596.001v7h460c2 -1.33301 3.83301 -2.5 5.5 -3.5s3.16699 -2.16699 4.5 -3.5h-470zM93.001 268.001l4.5 6.5l5.5 7.5h116
v-4c-6.66699 -1.33301 -12.5 -3 -17.5 -5s-9.5 -3.66699 -13.5 -5h-95zM112.001 293.001c2 2.66699 4 5 6 7l7 7h94v-14h-107zM571.001 331.001c-4 -4.66699 -8.33301 -9 -13 -13h-94v13h107zM67.001 116.001v18h72v-18h-72zM67.001 91.001v18h72v-18h-72zM67.001 66.001v18
h72v-18h-72zM589.001 356.001c-0.666992 -2 -3.33398 -6 -8.00098 -12h-117v1c10.667 2 21.334 5.66699 32.001 11h93zM67.001 141.001v17h72v-17h-72zM80.001 242.001c1.33301 2.66699 2.5 5.16699 3.5 7.5s2.16699 4.83301 3.5 7.5h84l-7.5 -7.5
c-2.33301 -2.33301 -4.5 -4.83301 -6.5 -7.5h-77zM68.001 192.001c0 2 0.166992 4.33301 0.5 7s0.833008 5.66699 1.5 9h72c-0.666992 -3.33301 -1.16699 -6.33301 -1.5 -9s-0.5 -5 -0.5 -7h-72zM67.001 167.001v6v10h72v-10v-6h-72zM72.001 217.001
c0.666992 1.33301 1.33301 3.33301 2 6s1.66699 5.66699 3 9h74c-3.33301 -5.33301 -5.33301 -10.333 -6 -15h-73zM545 307.001c-8 -6 -16 -10.667 -24 -14h-57v14h81zM602 381.001l-6 -12h-82c4 2.66699 7.66699 6.66699 11 12h77zM139 318.001c3.33301 2.66699 7 5 11 7
s7.66699 4 11 6h58v-13h-80zM610 406.001l-3.00098 -12h-75c1.33301 2.66699 2.33301 5 3 7s1.33398 3.66699 2.00098 5h73zM76.999 622.001v2h385c4 0 8 -0.166992 12 -0.5s8 -0.833008 12 -1.5h-409zM586.999 554.001c1.33301 -2 2.33203 -3.66602 2.99902 -4.99902
s1.33398 -2.33301 2.00098 -3h-95c-3.33301 1.33301 -6.33301 2.66602 -9 3.99902l-8 4h107zM540.998 419.002c0.666992 0.666992 1 2.33398 1 5.00098s0.333008 4.66699 1 6h72c-0.666992 -1.33301 -1 -3.33301 -1 -6s-0.333008 -4.33398 -1 -5.00098h-72zM613.998 480.002
c0 -2 0.166992 -3.83203 0.5 -5.49902s0.5 -3.16699 0.5 -4.5h-72c-1.33301 5.33301 -2 8.66602 -2 9.99902h73zM615.998 451.003v-6h-72v6v4h72v-4zM608.998 504.003c1.33301 -5.33301 2 -8.33301 2 -9h-74l-3 9h75zM599.998 529.003l2 -4l2 -4h-80l-6 8h82z
M484.998 282.003c-3.33301 -0.666992 -6.83301 -1.16699 -10.5 -1.5s-7.16699 -0.5 -10.5 -0.5v2h21z" />
    <glyph glyph-name="three" unicode="3" horiz-adv-x="613" 
d="M510 59c-3.33301 -3.33301 -6.33301 -6.5 -9 -9.5s-5.66699 -6.16699 -9 -9.5h-425v19h443zM487 35c-5.33301 -4.66699 -10.333 -8.5 -15 -11.5s-9.66699 -5.83301 -15 -8.5h-390v20h420zM397 0h-330.001v10h379c-13.333 -6.66699 -29.666 -10 -48.999 -10zM496.999 579
l8 -8h-438v8h430zM492.999 307c2 -2.66699 4 -5 6 -7s4 -4.33301 6 -7h-211v14h199zM467.999 603c1.33301 -1.33301 2.83301 -2.5 4.5 -3.5s3.5 -2.16699 5.5 -3.5h-411v7h401zM508.999 331c-2 -2.66699 -4 -5 -6 -7s-3.66699 -4 -5 -6h-204v13h215zM406.999 66
c12 3.33301 22.333 9.33301 31 18h88c-2 -3.33301 -4 -6.33301 -6 -9s-4 -5.66699 -6 -9h-107zM444.999 91l6.49902 8.5c2.33301 3 4.16602 6.16699 5.49902 9.5h80c-1.33301 -3.33301 -2.66602 -6.33301 -3.99902 -9s-2.66602 -5.66699 -3.99902 -9h-84zM418.998 281h-125
v1h219l5.5 -7.5l4.5 -6.5h-89c-2.66699 2 -5.16699 4.16699 -7.5 6.5s-4.83301 4.5 -7.5 6.5zM460.998 116c1.33301 3.33301 2.66602 6.33301 3.99902 9s2.66602 5.66699 3.99902 9h76c-1.33301 -3.33301 -2.16602 -6.33301 -2.49902 -9s-1.16602 -5.66699 -2.49902 -9h-79z
M470.998 141l1.99902 8c0.666992 2.66699 1.33398 5.66699 2.00098 9h74c0 -3.33301 -0.333008 -6.33301 -1 -9l-2 -8h-75zM455.997 242l-11.998 15h86c1.33301 -2.66699 2.66602 -5.16699 3.99902 -7.5s2.66602 -4.83301 3.99902 -7.5h-82zM475.999 192
c0 2.66699 -0.332031 5.16797 -0.999023 7.50098s-1.33398 5.16602 -2.00098 8.49902h76c0.666992 -2 1 -5 1 -9c0 -2.66699 0.333008 -5 1 -7h-75zM476 167.001c0 2.66699 0.166992 5.33203 0.5 7.99902s0.5 5.33398 0.5 8.00098h74c0 -8.66699 -0.333008 -14 -1 -16h-74z
M470 216.999c-1.33301 2.66699 -2.66992 5.16699 -4.00293 7.5s-2.66602 4.83301 -3.99902 7.5h80c0.666992 -1.33301 1.33398 -3.33301 2.00098 -6s1.33398 -5.66699 2.00098 -9h-76zM419.996 343.999c5.33301 3.33301 10.001 7.33301 14.001 12h92
c-0.666992 -2 -3.33398 -6 -8.00098 -12h-98zM538.997 380.999l-6 -12h-87l9 12h84zM546.997 405.999l-3 -12h-81c2.66699 4 4.66699 8 6 12h78zM473.997 418.999c0.666992 2 1.66699 5.66699 3 11h74c0 -2 -0.666992 -5.66699 -2 -11h-75zM516.997 553.999
c2 -2.66699 3.66699 -5.33105 5 -7.99805h-93c-2.66699 1.33301 -5 2.66602 -7 3.99902s-4.33301 2.66602 -7 3.99902h102zM546.997 480.002c0.666992 -1.33301 1 -3.33301 1 -6c0 -2 0.333008 -3.33301 1 -4h-74c-0.666992 2.66699 -1.66699 6 -3 10h75zM549.997 455.002
c0 -2 0.166992 -3.83301 0.5 -5.5s0.5 -3.16699 0.5 -4.5h-73c0 4.66699 -0.333008 8 -1 10h73zM466.997 495.002c-0.666992 1.33301 -1.33203 2.83301 -1.99902 4.5s-1.33398 3.16699 -2.00098 4.5h78l3 -9h-77zM396.999 624.002c3.33301 0 6.83301 -0.166992 10.5 -0.5
s7.16699 -0.833008 10.5 -1.5h-351v2h330zM530.999 529.002l2 -3.99805l2 -4h-82c-1.33301 1.33301 -2.33301 2.66602 -3 3.99902s-1.66699 2.66602 -3 3.99902h84z" />
    <glyph glyph-name="four" unicode="4" horiz-adv-x="717" 
d="M70 268v14h411v-14h-411zM70 293v14h411v-14h-411zM140 326h341v-8h-411v13h70v-5zM577 15v20h70v-20h-70zM577 40v19h70v-19h-70zM577 66v18h70v-18h-70zM577 91v18h70v-18h-70zM577 116v18h70v-18h-70zM577 141v17h70v-17h-70zM577 167v16h70v-16h-70zM577 192v16h70
v-16h-70zM577 217v15h70v-15h-70zM577 242v15h70v-15h-70zM577 268v14h70v-14h-70zM577 293v14h70v-14h-70zM577 318v13h70v-13h-70zM70 344v12h70v-12h-70zM70 369v12h70v-12h-70zM70 394v12h70v-12h-70zM577 369v12h70v-12h-70zM577 344v12h70v-12h-70zM577 394v12h70v-12
h-70zM70 419v11h70v-11h-70zM577 419v11h70v-11h-70zM647 0h-70v10h70v-10zM70 470v10h70v-10h-70zM70 445v10h70v-10h-70zM577 470v10h70v-10h-70zM577 445v10h70v-10h-70zM70 495v9h70v-9h-70zM577 495v9h70v-9h-70zM70 521v8h70v-8h-70zM70 571v8h70v-8h-70zM70 546v8h70
v-8h-70zM577 521v8h70v-8h-70zM577 571v8h70v-8h-70zM577 546v8h70v-8h-70zM70 596v7h70v-7h-70zM577 596v7h70v-7h-70zM70 624h70v-2h-70v2zM577 622v2h70v-2h-70z" />
    <glyph glyph-name="five" unicode="5" horiz-adv-x="681" 
d="M582 59c-2.66699 -3.33301 -5.33301 -6.5 -8 -9.5s-5.66699 -6.16699 -9 -9.5h-485v19h502zM560.001 35c-5.33301 -4 -10.5 -7.66699 -15.5 -11s-10.167 -6.33301 -15.5 -9h-449v20h480zM70.001 571v8h539v-8h-539zM465.001 0h-385v10h438
c-15.333 -6.66699 -33 -10 -53 -10zM70.001 596v7h539v-7h-539zM70.001 293v14h152v-14h-152zM70.001 318v13h152v-13h-152zM598.001 84c-3.33301 -8 -6.66602 -14 -9.99902 -18h-119c15.333 2.66699 28.666 8.66699 39.999 18h89zM583.001 282
c1.33301 -2.66699 2.83301 -5 4.5 -7s3.16699 -4.33301 4.5 -7h-95l-12.5 5c-5 2 -10.833 3.66699 -17.5 5v4h116zM609.001 109l-3.50098 -9l-3.5 -9h-85c6.66699 6.66699 11.334 12.667 14.001 18h78zM560 307l14 -14h-107v14h93zM615 134
c-0.666992 -3.33301 -1.16797 -6.33301 -1.50098 -9s-1.16602 -5.66699 -2.49902 -9h-76c1.33301 2.66699 2.33301 5.5 3 8.5s1.66699 6.16699 3 9.5h74zM617.999 158v-9c0 -3.33301 -0.333008 -6 -1 -8h-74l2 8c0.666992 2.66699 1 5.66699 1 9h72zM597.999 257
c1.33301 -2.66699 2.5 -5.16699 3.5 -7.5s2.16699 -4.83301 3.5 -7.5h-77c-2 2.66699 -4 5.16699 -6 7.5s-4.66699 4.83301 -8 7.5h84zM614.999 208c0.666992 -2.66699 1.16699 -5.33398 1.5 -8.00098s0.833008 -5.33398 1.5 -8.00098h-72
c-0.666992 2.66699 -1.16699 5.33398 -1.5 8.00098s-0.833008 5.33398 -1.5 8.00098h72zM618.999 173v-6h-72v6v10h71c0 -2 0.166992 -3.83301 0.5 -5.5s0.5 -3.16699 0.5 -4.5zM608.999 232c0.666992 -2.66699 1.33203 -5.16699 1.99902 -7.5
s1.33398 -4.83301 2.00098 -7.5h-72c-1.33301 2.66699 -2.5 5.16699 -3.5 7.5s-2.16699 4.83301 -3.5 7.5h75zM608.997 624v-2h-539v2h539zM221.997 345v-1h-152v12h72v-11h80zM523.997 331c9.33301 -4 16.667 -8.33301 22 -13h-79v13h57zM69.998 394v12h72v-12h-72z
M69.998 369v12h72v-12h-72zM69.998 419v11h72v-11h-72zM69.998 445v10h72v-10h-72zM69.998 470v10h72v-10h-72zM69.998 495v9h72v-9h-72zM69.998 521v8h72v-8h-72zM69.998 546v8h72v-8h-72zM221.998 280h-152v2h152v-2z" />
    <glyph glyph-name="six" unicode="6" 
d="M691 307c0 -2.66699 -0.166992 -5.16699 -0.5 -7.5s-0.5 -4.5 -0.5 -6.5h-633v14h634zM689 282c-0.666992 -2 -1 -4.66699 -1 -8c0 -2.66699 -0.333008 -4.66699 -1 -6h-627c-0.666992 1.33301 -1 3.33301 -1 6c0 3.33301 -0.333008 6 -1 8h631zM550 59l-14.999 -9.5
l-15 -9.5h-306l-15 9.5c-4.66699 3 -9.33398 6.16699 -14.001 9.5h365zM57.001 318v13h66v-4h568v-9h-634zM511.001 35c-7.33301 -4 -14.5 -7.66699 -21.5 -11s-14.167 -6.33301 -21.5 -9h-200l-22.5 8.5c-7.66699 3 -15.167 6.83301 -22.5 11.5h288zM193.001 571l6 4.00098
l6 4h336c6 -4.66699 10 -7.33398 12 -8.00098h-360zM274.001 84.001c19.333 -9.33301 39.667 -15.333 61 -18h-159c-3.33301 3.33301 -6.83301 6.33301 -10.5 9s-7.16699 5.66699 -10.5 9h119zM409.002 66.001c20 2.66699 39.667 8.66699 59 18h113
c-3.33301 -3.33301 -7 -6.5 -11 -9.5l-11 -8.5h-150zM231.002 109.001c4.66699 -3.33301 9.33203 -6.5 13.999 -9.5s9.66699 -5.83301 15 -8.5h-112c-3.33301 2.66699 -6.16602 5.5 -8.49902 8.5l-7.5 9.5h99zM482 91.001c4.66699 2.66699 9.33301 5.5 14 8.5
s9.33398 6.16699 14.001 9.5h96c-2.66699 -3.33301 -5.33398 -6.33301 -8.00098 -9l-9 -9h-107zM236.999 596.001c2.66699 1.33301 5.16699 2.5 7.5 3.5s4.83301 2.16699 7.5 3.5h242c2.66699 -1.33301 5.16699 -2.5 7.5 -3.5l8.5 -3.5h-273zM199.999 134.001
c6.66699 -7.33301 13.667 -13.333 21 -18h-95c-4 4 -8.33301 10 -13 18h87zM519.999 116.001c6.66699 4.66699 13.667 10.667 21 18h87l-15 -18h-93zM452.999 10.001c-25.333 -8.66699 -51.667 -13 -79 -13c-34 0 -64 4.33301 -90 13h169zM177.998 158.001l7.5 -8.99902
c2.33301 -2.66699 4.83301 -5.33398 7.5 -8.00098h-85c-3.33301 4 -7 9.66699 -11 17h81zM547.998 141.002l8 8.00098c2.66699 2.66699 5.33398 5.66699 8.00098 9h80c-1.33301 -3.33301 -2.83301 -6.33301 -4.5 -9s-3.83398 -5.33398 -6.50098 -8.00098h-85z
M570.998 167.003c4 5.33301 7.66699 10.666 11 15.999h77c-1.33301 -3.33301 -2.83301 -6.16602 -4.5 -8.49902s-3.16699 -4.83301 -4.5 -7.5h-79zM160.998 183.003c1.33301 -3.33301 3 -6.16699 5 -8.5s4 -4.83301 6 -7.5h-80c-1.33301 2.66699 -2.5 5.16699 -3.5 7.5
l-3.5 8.5h76zM587.998 192.002c1.33301 2.66699 2.83301 5.16699 4.5 7.5s3.16699 5.16602 4.5 8.49902h73c-2 -7.33301 -4.33301 -12.666 -7 -15.999h-75zM146.998 208.002c2.66699 -6 5.33301 -11.333 8 -16h-74c-1.33301 2.66699 -2.5 5.16699 -3.5 7.5l-3.5 8.5h73z
M161.997 546.002c1.33301 0.666992 4.33301 3.33203 9 7.99902h146c-4.66699 -1.33301 -9 -2.66602 -13 -3.99902l-12 -4h-130zM457.997 546c-4.66699 1.33301 -9 2.66895 -13 4.00195s-8.33301 2.66602 -13 3.99902h143c4.66699 -4.66699 7.66699 -7.33398 9 -8.00098h-126
zM601.997 217.003c1.33301 2.66699 2.49805 5.16699 3.49805 7.5s2.16699 4.83301 3.5 7.5h70c-1.33301 -2.66699 -2.16602 -5.16699 -2.49902 -7.5s-1.16602 -4.83301 -2.49902 -7.5h-72zM136.995 232.003l5.99805 -15h-71c-1.33301 2.66699 -2.16602 5.16699 -2.49902 7.5
s-1.16602 4.83301 -2.49902 7.5h70zM128.993 257.003c0.666992 -2.66699 1.33203 -5.16699 1.99902 -7.5s1.33398 -4.83301 2.00098 -7.5h-68l-3 15h67zM612.991 242.003c1.33301 3.33301 2.33203 6.33301 2.99902 9s1.33398 4.66699 2.00098 6h67l-3 -15h-69z
M136.99 521.003c4 4 6.33301 6.66602 7 7.99902h111c-2.66699 -1.33301 -5 -2.66602 -7 -3.99902l-6 -4h-105zM99.9902 470.002c3.33301 4 5.33301 7.33301 6 10h86c-1.33301 -2 -4.33301 -5.33301 -9 -10h-83zM67.9902 394.002l3 12h72l-6 -12h-69zM506.99 521.002
c-2 1.33301 -4.16699 2.66797 -6.5 4.00098s-4.5 2.66602 -6.5 3.99902h108c0.666992 -1.33301 3 -4 7 -8h-102zM115.99 495.004c4 5.33301 6.33301 8.33301 7 9h95c-2 -1.33301 -5.33301 -4.33301 -10 -9h-92zM640.99 480.004c0.666992 -2.66699 2.66699 -6 6 -10h-82
c-1.33301 1.33301 -2.83301 3 -4.5 5s-3.16699 3.66699 -4.5 5h85zM623.99 504.004l6 -9h-90c-4.66699 4.66699 -8 7.66699 -10 9h94zM61.9902 369.004c0 1.33301 0.666992 5.33301 2 12h69l-3 -12h-68zM74.9902 419.004c1.33301 1.33301 2.16797 3 2.50098 5
s1.16602 4 2.49902 6h75c-1.33301 -2 -2.33301 -3.83301 -3 -5.5s-1.66699 -3.5 -3 -5.5h-74zM57.9922 344.004c0.666992 1.33301 1 3.33301 1 6s0.333008 4.66699 1 6h67c-1.33301 -6.66699 -2 -10.667 -2 -12h-67zM86.9922 445.004
c0.666992 1.33301 1.33203 2.83301 1.99902 4.5s1.33398 3.5 2.00098 5.5h80c-1.33301 -1.33301 -2.5 -3 -3.5 -5s-2.16699 -3.66699 -3.5 -5h-77zM583.99 445.004c-1.33301 1.33301 -2.5 2.83301 -3.5 4.5s-2.16699 3.5 -3.5 5.5h78c2 -2.66699 3.66699 -6 5 -10h-76z
M598.99 419.004c-0.666992 1.33301 -1.5 2.83203 -2.5 4.49902s-2.16699 3.83398 -3.5 6.50098h50l-17 -11h-27zM316.99 622.003c9.33301 1.33301 18.6689 2.5 28.002 3.5s19 1.5 29 1.5c9.33301 0 18.666 -0.5 27.999 -1.5s18.666 -2.16699 27.999 -3.5h-113z" />
    <glyph glyph-name="seven" unicode="7" horiz-adv-x="660" 
d="M67 571v8h517l-6 -8h-511zM67 596v7h535l-5 -7h-530zM78 15l15 20h85l-15 -20h-85zM96 40l14 19h85l-14 -19h-85zM115 66l14 18h85l-14 -18h-85zM152 116l14 18h85l-14 -18h-85zM134 91l13 18h85l-13 -18h-85zM171 141l12 17h85l-12 -17h-85zM209 192l12 16h85l-12 -16
h-85zM190 167l12 16h85l-12 -16h-85zM228 217l11 15h85l-12 -15h-84zM246 242l12 15h84l-11 -15h-85zM266 268l10 14h85l-10 -14h-85zM285 293l10 14h85l-11 -14h-84zM303 318l10 13h85l-10 -13h-85zM618 624l-2 -2h-549v2h551zM323 344l9 12h85l-9 -12h-85zM361 394l9 12
h84l-9 -12h-84zM342 369l9 12h84l-9 -12h-84zM379 419l8 11h85l-8 -11h-85zM417 470l8 10h85l-8 -10h-85zM67 0l7 10h85l-7 -10h-85zM399 445l7 10h85l-8 -10h-84zM436 495l7 9h85l-7 -9h-85zM474 546l6 8h85l-6 -8h-85zM456 521l6 8h84l-6 -8h-84z" />
    <glyph glyph-name="eight" unicode="8" horiz-adv-x="672" 
d="M120 40c-3.33301 3.33301 -6.33301 6.5 -9 9.5s-5.66699 6.16699 -9 9.5h467c-3.33301 -3.33301 -6.33301 -6.5 -9 -9.5s-5.66699 -6.16699 -9 -9.5h-431zM154 15c-5.33301 2.66699 -10.332 5.5 -14.999 8.5s-9.33398 6.83301 -14.001 11.5h421
c-5.33301 -4.66699 -10.333 -8.5 -15 -11.5s-9.66699 -5.83301 -15 -8.5h-362zM556.001 579l8 -8h-457l8 8h441zM216.001 0c-20 0 -37.001 3.33301 -51.001 10h340c-13.333 -6.66699 -29.666 -10 -48.999 -10h-240zM552 307c2 -2.66699 4 -5 6 -7s4 -4.33301 6 -7h-211v14
h199zM527 603c1.33301 -1.33301 2.83301 -2.5 4.5 -3.5s3.5 -2.16699 5.5 -3.5h-403c1.33301 1.33301 2.83301 2.5 4.5 3.5s3.5 2.16699 5.5 3.5h383zM568 331c-2 -2.66699 -4 -5 -6 -7s-3.66699 -4 -5 -6h-204v13h215zM97 66c-1.33301 2.66699 -3 5.5 -5 8.5
s-4 6.16699 -6 9.5h89c8.66699 -8.66699 19 -14.667 31 -18h-109zM585 84c-2 -3.33301 -4 -6.33301 -6 -9s-4 -5.66699 -6 -9h-107c12 3.33301 22.333 9.33301 31 18h88zM83 91c-1.33301 3.33301 -2.66699 6.33301 -4 9s-2.66602 5.66699 -3.99902 9h80
c5.33301 -8.66699 9.66602 -14.667 12.999 -18h-85zM595.999 109c-1.33301 -3.33301 -2.66699 -6.33301 -4 -9s-2.66602 -5.66699 -3.99902 -9h-84l6.5 8.5c2.33301 3 4.16602 6.16699 5.49902 9.5h80zM571.998 282l5.5 -7.5l4.5 -6.5h-89
c-2.66699 2 -5.16699 4.16699 -7.5 6.5s-4.83301 4.5 -7.5 6.5h-125v1h219zM603.998 134c-1.33301 -3.33301 -2.16602 -6.33301 -2.49902 -9s-1.16602 -5.66699 -2.49902 -9h-79c1.33301 3.33301 2.66602 6.33301 3.99902 9s2.66602 5.66699 3.99902 9h76zM72.998 116
c-2.66699 5.33301 -4.33301 11.333 -5 18h76l3.5 -9l3.5 -9h-78zM89.999 268c1.33301 2.66699 2.83301 5 4.5 7s3.16699 4.33301 4.5 7h96v-1c-6 -4 -11.333 -8.33301 -16 -13h-89zM65.999 141c-0.666992 2.66699 -1.16602 5.33398 -1.49902 8.00098
s-0.833008 5.66699 -1.5 9h75c0.666992 -3.33301 1.16699 -6.33301 1.5 -9s1.16602 -5.33398 2.49902 -8.00098h-76zM608 158c0 -3.33301 -0.333984 -6.33301 -1.00098 -9l-2 -8h-75l2 8c0.666992 2.66699 1.33398 5.66699 2.00098 9h74zM74.999 242
c1.33301 2.66699 2.66797 5.16699 4.00098 7.5s2.66602 4.83301 3.99902 7.5h86l-12 -15h-82zM589.001 257c1.33301 -2.66699 2.66797 -5.16699 4.00098 -7.5s2.66602 -4.83301 3.99902 -7.5h-82l-12 15h86zM62.0029 192c0 2.66699 0.166016 5.16699 0.499023 7.5
s0.833008 5.16602 1.5 8.49902h76c-1.33301 -3.33301 -2.16602 -6.16602 -2.49902 -8.49902s-0.833008 -4.83301 -1.5 -7.5h-74zM608.002 208c0.666992 -2 1.00098 -4.99902 1.00098 -8.99902c0 -2.66699 0.333008 -5 1 -7h-75c0 2.66699 -0.333008 5.16699 -1 7.5
s-1.33398 5.16602 -2.00098 8.49902h76zM610.003 183.001c0 -8.66699 -0.333008 -14.002 -1 -16.002h-74c0 2.66699 0.166992 5.33398 0.5 8.00098s0.5 5.33398 0.5 8.00098h74zM136.003 182.999v-8c0 -3.33301 0.333008 -6 1 -8h-75v16h74zM66.0029 216.999
c1.33301 2.66699 2.16602 5.16699 2.49902 7.5s1.16602 4.83301 2.49902 7.5h80c-1.33301 -2.66699 -2.66602 -5.16699 -3.99902 -7.5s-2.66602 -4.83301 -3.99902 -7.5h-77zM601.003 231.999c0.666992 -1.33301 1.33008 -3.33301 1.99707 -6s1.33398 -5.66699 2.00098 -9
h-76c-1.33301 2.66699 -2.66602 5.16699 -3.99902 7.5s-2.66602 4.83301 -3.99902 7.5h80zM179.999 355.999c2 -2.66699 4.33301 -5 7 -7s5.33398 -3.66699 8.00098 -5h-101c-0.666992 2 -3.33398 6 -8.00098 12h94zM478.999 343.999
c5.33301 3.33301 10.001 7.33301 14.001 12h92c-0.666992 -2 -3.33398 -6 -8.00098 -12h-98zM108 292.999c2 2.66699 4 5 6 7s4 4.33301 6 7h75v-14h-87zM115 317.999l-6 6c-2 2 -3.66699 4.33301 -5 7h91v-13h-80zM79 368.999c-1.33301 2.66699 -2.33203 5 -2.99902 7
s-1.33398 3.66699 -2.00098 5h84l9 -12h-88zM598.001 380.999l-6 -12h-87l9 12h84zM69.001 393.999l-3 12h77l3.5 -7c1 -2 2.16699 -3.66699 3.5 -5h-81zM606.001 405.999l-3 -12h-81c2.66699 4 4.66699 8 6 12h78zM136.001 429.999c0 -2 0.166992 -3.83301 0.5 -5.5
s0.833008 -3.5 1.5 -5.5h-75c0 1.33301 -0.166992 3 -0.5 5s-0.5 4 -0.5 6h74zM533.001 418.999c0.666992 2 1.66699 5.66699 3 11h74c0 -2 -0.666992 -5.66699 -2 -11h-75zM90.001 545.999c0.666992 2.66699 2.33301 5.33105 5 7.99805h102
c-2.66699 -1.33301 -5 -2.66602 -7 -3.99902s-4.33301 -2.66602 -7 -3.99902h-93zM576 553.996c2 -2.66699 3.66699 -5.33105 5 -7.99805h-93c-2.66699 1.33301 -5 2.66602 -7 3.99902s-4.33301 2.66602 -7 3.99902h102zM64 469.999c0 1.33301 0.166992 2.83301 0.5 4.5
s0.5 3.5 0.5 5.5h75l-2 -10h-74zM606 479.999c0.666992 -1.33301 1 -3.33301 1 -6c0 -2 0.333008 -3.33301 1 -4h-74c-0.666992 2.66699 -1.66699 6 -3 10h75zM62 444.999v10h73v-10h-73zM609 454.999c0 -2 0.166992 -3.83301 0.5 -5.5s0.5 -3.16699 0.5 -4.5h-73
c0 4.66699 -0.333008 8 -1 10h73zM526 494.999c-0.666992 1.33301 -1.33203 2.83301 -1.99902 4.5s-1.33398 3.16699 -2.00098 4.5h78l3 -9h-77zM149.002 503.999c-0.666992 -2 -1.33301 -3.66797 -2 -5.00098l-2 -4h-76c0.666992 0.666992 1 2 1 4
c0 2.66699 0.333008 4.33398 1 5.00098h78zM77.0029 520.998l2 3.99805l2 4h85c-1.33301 -1.33301 -2.5 -2.66602 -3.5 -3.99902s-2.16699 -2.66602 -3.5 -3.99902h-82zM590.003 528.996l2 -3.99805l2 -4h-82c-1.33301 1.33301 -2.33301 2.66602 -3 3.99902
s-1.66699 2.66602 -3 3.99902h84zM456.003 623.998c3.33301 0 6.83301 -0.166992 10.5 -0.5s7.16699 -0.833008 10.5 -1.5h-283c3.33301 0.666992 6.83301 1.16699 10.5 1.5s7.5 0.5 11.5 0.5h240z" />
    <glyph glyph-name="nine" unicode="9" 
d="M57 318c0 6.66699 0.333008 11 1 13h632c0.666992 -2 1 -6.33301 1 -13h-634zM59 344c0 1.33301 0.666992 5.33301 2 12h627c0 -6 0.333008 -10 1 -12h-630zM563 59c-5.33301 -3.33301 -10.3311 -6.66699 -14.998 -10s-9.33398 -6.33301 -14.001 -9h-320l-15 9.5
c-4.66699 3 -9.33398 6.16699 -14.001 9.5h378zM691.002 306.999c0 -7.33301 -0.333008 -11.999 -1 -13.999h-66c0 0.666992 0.166992 1.16699 0.5 1.5s0.5 1.16602 0.5 2.49902h-568v10h634zM525.002 35c-8.66699 -4.66699 -16.667 -8.5 -24 -11.5l-21 -8.5h-211
c-8 2.66699 -15.833 5.66699 -23.5 9s-15.167 7 -22.5 11h302zM206.002 571c2 1.33301 4.16699 2.66797 6.5 4.00098s4.5 2.66602 6.5 3.99902h323l6 -4l6 -4h-348zM592.002 84.002c-3.33301 -3.33301 -6.66797 -6.33301 -10.001 -9s-6.66602 -5.66699 -9.99902 -9h-170
c22.667 2.66699 44.667 8.66699 66 18h124zM176 66.002c-3.33301 3.33301 -6.83203 6.33301 -10.499 9s-7.16699 5.66699 -10.5 9h121c21.333 -9.33301 43.666 -15.333 66.999 -18h-167zM616.001 109.002c-2.66699 -3.33301 -5.33203 -6.5 -7.99902 -9.5
s-5.33398 -5.83301 -8.00098 -8.5h-117c8.66699 4 19 10 31 18h102zM148.003 91.002c-2.66699 3.33301 -5.33203 6.33301 -7.99902 9s-5.33398 5.66699 -8.00098 9h100c8.66699 -7.33301 18.667 -13.333 30 -18h-114zM249.005 596.002c2.66699 1.33301 5.16699 2.5 7.5 3.5
s4.83301 2.16699 7.5 3.5h231l8.5 -3.5c2.33301 -1 4.83301 -2.16699 7.5 -3.5h-262zM635.005 134.002c-2.66699 -3.33301 -5 -6.5 -7 -9.5s-4 -5.83301 -6 -8.5h-99l11 8.5c4 3 7.66699 6.16699 11 9.5h90zM126.005 116.002c-2 3.33301 -4.16699 6.33301 -6.5 9
s-4.5 5.66699 -6.5 9h88c6.66699 -7.33301 13.667 -13.333 21 -18h-96zM464.005 10.002c-26.667 -8.66699 -56.667 -13 -90 -13c-34 0 -64 4.33301 -90 13h180zM650.005 158.002c-1.33301 -3.33301 -3 -6.33301 -5 -9s-3.66699 -5.33398 -5 -8.00098h-88
c3.33301 2.66699 6 5.33398 8 8.00098l7 9h83zM108.005 141.002c-2.66699 2.66699 -4.83301 5.33398 -6.5 8.00098s-3.16699 5.66699 -4.5 9h82l7.5 -9c2.33301 -2.66699 4.83301 -5.33398 7.5 -8.00098h-86zM663.006 183.002c-2.66699 -6 -5.33301 -11.332 -8 -15.999h-80
c2 2.66699 4 5.16699 6 7.5s3.66699 5.16602 5 8.49902h77zM160.007 183.003c2 -3.33301 4 -6.16797 6 -8.50098s4 -4.83301 6 -7.5h-79c-2 2.66699 -4.33301 7.33398 -7 14.001l3 2h71zM673.007 208.001c-1.33301 -3.33301 -2.33398 -6.16699 -3.00098 -8.5
s-1.66699 -4.83301 -3 -7.5h-75c2.66699 4.66699 5.33398 10 8.00098 16h73zM456.006 546l-13.5 4.00098l-13.5 4h148c4.66699 -4.66699 7.66699 -7.33398 9 -8.00098h-130zM680.006 232.001c-0.666992 -2.66699 -1.33203 -5.16699 -1.99902 -7.5
s-1.33398 -4.83301 -2.00098 -7.5h-72c1.33301 2.66699 2.5 5.16699 3.5 7.5s2.16699 4.83301 3.5 7.5h69zM323.008 554.001l-13.5 -3.99805l-12.5 -4h-124c2 1.33301 3.83301 2.66602 5.5 3.99902s3.16699 2.66602 4.5 3.99902h140zM614.008 242.003
c0.666992 1.33301 1.33203 3.33301 1.99902 6s1.33398 5.66699 2.00098 9h68l-3 -15h-69zM689.006 282.003c0 -2.66699 -0.166992 -5.16797 -0.5 -7.50098s-0.5 -4.5 -0.5 -6.5h-67c1.33301 6.66699 2 11.334 2 14.001h66zM507.006 521.002
c-2 1.33301 -4.16699 2.66797 -6.5 4.00098s-4.5 2.66602 -6.5 3.99902h109l8 -8h-104zM610.006 394.004c-1.33301 2.66699 -2.33398 5 -3.00098 7s-1.33398 3.66699 -2.00098 5h71c0.666992 -1.33301 1.33398 -3 2.00098 -5s1.33398 -4.33301 2.00098 -7h-70z
M145.005 406.004l-6 -12h-69l3 12h72zM565.005 470.004c-1.33301 1.33301 -2.66797 3 -4.00098 5s-2.66602 3.66699 -3.99902 5h85c0.666992 -2.66699 2.66699 -6 6 -10h-83zM197.003 480.004l-10 -10h-81c1.33301 1.33301 2.33301 3 3 5s1.66699 3.66699 3 5h85z
M541.003 495.004c-1.33301 1.33301 -3 2.83301 -5 4.5s-3.66699 3.16699 -5 4.5h94l6 -9h-90zM260.003 529.004c-2.66699 -1.33301 -5 -2.66699 -7 -4l-6 -4h-100c4 4 6.33301 6.66699 7 8h106zM618.003 369.003l-2 6l-2 6h69l3 -12h-68zM63.0029 369.003l3.00195 12h68
c-0.666992 -1.33301 -1.33398 -3 -2.00098 -5s-1.33398 -4.33301 -2.00098 -7h-67zM599.005 419.003c-1.33301 2 -2.33398 3.83301 -3.00098 5.5s-1.66699 3.5 -3 5.5h75l2 -6c0.666992 -2 1.33398 -3.66699 2.00098 -5h-73zM223.004 504.003l-6.5 -5.00098
c-1.66699 -1.33301 -3.16699 -2.66602 -4.5 -3.99902h-88c1.33301 1.33301 2.5 2.83301 3.5 4.5s2.16699 3.16699 3.5 4.5h92zM158.004 430.002c-1.33301 -2 -2.50098 -4.00098 -3.50098 -6.00098s-2.16699 -3.66699 -3.5 -5h-72
c0.666992 1.33301 1.33398 2.83301 2.00098 4.5s1.66699 3.83398 3 6.50098h74zM584.003 445.001c-1.33301 1.33301 -2.49805 2.83301 -3.49805 4.5s-2.16699 3.5 -3.5 5.5h79c1.33301 -2 2.16602 -3.83301 2.49902 -5.5s1.16602 -3.16699 2.49902 -4.5h-77z
M175.005 455.001c-1.33301 -2 -2.66797 -3.83301 -4.00098 -5.5s-2.66602 -3.16699 -3.99902 -4.5h-76c3.33301 4 5.33301 7.33301 6 10h78zM146.003 208.001c1.33301 -3.33301 2.83301 -6.16699 4.5 -8.5s3.16699 -4.83301 4.5 -7.5h-52l25 16h18zM325.003 622
c8.66699 1.33301 17.002 2.5 25.002 3.5s16 1.5 24 1.5c9.33301 0 18.666 -0.5 27.999 -1.5s18.666 -2.16699 27.999 -3.5h-105z" />
    <glyph glyph-name="colon" unicode=":" horiz-adv-x="234" 
d="M62 52v6.99902h109c0.666992 -1.33301 1 -3.66602 1 -6.99902c0 -6 -0.333008 -10 -1 -12h-108c-0.666992 2 -1 6 -1 12zM76 14.999c-5.33301 5.33301 -9.33301 12 -12 20h105c-2 -8 -6 -14.667 -12 -20h-81zM162 83.999c4 -6 6.66699 -12 8 -18h-107
c0.666992 4.66699 3.66699 10.667 9 18h90zM65 393.999l-3 12h109c0 -4 -1 -8 -3 -12h-103zM170 429.999c0.666992 -1.33301 1 -3.33301 1 -6c0 -2 0.333008 -3.66699 1 -5h-110c0 2 0.166992 3.83301 0.5 5.5s0.833008 3.5 1.5 5.5h106zM86 368.999
c-5.33301 2.66699 -9.66699 6.66699 -13 12h88c-4 -5.33301 -8.33301 -9.33301 -13 -12h-62zM152.999 454.999c4 -4 7 -7.33301 9 -10h-91c1.33301 1.33301 2.83301 3 4.5 5s3.16699 3.66699 4.5 5h73zM116.999 105.999c14 0 26.667 -5 38 -15h-77
c10.667 10 23.667 15 39 15zM116.999 -2.00098c-14 0 -26 4 -36 12h71c-9.33301 -8 -21 -12 -35 -12z" />
    <glyph glyph-name="semicolon" unicode=";" horiz-adv-x="234" 
d="M173 50v-10h-110c-0.666992 2 -1 6 -1 12v7h110c0.666992 -1.33301 1 -4.33301 1 -9zM172 35c0 -3.33301 -0.166992 -6.66797 -0.5 -10.001s-0.833008 -6.66602 -1.5 -9.99902h-93c-6 6 -10 12.667 -12 20h107zM161 83.998l5.5 -9
c1.66699 -2.66699 3.16699 -5.66699 4.5 -9h-108c0.666992 4.66699 3.66699 10.667 9 18h89zM155 -39.002c-1.33301 -4 -3.16699 -7.83203 -5.5 -11.499s-4.83301 -7.16699 -7.5 -10.5h-67c6 7.33301 10.667 14.666 14 21.999h66zM169.999 9.99902l-2 -10.001
c-0.666992 -3.33301 -1.66699 -6.66602 -3 -9.99902h-66c0.666992 1.33301 1 3.33301 1 6c0 2 0.333008 3.33301 1 4c-7.33301 2 -13.333 5.33301 -18 10h87zM163.999 -15.002c-1.33301 -3.33301 -2.5 -6.83301 -3.5 -10.5s-2.16699 -7.16699 -3.5 -10.5h-66
c1.33301 3.33301 2.5 6.83301 3.5 10.5s2.16699 7.16699 3.5 10.5h66zM64.999 393.998l-3 12h110c0 -5.33301 -1 -9.33301 -3 -12h-104zM170.999 429.998c0.666992 -1.33301 1 -3.33301 1 -6c0 -2 0.333008 -3.66699 1 -5h-111c0 2 0.166992 3.83301 0.5 5.5
s0.833008 3.5 1.5 5.5h107zM85.999 368.998c-5.33301 2.66699 -9.66797 6.66699 -13.001 12h88c-3.33301 -5.33301 -7.66602 -9.33301 -12.999 -12h-62zM153.997 454.998c1.33301 -1.33301 2.83301 -3 4.5 -5s3.16699 -3.66699 4.5 -5h-92c1.33301 1.33301 2.83301 3 4.5 5
s3.16699 3.66699 4.5 5h74zM116.997 105.998c14 0 26.667 -5 38 -15h-77c10.667 10 23.667 15 39 15z" />
    <glyph glyph-name="less" unicode="&#x3c;" horiz-adv-x="325" 
d="M194 15l-10 20h77l9 -20h-76zM181 40l-9 19h77l9 -19h-77zM143 116l-9 18h78l9 -18h-78zM156 91l-9 18h78l9 -18h-78zM168 66l-9 18h78l9 -18h-78zM131 141l-9 17h78l9 -17h-78zM105 192l-8 16h78l8 -16h-78zM118 167l-8 16h78l8 -16h-78zM80 242l-7 15h78l7 -15h-78z
M93 217l-8 15h78l8 -15h-78zM55 293l-7 14h78l7 -14h-78zM67 268l-7 14h78l7 -14h-78zM51 318l7 13h78l-7 -13h-78zM64 344l6 12h78l-6 -12h-78zM77 369l6 12h78l-6 -12h-78zM89 394l6 12h78l-6 -12h-78zM102 419l5 11h78l-6 -11h-77zM115 445l5 10h77l-5 -10h-77zM127 470
l5 10h77l-5 -10h-77zM202 0l-5 10h76l5 -10h-76zM139 495l5 9h76l-4 -9h-77zM164 546l4 8h76l-4 -8h-76zM152 521l4 8h76l-4 -8h-76zM176 571l4 8h76l-4 -8h-76zM188 596l4 7h76l-4 -7h-76zM202 624h76l-1 -2h-76z" />
    <glyph glyph-name="equal" unicode="=" horiz-adv-x="499" 
d="M67 217v15h365v-15h-365zM67 242v15h365v-15h-365zM67 369v12h365v-12h-365zM67 394v12h365v-12h-365zM67 201v7h365v-7h-365zM67 419v1h365v-1h-365z" />
    <glyph glyph-name="greater" unicode="&#x3e;" horiz-adv-x="325" 
d="M54 15l10 20h76l-10 -20h-76zM67 40l9 19h76l-9 -19h-76zM80 66l9 18h76l-9 -18h-76zM92 91l9 18h76l-9 -18h-76zM105 116l9 18h76l-9 -18h-76zM117 141l9 17h76l-9 -17h-76zM130 167l8 16h76l-8 -16h-76zM143 192l8 16h76l-8 -16h-76zM168 242l7 15h76l-7 -15h-76z
M155 217l8 15h76l-8 -15h-76zM192 293l7 14h78l-8 -14h-77zM180 268l7 14h77l-7 -14h-77zM195 318l-6 13h78l6 -13h-78zM171 369l-6 12h78l6 -12h-78zM159 394l-6 12h78l6 -12h-78zM183 344l-6 12h78l6 -12h-78zM147 419l-6 11h78l6 -11h-78zM134 445l-5 10h78l5 -10h-78z
M122 470l-5 10h78l5 -10h-78zM123 0h-76l5 10h76zM110 495l-5 9h78l4 -9h-77zM97 521l-4 8h77l4 -8h-77zM85 546l-4 8h77l4 -8h-77zM73 571l-4 8h76l4 -8h-76zM60 596l-3 7h76l4 -7h-77zM47 624h76l1 -2h-76z" />
    <glyph glyph-name="question" unicode="?" horiz-adv-x="668" 
d="M558 579c3.33301 -4.66699 5.66699 -7.33301 7 -8h-498v8h491zM67.001 596.001v7h460c2 -1.33301 3.83301 -2.5 5.5 -3.5s3.16699 -2.16699 4.5 -3.5h-470zM111.001 52.001v6.99902h109c0.666992 -1.33301 1 -3.66602 1 -6.99902c0 -6 -0.333008 -10 -1 -12h-108
c-0.666992 2 -1 6 -1 12zM125.001 15c-5.33301 5.33301 -9.33301 12 -12 20h105c-2 -8 -6 -14.667 -12 -20h-81zM211.001 84c4 -6 6.66699 -12 8 -18h-107c0.666992 4.66699 3.66699 10.667 9 18h90zM273.001 278c-6.66699 -1.33301 -12.5 -3 -17.5 -5
s-9.5 -3.66699 -13.5 -5h-95c1.33301 2.66699 2.83301 5 4.5 7s3.16699 4.33301 4.5 7h117v-4zM165.001 293c2 2.66699 4.16699 5 6.5 7s4.83301 4.33301 7.5 7h94v-14h-108zM561.001 331c-4 -4.66699 -8.33301 -9 -13 -13h-94v13h107zM454.001 345
c10.667 2 21.334 5.66699 32.001 11h93c-0.666992 -2 -3.33398 -6 -8.00098 -12h-117v1zM225.001 257l-7.5 -7.5c-2.33301 -2.33301 -4.5 -4.83301 -6.5 -7.5h-77c1.33301 2.66699 2.5 5.16699 3.5 7.5s2.16699 4.83301 3.5 7.5h84zM202.001 226v-9h-73v9l2 6h74z
M535.001 307c-8 -6 -16 -10.667 -24 -14h-57v14h81zM504.001 369c4 2.66699 7.66699 6.66699 11 12h77l-6 -12h-82zM192.001 318c3.33301 2.66699 7 5 11 7s7.66699 4 11 6h59v-13h-81zM522.001 394c1.33301 2.66699 2.33203 5 2.99902 7s1.33398 3.66699 2.00098 5h73
l-3 -12h-75zM166 106c14 0 26.667 -5 38 -15h-77c10.667 10 23.667 15 39 15zM452 624c4 0 8 -0.166992 12 -0.5s8 -0.833008 12 -1.5h-409v2h385zM487 546c-3.33301 1.33301 -6.33398 2.66699 -9.00098 4l-8 4h107c1.33301 -2 2.33301 -3.66699 3 -5
s1.33398 -2.33301 2.00098 -3h-95zM530.999 419.001c0.666992 0.666992 1 2.33398 1 5.00098s0.333008 4.66699 1 6h72c-0.666992 -1.33301 -1 -3.33301 -1 -6s-0.333008 -4.33398 -1 -5.00098h-72zM532.999 470.001c-1.33301 5.33301 -2 8.66699 -2 10h73
c0 -2 0.166992 -3.83301 0.5 -5.5s0.5 -3.16699 0.5 -4.5h-72zM533.999 445.002v6v4h72v-4v-6h-72zM526.999 495.002l-3 9h75c1.33301 -5.33301 2 -8.33301 2 -9h-74zM128.999 199.002v9h73v-9h-73zM513.999 521.002l-6 8h82l2 -4l2 -4h-80zM165.999 -1.99805
c-14 0 -26 4 -36 12h71c-9.33301 -8 -21 -12 -35 -12zM474.999 282.002c-3.33301 -0.666992 -6.83301 -1.16699 -10.5 -1.5s-7.16699 -0.5 -10.5 -0.5v2h21z" />
    <glyph glyph-name="at" unicode="@" horiz-adv-x="806" 
d="M331 59c22 -6 44.665 -9 67.998 -9c22.667 0 44.667 3 66 9h148c-3.33301 -3.33301 -7.16602 -6.5 -11.499 -9.5l-13.5 -9.5h-383l-13.5 9.5c-4.33301 3 -8.16602 6.16699 -11.499 9.5h151zM580.998 35c-5.33301 -4 -10.833 -7.5 -16.5 -10.5l-17.5 -9.5h-300
c-6 3.33301 -12 6.5 -18 9.5s-11.667 6.5 -17 10.5h369zM535.998 10c-9.33301 -4.66699 -18.667 -8.5 -28 -11.5s-19 -5.83301 -29 -8.5h-165c-9.33301 2.66699 -18.833 5.66699 -28.5 9s-19.167 7 -28.5 11h279zM527.997 208
c-2.66699 -3.33301 -5.16699 -6.16602 -7.5 -8.49902l-7.5 -7.5h-229l-7.5 7.5c-2.33301 2.33301 -4.83301 5.16602 -7.5 8.49902h259zM490.997 268c2.66699 4 4.66699 8.66699 6 14h242v-14h-248zM499.997 293c1.33301 6.66699 2 11.333 2 14h237v-14h-239z
M502.997 182.999c-7.33301 -6 -15.334 -11.333 -24.001 -16h-159c-9.33301 4 -17.666 9.33301 -24.999 16h208zM457.996 570.999c-9.33301 2 -19.167 3.66699 -29.5 5s-20.5 2 -30.5 2c-10.667 0 -21 -0.666992 -31 -2s-19.667 -3 -29 -5h-155
c1.33301 1.33301 2.83301 2.66602 4.5 3.99902s3.5 2.66602 5.5 3.99902h413c1.33301 -1.33301 3 -2.66602 5 -3.99902s3.66699 -2.66602 5 -3.99902h-158zM267.995 418.999c1.33301 2 4.66797 5.66699 10.001 11h240c5.33301 -5.33301 8.66602 -9 9.99902 -11h-260z
M216.997 595.999l7 3.5c2 1 3.66699 2.16699 5 3.5h339c2 -1.33301 4.16699 -2.5 6.5 -3.5s4.5 -2.16699 6.5 -3.5h-364zM270.997 83.999c10.667 -6.66699 23.333 -12.667 38 -18h-137c-3.33301 3.33301 -6.5 6.33301 -9.5 9s-6.16699 5.66699 -9.5 9h118zM471.996 241.999
c3.33301 2.66699 7.66895 7.66699 13.002 15h254v-6h-186c-0.666992 -1.33301 -1.33398 -2.83301 -2.00098 -4.5s-1.33398 -3.16699 -2.00098 -4.5h-77zM487.999 65.999c14.667 5.33301 27.333 11.333 38 18h114l-9.5 -9.5c-3 -3 -6.16699 -5.83301 -9.5 -8.5h-133z
M293.998 444.999c2.66699 1.33301 5.16699 3 7.5 5s4.83301 3.66699 7.5 5h179c2.66699 -1.33301 5 -3 7 -5s4.33301 -3.66699 7 -5h-208zM233.998 108.999c8 -7.33301 16 -13.333 24 -18h-111l-15 18h102zM537.998 90.999l12.5 8.5c4.33301 3 8.5 6.16699 12.5 9.5h92l4 -3
c-2 -2.66699 -4 -5.16699 -6 -7.5s-4.33301 -4.83301 -7 -7.5h-108zM205.998 133.999c3.33301 -3.33301 6.5 -6.33301 9.5 -9s6.16699 -5.66699 9.5 -9h-98l-7 9c-2 2.66699 -4 5.66699 -6 9h92zM185.998 157.999c4 -6 8.66699 -11.668 14 -17.001h-90
c-4 4.66699 -7.33301 10.334 -10 17.001h86zM266.998 621.998l15.001 6h231c3.33301 -1.33301 6.16602 -2.33301 8.49902 -3s4.83301 -1.66699 7.5 -3h-262zM337.999 231.998c8.66699 -7.33301 18.667 -12.333 30 -15h-106l-5.5 7.5
c-1.66699 2.33301 -3.16699 4.83301 -4.5 7.5h86zM430.999 216.998c10 2.66699 19.667 7.66699 29 15h84c-1.33301 -2.66699 -2.83301 -5.16699 -4.5 -7.5l-5.5 -7.5h-103zM168.999 182.998c1.33301 -3.33301 3.00098 -6.16699 5.00098 -8.5s3.66699 -4.83301 5 -7.5h-83
c-2.66699 4.66699 -5.33398 10 -8.00098 16h81zM156 207.997c2.66699 -6 5.33301 -11.332 8 -15.999h-79c-1.33301 2.66699 -2.33301 5.16699 -3 7.5s-1.66699 5.16602 -3 8.49902h77zM313.999 256.998c5.33301 -7.33301 9.66699 -12.333 13 -15h-80
c-1.33301 2.66699 -2.5 5.16699 -3.5 7.5s-2.16699 4.83301 -3.5 7.5h74zM146 231.998l6.00195 -15h-76c-0.666992 2.66699 -1.33398 5.16699 -2.00098 7.5s-1.33398 4.83301 -2.00098 7.5h74zM139.002 256.998c0.666992 -3.33301 1.33203 -6.33301 1.99902 -9
s1.33398 -4.66699 2.00098 -6h-74c-0.666992 2 -1 4.33301 -1 7c0 3.33301 -0.333008 6 -1 8h72zM251 393.998l3.5 6.99902c1 2 2.16699 3.66699 3.5 5h98c-3.33301 -1.33301 -6.83301 -3.16602 -10.5 -5.49902l-10.5 -6.5h-84zM538 405.997c1.33301 -2 2.5 -4 3.5 -6
s2.16699 -4 3.5 -6h-84l-10 6l-10 6h97zM503 317.997v1h168c0 6 -0.333008 10 -1 12h68c0 -2.66699 0.166992 -5 0.5 -7s0.5 -4 0.5 -6h-236zM134 281.997c0.666992 -2 1 -4.66504 1 -7.99805c0 -2.66699 0.333008 -4.66699 1 -6h-71
c0 1.33301 -0.166992 3.16602 -0.5 5.49902s-0.833008 5.16602 -1.5 8.49902h71zM525 545.999c-3.33301 1.33301 -6.16797 2.66797 -8.50098 4.00098s-5.16602 2.66602 -8.49902 3.99902h128l8 -8h-119zM131.998 307.001c0 -7.33301 0.333008 -12 1 -14h-70
c-0.666992 2 -1 6.66699 -1 14h70zM300.998 282.001c2.66699 -6.66699 5 -11.333 7 -14h-72c-1.33301 3.33301 -2.33301 8 -3 14h68zM287.998 554.002c-2.66699 -1.33301 -5.16699 -2.66797 -7.5 -4.00098s-4.83301 -2.66602 -7.5 -3.99902h-117l8 8h124zM570.998 116
c3.33301 3.33301 6.5 6.33301 9.5 9s6.16699 5.66699 9.5 9h31l24 -18h-74zM295.998 307c0.666992 -2 1 -4.66699 1 -8c0 -2.66699 0.333008 -4.66699 1 -6h-67c0 2 -0.166992 4.16699 -0.5 6.5s-0.5 4.83301 -0.5 7.5h66zM131.998 331v-13h-70v13h70zM238.998 369
c1.33301 2.66699 2.33203 5 2.99902 7s1.33398 3.66699 2.00098 5h77l-9 -12h-73zM459.997 158c-20.667 -7.33301 -41 -11 -61 -11c-19.333 0 -39 3.66699 -59 11h120zM148.997 406c-0.666992 -1.33301 -1.33203 -3 -1.99902 -5s-1.33398 -4.33301 -2.00098 -7h-74l2 6l2 6
h74zM656.999 394l-2 6l-2 6h74l3 -12h-73zM615.999 470c-4.66699 4.66699 -7.66699 8 -9 10h88c1.33301 -1.33301 2.33301 -3 3 -5s1.66699 -3.66699 3 -5h-85zM140.999 381l-3 -12h-72c0.666992 1.33301 1 3.33301 1 6s0.333008 4.66699 1 6h73zM229.999 318
c0 6.66699 0.333008 10.999 1 12.999h66c-0.666992 -1.33301 -1 -3.66602 -1 -6.99902v-6h-66zM338.999 469.999c10 4.66699 23 8 39 10h41c16 -2 29 -5.33301 39 -10h-119zM191.999 479.999c-1.33301 -1.33301 -2.5 -3 -3.5 -5s-2.16699 -3.66699 -3.5 -5h-85
c3.33301 4 5.33301 7.33301 6 10h86zM664.999 368.999l-2 6l-2 6h71l3 -12h-70zM134.999 355.999c0 -2 -0.166992 -4 -0.5 -6s-0.5 -4 -0.5 -6h-71c0.666992 2 1 6 1 12h71zM646.999 418.999c-1.33301 2 -2.16895 3.83301 -2.50195 5.5s-1.16602 3.5 -2.49902 5.5h77l2 -6
c0.666992 -2 1.33398 -3.66699 2.00098 -5h-76zM593.996 494.999l-9 9h94c1.33301 -1.33301 2.5 -2.83301 3.5 -4.5s2.16699 -3.16699 3.5 -4.5h-92zM158.996 429.999c-1.33301 -2 -2.16797 -4 -2.50098 -6s-1.16602 -3.66699 -2.49902 -5h-75
c0.666992 2 1.66699 5.66699 3 11h77zM563.994 520.999c-1.33301 1.33301 -3 2.66699 -5 4l-6 4h107c0.666992 -1.33301 3 -4 7 -8h-103zM214.994 504l-9 -9h-91l6 9h94zM668.994 344c-0.666992 1.33301 -1 3.33301 -1 6s-0.333008 4.66699 -1 6h70c0 -6 0.333008 -10 1 -12
h-69zM304.994 356c-1.33301 -2 -2.16797 -4 -2.50098 -6s-1.16602 -4 -2.49902 -6h-68l3 12h70zM133.992 521l6 7.99902h105c-1.33301 -1.33301 -3 -2.66602 -5 -3.99902l-6 -4h-100zM632.992 444.999c-1.33301 1.33301 -2.49805 2.83301 -3.49805 4.5
s-2.16699 3.5 -3.5 5.5h82c1.33301 -2 2.16602 -3.83301 2.49902 -5.5s1.16602 -3.16699 2.49902 -4.5h-80zM87.9941 444.999c2 2.66699 3.66699 6 5 10h81c-0.666992 -2.66699 -2.66699 -6 -6 -10h-80zM454.994 -15.001c-9.33301 -1.33301 -18.833 -2.5 -28.5 -3.5
s-19.167 -1.5 -28.5 -1.5c-10 0 -19.833 0.5 -29.5 1.5s-19.167 2.16699 -28.5 3.5h115zM595.994 140.999c3.33301 3.33301 5.33301 5.66699 6 7l9 -7h-15zM369.994 647c4.66699 0 9.16797 0.166992 13.501 0.5s9.16602 0.5 14.499 0.5
c4.66699 0 9.16699 -0.166992 13.5 -0.5s8.83301 -0.5 13.5 -0.5h-55z" />
    <glyph glyph-name="A" unicode="A" horiz-adv-x="741" 
d="M49 15l10 20h406l13 -20h-429zM62 40l9 19h377l13 -19h-399zM482 10l7 -10h-447l5 10h435zM613 15l-9 20h77l10 -20h-78zM601 40l-9 19h76l10 -19h-77zM75 66l9 18h78l-9 -18h-78zM87 91l9 18h79l-9 -18h-79zM100 116l9 18h78l-9 -18h-78zM589 66l-9 18h75l10 -18h-76z
M564 116l-9 18h75l9 -18h-75zM577 91l-9 18h75l9 -18h-75zM112 141l9 17h78l-8 -17h-79zM552 141l-9 17h75l9 -17h-75zM125 167l8 16h79l-8 -16h-79zM138 192l8 16h78l-8 -16h-78zM526 192l-8 16h75l8 -16h-75zM539 167l-8 16h75l8 -16h-75zM150 217l8 15h78l-8 -15h-78z
M163 242l7 15h78l-7 -15h-78zM501 242l-7 15h75l7 -15h-75zM514 217l-8 15h75l8 -15h-75zM176 268l7 14h77l-7 -14h-77zM188 293l7 14h77l-6 -14h-78zM488 268l-7 14h75l7 -14h-75zM476 293l-7 14h75l7 -14h-75zM302 521l4 8h127l4 -8h-135zM201 318l6 13h77l-6 -13h-77z
M463 318l-6 13h75l6 -13h-75zM214 344l6 12h76l-6 -12h-76zM226 369l6 12h76l-6 -12h-76zM239 394l6 12h75l-6 -12h-75zM438 369l-6 12h75l6 -12h-75zM450 344l-6 12h75l6 -12h-75zM425 394l-6 12h75l6 -12h-75zM315 546l4 8h101l4 -8h-109zM251 419l6 11h75l-6 -11h-75z
M413 419l-6 11h75l6 -11h-75zM699 0h-78l-5 10h78zM400 445l-5 10h75l5 -10h-75zM387 470l-5 10h75l5 -10h-75zM264 445l5 10h75l-5 -10h-75zM277 470l5 10h74l-5 -10h-74zM375 495l-5 9h75l5 -9h-75zM289 495l5 9h73l-4 -9h-74zM327 571l4 8h77l4 -8h-85zM339 596l4 7h53
l3 -7h-60zM352 622l3 6h28l3 -6h-34zM364 647l3 6h4l3 -6h-10z" />
    <glyph glyph-name="B" unicode="B" horiz-adv-x="681" 
d="M578 59c-3.33301 -3.33301 -6.33301 -6.5 -9 -9.5s-5.66699 -6.16699 -9 -9.5h-490v19h508zM555 35c-5.33301 -4.66699 -10.333 -8.5 -15 -11.5s-9.66699 -5.83301 -15 -8.5h-455v20h485zM70 0l-0.000976562 10h444c-13.333 -6.66699 -29.666 -10 -48.999 -10h-395z
M564.999 579l8 -8h-503v8h495zM535.999 603c1.33301 -1.33301 2.83301 -2.5 4.5 -3.5s3.5 -2.16699 5.5 -3.5h-476v7h466zM560.999 307c2 -2.66699 4 -5 6 -7s4 -4.33301 6 -7h-211v14h199zM576.999 331c-2 -2.66699 -4 -5 -6 -7s-3.66699 -4 -5 -6h-204v13h215zM593.999 84
c-2 -3.33301 -4 -6.33301 -6 -9s-4 -5.66699 -6 -9h-107c12 3.33301 22.333 9.33301 31 18h88zM604.999 109c-1.33301 -3.33301 -2.66699 -6.33301 -4 -9s-2.66602 -5.66699 -3.99902 -9h-84l6.5 8.5c2.33301 3 4.16602 6.16699 5.49902 9.5h80zM580.998 282l5.5 -7.5
l4.5 -6.5h-89c-2.66699 2 -5.16699 4.16699 -7.5 6.5s-4.83301 4.5 -7.5 6.5h-125v1h219zM612.998 134c-1.33301 -3.33301 -2.16602 -6.33301 -2.49902 -9s-1.16602 -5.66699 -2.49902 -9h-79c1.33301 3.33301 2.66602 6.33301 3.99902 9s2.66602 5.66699 3.99902 9h76z
M616.998 158c0 -3.33301 -0.333984 -6.33301 -1.00098 -9l-2 -8h-75l2 8c0.666992 2.66699 1.33398 5.66699 2.00098 9h74zM69.9971 66v18h70v-18h-70zM69.9971 91v18h70v-18h-70zM69.9971 116v18h70v-18h-70zM597.997 257c1.33301 -2.66699 2.66797 -5.16699 4.00098 -7.5
s2.66602 -4.83301 3.99902 -7.5h-82l-12 15h86zM616.999 208c0.666992 -2 1.00098 -4.99902 1.00098 -8.99902c0 -2.66699 0.333008 -5 1 -7h-75c0 2.66699 -0.333008 5.16699 -1 7.5s-1.33398 5.16602 -2.00098 8.49902h76zM70 141.001v17h70v-17h-70zM619 183.001
c0 -8.66699 -0.333008 -14.002 -1 -16.002h-74c0 2.66699 0.166992 5.33398 0.5 8.00098s0.5 5.33398 0.5 8.00098h74zM610 231.999c0.666992 -1.33301 1.33008 -3.33301 1.99707 -6s1.33398 -5.66699 2.00098 -9h-76c-1.33301 2.66699 -2.66602 5.16699 -3.99902 7.5
s-2.66602 4.83301 -3.99902 7.5h80zM487.996 343.999c2.66699 1.33301 5.00098 3 7.00098 5l7 7h92c-0.666992 -2 -3.33398 -6 -8.00098 -12h-98zM69.9971 191.999v16h70v-16h-70zM69.9971 166.999v16h70v-16h-70zM69.9971 216.999v15h70v-15h-70zM69.9971 241.999v15h70
v-15h-70zM606.997 380.999l-6 -12h-87l9 12h84zM69.9971 292.999v14h70v-14h-70zM69.9971 267.999v14h70v-14h-70zM614.997 405.999l-3 -12h-81l6 12h78zM69.9971 317.999v13h70v-13h-70zM69.9971 343.999v12h70v-12h-70zM69.9971 393.999v12h70v-12h-70zM69.9971 368.999
v12h70v-12h-70zM541.997 418.999c0.666992 0.666992 1 2.33301 1 5s0.333008 4.66699 1 6h75c0 -2 -0.666992 -5.66699 -2 -11h-75zM464.997 623.998c3.33301 0 6.83301 -0.166992 10.5 -0.5s7.16699 -0.833008 10.5 -1.5h-416v2h395zM584.997 553.998
c2 -2.66699 3.66699 -5.33105 5 -7.99805h-93c-2.66699 1.33301 -5 2.66602 -7 3.99902s-4.33301 2.66602 -7 3.99902h102zM69.9971 419.001v11h70v-11h-70zM614.997 480.001c0.666992 -1.33301 1 -3.33301 1 -6c0 -2 0.333008 -3.33301 1 -4h-75
c-0.666992 2.66699 -1.66699 6 -3 10h76zM617.997 455.001c0 -2 0.166992 -3.83301 0.5 -5.5s0.5 -3.16699 0.5 -4.5h-74c0 4.66699 -0.333008 8 -1 10h74zM533.997 495.001c-0.666992 1.33301 -1.33203 2.83301 -1.99902 4.5s-1.33398 3.16699 -2.00098 4.5h79l3 -9h-78z
M69.999 445.001v10h70v-10h-70zM69.999 470.001v10h70v-10h-70zM598.999 529.001l2 -3.99805l2 -4h-82c-1.33301 1.33301 -2.5 2.66602 -3.5 3.99902s-2.16699 2.66602 -3.5 3.99902h85zM69.999 495.003v9h70v-9h-70zM69.999 521.003v8h70v-8h-70zM69.999 546.003v8h70v-8
h-70z" />
    <glyph glyph-name="C" unicode="C" horiz-adv-x="724" 
d="M214 40l-14.998 9.5c-4.66699 3 -9.33398 6.16699 -14.001 9.5h379c-4.66699 -3.33301 -9.33398 -6.5 -14.001 -9.5l-15 -9.5h-321zM268.002 15l-22.5 8.5c-7.66699 3 -15.167 6.83301 -22.5 11.5h304c-8.66699 -4.66699 -16.667 -8.5 -24 -11.5l-21 -8.5h-214z
M541.002 579c6 -4.66699 10 -7.33301 12 -8h-360l6 4l6 4h336zM176.002 66.001c-3.33301 3.33301 -6.83203 6.33301 -10.499 9s-7.16699 5.66699 -10.5 9h122c21.333 -9.33301 43.666 -15.333 66.999 -18h-168zM594.003 84.001
c-7.33301 -7.33301 -14.332 -13.333 -20.999 -18h-168c23.333 2.66699 45.666 8.66699 66.999 18h122zM148.004 91.001c-3.33301 2.66699 -6.16699 5.5 -8.5 8.5l-7.5 9.5h101c8.66699 -7.33301 18.667 -13.333 30 -18h-115zM617.003 109.001
c-2.66699 -3.33301 -5.33203 -6.33301 -7.99902 -9s-5.33398 -5.66699 -8.00098 -9h-113c10.667 4.66699 20.667 10.667 30 18h99zM494.005 603.001c2.66699 -1.33301 5.16699 -2.5 7.5 -3.5l8.5 -3.5h-273c2.66699 1.33301 5.16699 2.5 7.5 3.5s4.83301 2.16699 7.5 3.5
h242zM126.005 116.001c-4 4 -8.33203 10 -12.999 18h89c3.33301 -3.33301 6.66602 -6.5 9.99902 -9.5s7 -5.83301 11 -8.5h-97zM636.006 134.001c-2 -3.33301 -4.16699 -6.33301 -6.5 -9s-4.5 -5.66699 -6.5 -9h-95c6.66699 4.66699 13.667 10.667 21 18h87z
M374.006 -2.99902c-34 0 -63.999 4.33301 -89.999 13h182c-26.667 -8.66699 -57.334 -13 -92.001 -13zM108.007 141.001c-3.33301 4 -7 9.66699 -11 17h83c2 -3.33301 4.33301 -6.33301 7 -9l8 -8h-87zM92.0068 167.001c-1.33301 2.66699 -2.5 5.16602 -3.5 7.49902
l-3.5 8.5h77c1.33301 -3.33301 3 -6.16602 5 -8.49902s4 -4.83301 6 -7.5h-81zM643.007 144c-1.33301 -1.33301 -1.99902 -2.33398 -1.99902 -3.00098h-85c3.33301 2.66699 6.16602 5.33398 8.49902 8.00098l7.5 9h57zM81.0078 191.999
c-1.33301 2.66699 -2.50098 5.16699 -3.50098 7.5l-3.5 8.5h74c2.66699 -6 5.33398 -11.333 8.00098 -16h-75zM322.007 553.999c-5.33301 -1.33301 -10.167 -2.66797 -14.5 -4.00098l-13.5 -4h-132c1.33301 0.666992 4.33301 3.33398 9 8.00098h151zM455.006 545.997
c-5.33301 1.33301 -10.333 2.66895 -15 4.00195s-9 2.66602 -13 3.99902h148c4.66699 -4.66699 7.66699 -7.33398 9 -8.00098h-129zM72.0059 217c-1.33301 2.66699 -2.16797 5.16699 -2.50098 7.5s-1.16602 4.83301 -2.49902 7.5h71l6 -15h-72zM130.004 257
c0.666992 -2.66699 1.33203 -5.16699 1.99902 -7.5s1.33398 -4.83301 2.00098 -7.5h-69l-3 15h68zM60.002 268c-0.666992 1.33301 -1 3.33398 -1 6.00098c0 3.33301 -0.333008 6 -1 8h68c0 -2.66699 0.666992 -7.33398 2 -14.001h-68zM57.002 293.001v14h67
c0 -7.33301 0.333008 -12 1 -14h-68zM125.002 331.001c-0.666992 -2 -1 -6.33301 -1 -13h-67v13h68zM256.002 529.001c-2 -1.33301 -4.16699 -2.66797 -6.5 -4.00098s-4.5 -2.66602 -6.5 -3.99902h-106c4 4 6.33301 6.66699 7 8h112zM144.002 405.999
c-1.33301 -2 -2.16797 -4 -2.50098 -6s-1.16602 -4 -2.49902 -6h-71l3 12h73zM193 479.999c-1.33301 -2 -4.33301 -5.33301 -9 -10h-84c3.33301 4 5.33301 7.33301 6 10h87zM116 494.999c4 5.33301 6.33301 8.33301 7 9h96c-1.33301 -1.33301 -3 -2.83301 -5 -4.5
s-3.66699 -3.16699 -5 -4.5h-93zM506 520.999c-2.66699 1.33301 -5 2.66797 -7 4.00098s-4.33301 2.66602 -7 3.99902h110c0.666992 -1.33301 3 -4 7 -8h-103zM641 480.001c0.666992 -2.66699 2.66699 -6 6 -10h-83c-1.33301 1.33301 -2.83301 3 -4.5 5
s-3.16699 3.66699 -4.5 5h86zM135 381.001l-2 -6l-2 -6h-69c0 1.33301 0.666992 5.33301 2 12h71zM75 419.001c1.33301 1.33301 2.16797 3.00098 2.50098 5.00098s1.16602 4 2.49902 6h76c-1.33301 -2.66699 -2.5 -4.83398 -3.5 -6.50098s-1.83301 -3.16699 -2.5 -4.5h-75z
M540.002 495.002c-1.33301 1.33301 -3 2.83301 -5 4.5s-3.66699 3.16699 -5 4.5h94l6 -9h-90zM58.002 344.002c0.666992 1.33301 1 3.33301 1 6s0.333008 4.66699 1 6h68c-0.666992 -1.33301 -1 -3.33301 -1 -6s-0.333008 -4.66699 -1 -6h-68zM172.002 455.002
c-2 -4 -4.33496 -7.33301 -7.00195 -10h-78c0.666992 1.33301 1.33398 2.83301 2.00098 4.5s1.33398 3.5 2.00098 5.5h81zM584 445.002c-1.33301 1.33301 -2.5 2.83301 -3.5 4.5s-2.16699 3.5 -3.5 5.5h78c2 -2.66699 3.66699 -6 5 -10h-76zM578 167.002
c2 2.66699 4 5.16797 6 7.50098s3.66699 5.16602 5 8.49902h16l15 -16h-42zM599 419.003c-0.666992 1.33301 -1.5 2.83203 -2.5 4.49902s-2.16699 3.83398 -3.5 6.50098h50l-17 -11h-27zM374 627.002c9.33301 0 18.6689 -0.5 28.002 -1.5s18.666 -2.16699 27.999 -3.5h-113
c9.33301 1.33301 18.666 2.5 27.999 3.5s19 1.5 29 1.5zM594.003 192.002c0.666992 0 1 0.333008 1 1l1 -1h-2z" />
    <glyph glyph-name="D" unicode="D" horiz-adv-x="704" 
d="M511 59l-15 -9.5l-15 -9.5h-411v19h441zM471 35c-8 -4.66699 -16 -8.5 -24 -11.5l-23 -8.5h-354v20h401zM494 579l6 -4l6 -4h-436v8h424zM70 0v10h337c-22.667 -6.66699 -47.667 -10 -75 -10h-262zM445 603c2.66699 -1.33301 5.33203 -2.5 7.99902 -3.5
s5.33398 -2.16699 8.00098 -3.5h-391v7h375zM357.998 66c22 3.33301 43.333 9.33301 64 18h120c-7.33301 -7.33301 -14.333 -13.333 -21 -18h-163zM436.998 91c10 4.66699 20.001 10.667 30.001 18h100c-2.66699 -3.33301 -5.33398 -6.33301 -8.00098 -9l-9 -9h-113z
M476.999 116l11 8.5c4 3 7.66699 6.16699 11 9.5h89l-15 -18h-96zM505.999 141l7.99902 8c2.66699 2.66699 5.33398 5.66699 8.00098 9h82l-11 -17h-87zM69.998 66v18h70v-18h-70zM69.998 91v18h70v-18h-70zM69.998 116v18h70v-18h-70zM528.998 167
c2 2.66699 4.00098 5.16797 6.00098 7.50098s4 5.16602 6 8.49902h76c-2.66699 -6 -5.33398 -11.333 -8.00098 -16h-80zM69.999 141.001v17h70v-17h-70zM545.999 192.001c1.33301 2.66699 2.83301 5.16699 4.5 7.5s3.16699 5.16602 4.5 8.49902h73
c-2 -7.33301 -4.33301 -12.666 -7 -15.999h-75zM406.999 546.001l-14 4.00195c-4.66699 1.33301 -9.66699 2.66602 -15 3.99902h152c4.66699 -4.66699 7.66699 -7.33398 9 -8.00098h-132zM69.999 192.003v16h70v-16h-70zM69.999 167.003v16h70v-16h-70zM635.999 232.003
c-1.33301 -2.66699 -2.16797 -5.16699 -2.50098 -7.5s-1.16602 -4.83301 -2.49902 -7.5h-71l6 15h70zM69.9971 242.003v15h70v-15h-70zM69.9971 217.003v15h70v-15h-70zM569.997 242.003c0.666992 2.66699 1.33398 5.16699 2.00098 7.5s1.33398 4.83301 2.00098 7.5h68
c-0.666992 -2.66699 -1.33398 -5.16699 -2.00098 -7.5s-1.33398 -4.83301 -2.00098 -7.5h-68zM69.9971 293.003v14h70v-14h-70zM69.9971 268.003v14h70v-14h-70zM576.997 268.003c1.33301 6.66699 2 11.333 2 14h66c0 -2.66699 -0.166992 -5.16699 -0.5 -7.5
s-0.5 -4.5 -0.5 -6.5h-67zM579.997 293.002c0.666992 2 1 6.66699 1 14h66c0 -7.33301 -0.333008 -12 -1 -14h-66zM69.9971 318.002v13h70v-13h-70zM556.997 529.002l8 -7.99805h-105c-2 1.33301 -4.16699 2.66602 -6.5 3.99902s-4.83301 2.66602 -7.5 3.99902h111z
M580.997 318.004c0 2 -0.166992 4 -0.5 6s-0.5 4.33301 -0.5 7h66v-13h-65zM564.997 394.004c-1.33301 2 -2.16797 4 -2.50098 6s-1.16602 4 -2.49902 6h72l3 -12h-70zM518.995 470.004c-1.33301 1.33301 -2.83301 3 -4.5 5s-3.16699 3.66699 -4.5 5h86
c1.33301 -2 2.5 -3.83301 3.5 -5.5s2.16699 -3.16699 3.5 -4.5h-84zM69.9951 344.004v12h70v-12h-70zM69.9951 394.004v12h70v-12h-70zM69.9951 369.004v12h70v-12h-70zM494.995 495.004c-2 1.33301 -3.83301 2.83203 -5.5 4.49902s-3.5 3.16699 -5.5 4.5h95
c1.33301 -1.33301 2.5 -2.66602 3.5 -3.99902s2.16699 -3 3.5 -5h-91zM572.995 369.003c-0.666992 2.66699 -1.33203 5 -1.99902 7s-1.33398 3.66699 -2.00098 5h70c0.666992 -1.33301 1 -3.33301 1 -6s0.333008 -4.66699 1 -6h-68zM552.997 419.003
c-0.666992 1.33301 -1.50098 2.83203 -2.50098 4.49902s-2.16699 3.83398 -3.5 6.50098h76l2 -6c0.666992 -2 1.33398 -3.66699 2.00098 -5h-74zM642.996 356.002c0.666992 -1.33301 1 -3.33301 1 -6s0.333008 -4.66699 1 -6h-67c-0.666992 1.33301 -1 3.33301 -1 6
s-0.333008 4.66699 -1 6h67zM537.996 445.002c-2 2.66699 -4.33105 6 -6.99805 10h80c1.33301 -1.33301 2.16602 -3 2.49902 -5s1.16602 -3.66699 2.49902 -5h-78zM69.998 419.002v11h70v-11h-70zM69.998 445.002v10h70v-10h-70zM69.998 470.002v10h70v-10h-70z
M69.998 495.002v9h70v-9h-70zM329.998 624.002c5.33301 0 11 -0.166992 17 -0.5s11.667 -0.833008 17 -1.5h-294v2h260zM69.998 546.002v8h70v-8h-70zM69.998 521.002v8h70v-8h-70z" />
    <glyph glyph-name="E" unicode="E" horiz-adv-x="615" 
d="M70 15v20h475v-20h-475zM70 40v19h475v-19h-475zM70 0v10h475v-10h-475zM238 268v14h299v-14h-299zM238 293v14h299v-14h-299zM70 571v8h475v-8h-475zM70 596v7h475v-7h-475zM537 326v-8h-299v8h299zM70 66v18h70v-18h-70zM70 91v18h70v-18h-70zM70 116v18h70v-18h-70z
M70 141v17h70v-17h-70zM70 192v16h70v-16h-70zM70 167v16h70v-16h-70zM70 217v15h70v-15h-70zM70 242v15h70v-15h-70zM70 293v14h70v-14h-70zM70 268v14h70v-14h-70zM70 622v2h475v-2h-475zM70 318v13h70v-13h-70zM70 344v12h70v-12h-70zM70 394v12h70v-12h-70zM70 369v12
h70v-12h-70zM70 419v11h70v-11h-70zM70 470v10h70v-10h-70zM70 445v10h70v-10h-70zM70 495v9h70v-9h-70zM70 521v8h70v-8h-70zM70 546v8h70v-8h-70z" />
    <glyph glyph-name="F" unicode="F" horiz-adv-x="615" 
d="M236 268v14h301v-14h-301zM236 293v14h301v-14h-301zM70 571v8h475v-8h-475zM70 596v7h475v-7h-475zM537 326v-8h-301v8h301zM70 15v20h70v-20h-70zM70 40v19h70v-19h-70zM70 66v18h70v-18h-70zM70 91v18h70v-18h-70zM70 116v18h70v-18h-70zM70 141v17h70v-17h-70z
M70 167v16h70v-16h-70zM70 192v16h70v-16h-70zM70 217v15h70v-15h-70zM70 242v15h70v-15h-70zM70 293v14h70v-14h-70zM70 268v14h70v-14h-70zM70 622v2h475v-2h-475zM70 318v13h70v-13h-70zM70 344v12h70v-12h-70zM70 394v12h70v-12h-70zM70 369v12h70v-12h-70zM70 419v11
h70v-11h-70zM70 0v10h70v-10h-70zM70 470v10h70v-10h-70zM70 445v10h70v-10h-70zM70 495v9h70v-9h-70zM70 546v8h70v-8h-70zM70 521v8h70v-8h-70z" />
    <glyph glyph-name="G" unicode="G" horiz-adv-x="724" 
d="M564 59c-4.66699 -3.33301 -9.33203 -6.5 -13.999 -9.5l-15 -9.5h-321l-15 9.5c-4.66699 3 -9.33398 6.16699 -14.001 9.5h379zM527.002 35c-8.66699 -4.66699 -16.667 -8.5 -24 -11.5l-21 -8.5h-214l-22.5 8.5c-7.66699 3 -15.167 6.83301 -22.5 11.5h304zM341.002 268
v14h299v-14h-299zM341.002 293v14h299v-14h-299zM193.002 571l6 4.00098l6 4h336c6 -4.66699 10 -7.33398 12 -8.00098h-360zM277.002 84.001c21.333 -9.33301 43.667 -15.333 67 -18h-168c-3.33301 3.33301 -6.83301 6.33301 -10.5 9s-7.16699 5.66699 -10.5 9h122z
M405.003 66.001c23.333 2.66699 45.667 8.66699 67 18h122c-7.33301 -7.33301 -14.333 -13.333 -21 -18h-168zM640.004 326.001v-8h-299v8h299zM233.004 109.001c8.66699 -7.33301 18.666 -13.333 29.999 -18h-115c-3.33301 2.66699 -6.16602 5.5 -8.49902 8.5l-7.5 9.5h101
zM488.003 91.001c10.667 4.66699 20.6689 10.667 30.002 18h99c-2.66699 -3.33301 -5.33398 -6.33301 -8.00098 -9s-5.33398 -5.66699 -8.00098 -9h-113zM237.005 596.001c2.66699 1.33301 5.16699 2.5 7.5 3.5s4.83301 2.16699 7.5 3.5h242
c2.66699 -1.33301 5.16699 -2.5 7.5 -3.5l8.5 -3.5h-273zM202.005 134.001c3.33301 -3.33301 6.66699 -6.5 10 -9.5s7 -5.83301 11 -8.5h-97c-4 4 -8.33301 10 -13 18h89zM528.006 116.001c6.66699 4.66699 13.667 10.667 21 18h87c-2 -3.33301 -4.16699 -6.33301 -6.5 -9
s-4.5 -5.66699 -6.5 -9h-95zM466.006 10.001c-26.667 -8.66699 -57.333 -13 -92 -13c-34 0 -64 4.33301 -90 13h182zM180.007 158.001c2 -3.33301 4.33301 -6.33301 7 -9l8 -8h-87c-3.33301 4 -7 9.66699 -11 17h83zM162.007 183.001c1.33301 -3.33301 3 -6.16699 5 -8.5
s4 -4.83301 6 -7.5h-81c-1.33301 2.66699 -2.5 5.16699 -3.5 7.5l-3.5 8.5h77zM556.007 141c3.33301 2.66699 6.16699 5.33301 8.5 8l7.5 9h57l14 -14c-1.33301 -1.33301 -2 -2.33301 -2 -3h-85zM81.0078 191.999c-1.33301 2.66699 -2.50098 5.16699 -3.50098 7.5l-3.5 8.5
h74c2.66699 -6 5.33398 -11.333 8.00098 -16h-75zM162.007 545.999c1.33301 0.666992 4.33203 3.33203 8.99902 7.99902h151c-5.33301 -1.33301 -10.166 -2.66602 -14.499 -3.99902l-13.5 -4h-132zM455.006 545.997c-5.33301 1.33301 -10.333 2.66895 -15 4.00195
s-9 2.66602 -13 3.99902h148c4.66699 -4.66699 7.66699 -7.33398 9 -8.00098h-129zM72.0059 217c-1.33301 2.66699 -2.16797 5.16699 -2.50098 7.5s-1.16602 4.83301 -2.49902 7.5h71l6 -15h-72zM130.004 257c0.666992 -2.66699 1.33203 -5.16699 1.99902 -7.5
s1.33398 -4.83301 2.00098 -7.5h-69l-3 15h68zM126.002 282c0 -2.66699 0.666992 -7.33301 2 -14h-68c-0.666992 1.33301 -1 3.33301 -1 6c0 3.33301 -0.333008 6 -1 8h68zM57.002 293.001v14h67c0 -7.33301 0.333008 -12 1 -14h-68zM57.002 318.001v13h68
c-0.666992 -2 -1 -6.33301 -1 -13h-67zM137.002 521.001c4 4 6.33301 6.66504 7 7.99805h112c-2 -1.33301 -4.16699 -2.66602 -6.5 -3.99902s-4.5 -2.66602 -6.5 -3.99902h-106zM68.002 393.999l2.99805 12h73c-1.33301 -2 -2.16602 -4 -2.49902 -6s-1.16602 -4 -2.49902 -6
h-71zM100 469.999c3.33301 4 5.33301 7.33301 6 10h87c-1.33301 -2 -4.33301 -5.33301 -9 -10h-84zM116 494.999c4 5.33301 6.33301 8.33301 7 9h96c-1.33301 -1.33301 -3 -2.83301 -5 -4.5s-3.66699 -3.16699 -5 -4.5h-93zM506 520.999
c-2.66699 1.33301 -5 2.66797 -7 4.00098s-4.33301 2.66602 -7 3.99902h110c0.666992 -1.33301 3 -4 7 -8h-103zM641 480.001c0.666992 -2.66699 2.66699 -6 6 -10h-83c-1.33301 1.33301 -2.83301 3 -4.5 5s-3.16699 3.66699 -4.5 5h86zM135 381.001l-2 -6l-2 -6h-69
c0 1.33301 0.666992 5.33301 2 12h71zM75 419.001c1.33301 1.33301 2.16797 3.00098 2.50098 5.00098s1.16602 4 2.49902 6h76c-1.33301 -2.66699 -2.5 -4.83398 -3.5 -6.50098s-1.83301 -3.16699 -2.5 -4.5h-75zM624.002 504.002l6 -9h-90
c-1.33301 1.33301 -3 2.83301 -5 4.5s-3.66699 3.16699 -5 4.5h94zM58.002 344.002c0.666992 1.33301 1 3.33301 1 6s0.333008 4.66699 1 6h68c-0.666992 -1.33301 -1 -3.33301 -1 -6s-0.333008 -4.66699 -1 -6h-68zM87.002 445.002
c0.666992 1.33301 1.33203 2.83301 1.99902 4.5s1.33398 3.5 2.00098 5.5h81c-2 -4 -4.33301 -7.33301 -7 -10h-78zM584 445.002c-1.33301 1.33301 -2.5 2.83301 -3.5 4.5s-2.16699 3.5 -3.5 5.5h78c2 -2.66699 3.66699 -6 5 -10h-76zM578 167.002
c2 2.66699 4 5.16797 6 7.50098s3.66699 5.16602 5 8.49902h16l15 -16h-42zM599 419.003c-0.666992 1.33301 -1.5 2.83203 -2.5 4.49902s-2.16699 3.83398 -3.5 6.50098h50l-17 -11h-27zM317 622.002c9.33301 1.33301 18.6689 2.5 28.002 3.5s19 1.5 29 1.5
c9.33301 0 18.666 -0.5 27.999 -1.5s18.666 -2.16699 27.999 -3.5h-113zM594.003 192.002c0.666992 0 1 0.333008 1 1l1 -1h-2z" />
    <glyph glyph-name="H" unicode="H" horiz-adv-x="717" 
d="M70 268v14h415v-14h-415zM70 293v14h415v-14h-415zM140 326h345v-8h-415v13h70v-5zM70 15v20h70v-20h-70zM577 15v20h70v-20h-70zM70 40v19h70v-19h-70zM577 40v19h70v-19h-70zM577 116v18h70v-18h-70zM70 66v18h70v-18h-70zM70 91v18h70v-18h-70zM70 116v18h70v-18h-70z
M577 66v18h70v-18h-70zM577 91v18h70v-18h-70zM577 141v17h70v-17h-70zM70 141v17h70v-17h-70zM577 167v16h70v-16h-70zM577 192v16h70v-16h-70zM70 167v16h70v-16h-70zM70 192v16h70v-16h-70zM577 242v15h70v-15h-70zM70 242v15h70v-15h-70zM70 217v15h70v-15h-70zM577 217
v15h70v-15h-70zM577 268v14h70v-14h-70zM577 293v14h70v-14h-70zM577 318v13h70v-13h-70zM577 344v12h70v-12h-70zM577 369v12h70v-12h-70zM577 394v12h70v-12h-70zM70 344v12h70v-12h-70zM70 369v12h70v-12h-70zM70 394v12h70v-12h-70zM70 419v11h70v-11h-70zM577 419v11
h70v-11h-70zM577 445v10h70v-10h-70zM647 0h-70v10h70v-10zM70 445v10h70v-10h-70zM70 470v10h70v-10h-70zM577 470v10h70v-10h-70zM140 0h-70v10h70v-10zM70 495v9h70v-9h-70zM577 495v9h70v-9h-70zM577 546v8h70v-8h-70zM577 521v8h70v-8h-70zM70 521v8h70v-8h-70z
M577 571v8h70v-8h-70zM70 546v8h70v-8h-70zM70 571v8h70v-8h-70zM70 596v7h70v-7h-70zM577 596v7h70v-7h-70zM577 622v2h70v-2h-70zM70 622v2h70v-2h-70z" />
    <glyph glyph-name="I" unicode="I" horiz-adv-x="669" 
d="M67 15v20h535v-20h-535zM67 40v19h535v-19h-535zM602 0h-535v10h535v-10zM67 571v8h535v-8h-535zM67 596v7h535v-7h-535zM299 91v18h70v-18h-70zM299 116v18h70v-18h-70zM299 66v18h70v-18h-70zM299 141v17h70v-17h-70zM299 167v16h70v-16h-70zM299 192v16h70v-16h-70z
M67 624h535v-2h-535v2zM299 217v15h70v-15h-70zM299 242v15h70v-15h-70zM299 268v14h70v-14h-70zM299 293v14h70v-14h-70zM299 318v13h70v-13h-70zM299 394v12h70v-12h-70zM299 369v12h70v-12h-70zM299 344v12h70v-12h-70zM299 419v11h70v-11h-70zM299 470v10h70v-10h-70z
M299 445v10h70v-10h-70zM299 495v9h70v-9h-70zM299 521v8h70v-8h-70zM299 546v8h70v-8h-70z" />
    <glyph glyph-name="J" unicode="J" horiz-adv-x="766" 
d="M217 40l-15 9.5c-4.66699 3 -9.33398 6.16699 -14.001 9.5h380c-7.33301 -6.66699 -16.666 -13 -27.999 -19h-323zM271 15l-21 8.5c-7.33301 3 -15.333 6.83301 -24 11.5h305c-7.33301 -4 -14.833 -7.66699 -22.5 -11s-15.5 -6.33301 -23.5 -9h-214zM179 66
c-8 6 -15 12 -21 18h123c20.667 -8.66699 43 -14.667 67 -18h-169zM410 66c23.333 2.66699 45.668 8.66699 67.001 18h121c-4.66699 -6.66699 -11.334 -12.667 -20.001 -18h-168zM150.002 91c-2.66699 2.66699 -5.33203 5.5 -7.99902 8.5s-5.33398 6.16699 -8.00098 9.5h102
c10 -7.33301 20 -13.333 30 -18h-116zM622.004 109l-7.50195 -9c-2.33301 -2.66699 -5.16602 -5.66699 -8.49902 -9h-114c5.33301 2.66699 10.333 5.5 15 8.5s9.33398 6.16699 14.001 9.5h101zM128.002 116c-2 3.33301 -4.16699 6.33301 -6.5 9s-4.5 5.66699 -6.5 9h91
c6.66699 -7.33301 13.667 -13.333 21 -18h-99zM641.002 134c-2 -3.33301 -4.16699 -6.33301 -6.5 -9s-4.5 -5.66699 -6.5 -9h-98l11 8.5c4 3 7.66699 6.16699 11 9.5h89zM379.002 -3c-34 0 -64.333 4.33301 -91 13h181c-26.667 -8.66699 -56.667 -13 -90 -13zM110.002 141
c-1.33301 2.66699 -3 5.33398 -5 8.00098s-3.66699 5.66699 -5 9h83l7.5 -9c2.33301 -2.66699 4.83301 -5.33398 7.5 -8.00098h-88zM656.002 158c-1.33301 -3.33301 -3 -6.33301 -5 -9s-3.66699 -5.33398 -5 -8.00098h-87c2.66699 2.66699 5.16699 5.33398 7.5 8.00098
l7.5 9h82zM95.002 167c-2.66699 4.66699 -5.33301 9.99902 -8 15.999h79c1.33301 -3.33301 3 -6.16602 5 -8.49902s3.66699 -4.83301 5 -7.5h-81zM581.003 166.999c1.33301 2.66699 3 5.16699 5 7.5s3.66699 5.16602 5 8.49902h77c-2 -7.33301 -4.33301 -12.666 -7 -15.999
h-80zM84.0029 191.999c-1.33301 2.66699 -2.50098 5.16699 -3.50098 7.5l-3.5 8.5h75c2.66699 -6 5.33398 -11.333 8.00098 -16h-76zM679.002 207.999l-3.50098 -8.5c-1 -2.33301 -2.16699 -4.83301 -3.5 -7.5h-75c2.66699 4.66699 5.33398 10 8.00098 16h74z
M75.001 216.999c-1.33301 2.66699 -2.16797 5.16699 -2.50098 7.5s-1.16602 4.83301 -2.49902 7.5h72c0.666992 -5.33301 2.66699 -10.333 6 -15h-73zM608.999 216.999l6.00195 15h71c-0.666992 -2.66699 -1.33398 -5.16699 -2.00098 -7.5s-1.33398 -4.83301 -2.00098 -7.5
h-73zM68.001 241.999l-3.00195 15h70c0.666992 -3.33301 1.33398 -6.33301 2.00098 -9s1.33398 -4.66699 2.00098 -6h-71zM617.999 241.999c0.666992 2.66699 1.33203 5.16699 1.99902 7.5s1.33398 4.83301 2.00098 7.5h69l-3 -15h-70zM695.997 306.999
c0 -7.33301 -0.333008 -12 -1 -14h-69v14h70zM693.997 281.999c0 -2.66699 -0.166992 -5.16797 -0.5 -7.50098s-0.5 -4.5 -0.5 -6.5h-69c0 0.666992 0.666992 4.33398 2 11.001v3h68zM625.997 317.998v13h70v-13h-70zM625.997 343.998v12h70v-12h-70zM625.997 393.998v12h70
v-12h-70zM625.997 368.998v12h70v-12h-70zM625.997 418.998v11h70v-11h-70zM61.9971 278.998h69c0 -2 0.666992 -5.66699 2 -11h-70c0 1.33301 -0.166992 3 -0.5 5s-0.5 4 -0.5 6zM625.997 444.998v10h70v-10h-70zM625.997 469.998v10h70v-10h-70zM625.997 494.998v9h70v-9
h-70zM625.997 520.998v8h70v-8h-70zM625.997 545.998v8h70v-8h-70zM625.997 570.998v8h70v-8h-70zM625.997 595.998v7h70v-7h-70zM695.997 623.998v-2h-70v2h70z" />
    <glyph glyph-name="K" unicode="K" horiz-adv-x="722" 
d="M70 293v14h282v-14h-282zM70 318v13h282v-13h-282zM140 278v-10h-70v14h282v-4h-212zM591 15l-10 20h77l9 -20h-76zM578 40l-9 19h77l9 -19h-77zM540 116l-9 18h78l9 -18h-78zM553 91l-9 18h78l9 -18h-78zM70 15v20h70v-20h-70zM565 66l-9 18h78l9 -18h-78zM70 40v19h70
v-19h-70zM528 141l-9 17h78l9 -17h-78zM70 66v18h70v-18h-70zM70 91v18h70v-18h-70zM70 116v18h70v-18h-70zM502 192l-8 16h78l8 -16h-78zM515 167l-8 16h78l8 -16h-78zM70 141v17h70v-17h-70zM490 217l-8 15h78l8 -15h-78zM477 242l-7 15h78l7 -15h-78zM70 167v16h70v-16
h-70zM70 192v16h70v-16h-70zM452 293l-7 14h78l7 -14h-78zM464 268l-7 14h78l7 -14h-78zM70 217v15h70v-15h-70zM70 242v15h70v-15h-70zM448 318l7 13h78l-7 -13h-78zM474 369l6 12h78l-6 -12h-78zM486 394l6 12h78l-6 -12h-78zM461 344l6 12h78l-6 -12h-78zM499 419l5 11
h78l-6 -11h-77zM70 344v12h70v-12h-70zM70 369v12h70v-12h-70zM70 394v12h70v-12h-70zM512 445l5 10h77l-5 -10h-77zM70 419v11h70v-11h-70zM524 470l5 10h77l-5 -10h-77zM599 0l-5 10h76l5 -10h-76zM70 445v10h70v-10h-70zM70 470v10h70v-10h-70zM140 0h-70v10h70v-10z
M536 495l5 9h76l-4 -9h-77zM70 495v9h70v-9h-70zM561 546l4 8h76l-4 -8h-76zM549 521l4 8h76l-4 -8h-76zM573 571l4 8h76l-4 -8h-76zM70 521v8h70v-8h-70zM70 571v8h70v-8h-70zM70 546v8h70v-8h-70zM585 596l4 7h76l-4 -7h-76zM70 596v7h70v-7h-70zM599 624h76l-1 -2h-76z
M140 624v-2h-70v2h70z" />
    <glyph glyph-name="L" unicode="L" horiz-adv-x="612" 
d="M70 15v20h475v-20h-475zM70 40v19h475v-19h-475zM70 0v10h475v-10h-475zM70 66v18h70v-18h-70zM70 91v18h70v-18h-70zM70 116v18h70v-18h-70zM70 141v17h70v-17h-70zM70 167v16h70v-16h-70zM70 192v16h70v-16h-70zM70 242v15h70v-15h-70zM70 217v15h70v-15h-70zM70 268
v14h70v-14h-70zM70 293v14h70v-14h-70zM70 318v13h70v-13h-70zM70 394v12h70v-12h-70zM70 369v12h70v-12h-70zM70 344v12h70v-12h-70zM70 419v11h70v-11h-70zM70 445v10h70v-10h-70zM70 470v10h70v-10h-70zM70 495v9h70v-9h-70zM70 571v8h70v-8h-70zM70 521v8h70v-8h-70z
M70 546v8h70v-8h-70zM70 596v7h70v-7h-70zM70 622v2h70v-2h-70z" />
    <glyph glyph-name="M" unicode="M" horiz-adv-x="955" 
d="M471 381l5 -10l4 10h77l-6 -12h-153l-6 12h79zM410 344l-6 12h141l-6 -12h-129zM49 15l9 20h77l-9 -20h-77zM828 15l-9 20h77l9 -20h-77zM61 40l9 19h77l-9 -19h-77zM816 40l-9 19h77l9 -19h-77zM422 318l-6 13h117l-6 -13h-105zM73 66l9 18h77l-9 -18h-77zM85 91l9 18
h77l-9 -18h-77zM97 116l9 18h77l-9 -18h-77zM780 116l-9 18h77l9 -18h-77zM792 91l-9 18h77l9 -18h-77zM804 66l-9 18h77l9 -18h-77zM109 141l8 17h77l-8 -17h-77zM768 141l-8 17h77l8 -17h-77zM274 495l4 9h133l5 -9h-142zM743 192l-7 16h77l7 -16h-77zM434 293l-6 14h94
l-6 -14h-82zM121 167l8 16h77l-8 -16h-77zM133 192l7 16h77l-7 -16h-77zM755 167l-7 16h77l7 -16h-77zM533 495l4 9h132l5 -9h-141zM719 242l-7 15h77l7 -15h-77zM731 217l-7 15h77l7 -15h-77zM156 242l7 15h77l-7 -15h-77zM144 217l7 15h77l-7 -15h-77zM695 293l-7 14h77
l7 -14h-77zM168 268l6 14h77l-6 -14h-77zM179 293l7 14h77l-7 -14h-77zM707 268l-7 14h77l7 -14h-77zM683 318l-6 13h77l6 -13h-77zM191 318l6 13h77l-6 -13h-77zM386 394l-6 12h79l6 -12h-79zM226 394l5 12h78l-6 -12h-77zM214 369l6 12h77l-6 -12h-77zM486 394l6 12h77
l-6 -12h-77zM671 344l-6 12h77l6 -12h-77zM203 344l5 12h77l-5 -12h-77zM659 369l-6 12h76l6 -12h-76zM647 394l-6 12h76l6 -12h-76zM286 521l4 8h109l4 -8h-117zM446 268l-6 14h71l-7 -14h-58zM545 521l4 8h108l4 -8h-116zM374 419l-5 11h78l6 -11h-79zM237 419l6 11h78
l-6 -11h-78zM498 419l5 11h78l-6 -11h-77zM634 419l-5 11h76l5 -11h-76zM605 480l-5 -10h-79l5 10h79zM350 470l-5 10h78l5 -10h-78zM362 445l-5 10h78l5 -10h-78zM510 445l4 10h79l-5 -10h-78zM345 480l-5 -10h-78l5 10h78zM250 445l5 10h78l-5 -10h-78zM836 0l-5 10h77
l5 -10h-77zM119 0h-77l4 10h77zM610 470l-5 10h76l5 -10h-76zM622 445l-5 10h76l5 -10h-76zM298 546l4 8h85l4 -8h-93zM557 546l4 8h84l4 -8h-92zM459 242l-7 15h47l-7 -15h-33zM310 571l4 8h61l4 -8h-69zM569 571l4 8h60l4 -8h-68zM322 596l4 7h38l3 -7h-45zM581 596l3 7
h38l3 -7h-44zM471 217l-7 15h24l-7 -15h-10zM335 622l3 6h14l3 -6h-20zM593 622l3 6h14l3 -6h-20zM476 207l-1 1h1v-1z" />
    <glyph glyph-name="N" unicode="N" horiz-adv-x="722" 
d="M513 40l-13 19h152v-19h-139zM531 15l-14 20h135v-20h-121zM460 116l-13 18h83l12 -18h-82zM477 91l-12 18h82l13 -18h-83zM495 66l-13 18h83l12 -18h-82zM442 141l-12 17h83l12 -17h-83zM70 15v20h70v-20h-70zM405 192l-11 16h84l11 -16h-84zM423 167l-11 16h84l11 -16
h-84zM70 40v19h70v-19h-70zM370 242l-11 15h85l10 -15h-84zM387 217l-10 15h84l11 -15h-85zM70 66v18h70v-18h-70zM70 116v18h70v-18h-70zM582 66v18h70v-18h-70zM582 91v18h70v-18h-70zM582 116v18h70v-18h-70zM70 91v18h70v-18h-70zM70 571v8h149l5 -8h-154zM333 293
l-10 14h86l10 -14h-86zM351 268l-10 14h85l10 -14h-85zM70 141v17h70v-17h-70zM582 141v17h70v-17h-70zM542 0l-7 10h117v-10h-110zM582 192v16h70v-16h-70zM70 192v16h70v-16h-70zM70 167v16h70v-16h-70zM582 167v16h70v-16h-70zM315 318l-9 13h86l9 -13h-86zM70 242v15h70
v-15h-70zM70 217v15h70v-15h-70zM582 217v15h70v-15h-70zM582 242v15h70v-15h-70zM261 394l-8 12h87l8 -12h-87zM279 369l-8 12h86l9 -12h-87zM297 344l-9 12h87l8 -12h-86zM582 293v14h70v-14h-70zM70 268v14h70v-14h-70zM582 268v14h70v-14h-70zM70 293v14h70v-14h-70z
M243 419l-8 11h88l8 -11h-88zM70 596v7h132l5 -7h-137zM70 318v13h70v-13h-70zM582 318v13h70v-13h-70zM225 445l-7 10h88l7 -10h-88zM207 470l-7 10h88l7 -10h-88zM582 394v12h70v-12h-70zM70 344v12h70v-12h-70zM582 344v12h70v-12h-70zM582 369v12h70v-12h-70zM70 369v12
h70v-12h-70zM70 394v12h70v-12h-70zM190 495l-7 9h88l7 -9h-88zM582 419v11h70v-11h-70zM70 419v11h70v-11h-70zM154 546l-6 8h88l6 -8h-88zM171 521l-5 8h88l5 -8h-88zM582 470v10h70v-10h-70zM70 445v10h70v-10h-70zM70 470v10h70v-10h-70zM140 0h-70v10h70v-10zM582 445
v10h70v-10h-70zM582 495v9h70v-9h-70zM70 495v9h70v-9h-70zM582 521v8h70v-8h-70zM582 571v8h70v-8h-70zM582 546v8h70v-8h-70zM70 521v8h70v-8h-70zM70 546v8h70v-8h-70zM582 596v7h70v-7h-70zM70 624h117l1 -2h-118v2zM652 624v-2h-70v2h70z" />
    <glyph glyph-name="O" unicode="O" 
d="M214 40l-14.998 9.49902c-4.66699 3 -9.33398 6.16699 -14.001 9.5h378c-5.33301 -3.33301 -10.333 -6.66602 -15 -9.99902s-9.33398 -6.33301 -14.001 -9h-320zM268.002 14.999l-22.5 8.5c-7.66699 3 -15.167 6.83301 -22.5 11.5h302
c-8.66699 -4.66699 -16.667 -8.5 -24 -11.5l-21 -8.5h-212zM542.002 578.999l6 -4l6 -4h-361l6 4l6 4h337zM277.002 83.999c21.333 -9.33301 43.667 -15.333 67 -18h-168c-3.33301 3.33301 -6.83301 6.33301 -10.5 9s-7.16699 5.66699 -10.5 9h122zM404.003 65.999
c22.667 2.66699 44.665 8.66699 65.998 18h122c-3.33301 -3.33301 -6.66602 -6.33301 -9.99902 -9s-6.66602 -5.66699 -9.99902 -9h-168zM485.001 90.999c10 4.66699 20.002 10.667 30.002 18h101c-2.66699 -3.33301 -5.33398 -6.5 -8.00098 -9.5
s-5.33398 -5.83301 -8.00098 -8.5h-115zM233.003 108.999c8.66699 -7.33301 18.666 -13.333 29.999 -18h-115c-3.33301 2.66699 -6.16602 5.5 -8.49902 8.5l-7.5 9.5h101zM495.002 602.999l8.5 -3.5c2.33301 -1 4.83301 -2.16699 7.5 -3.5h-274
c2.66699 1.33301 5.16699 2.5 7.5 3.5s4.83301 2.16699 7.5 3.5h243zM202.002 133.999c3.33301 -3.33301 6.66699 -6.5 10 -9.5s7 -5.83301 11 -8.5h-97c-4 4 -8.33301 10 -13 18h89zM525.003 115.999c6.66699 4.66699 13.667 10.667 21 18h89
c-2.66699 -3.33301 -5 -6.5 -7 -9.5s-4 -5.83301 -6 -8.5h-97zM374.003 -3.00098c-34 0 -64 4.33301 -90 13h180c-26.667 -8.66699 -56.667 -13 -90 -13zM180.003 157.999c2 -3.33301 4.33301 -6.33301 7 -9l8 -8h-87c-3.33301 4 -7 9.66699 -11 17h83zM553.003 140.999
c3.33301 2.66699 6 5.33398 8 8.00098l7 9h82c-1.33301 -3.33301 -3 -6.33301 -5 -9s-3.66699 -5.33398 -5 -8.00098h-87zM162.003 182.999c1.33301 -3.33301 3 -6.16699 5 -8.5s4 -4.83301 6 -7.5h-81c-1.33301 2.66699 -2.5 5.16699 -3.5 7.5l-3.5 8.5h77z
M576.003 166.998c4 5.33301 7.66797 10.667 11.001 16h76c-2.66699 -6 -5.33398 -11.333 -8.00098 -16h-79zM81.0039 191.999c-1.33301 2.66699 -2.50098 5.16699 -3.50098 7.5l-3.5 8.5h74c2.66699 -6 5.33398 -11.333 8.00098 -16h-75zM592.003 191.999
c1.33301 2.66699 2.83301 5.16699 4.5 7.5s3.16699 5.16602 4.5 8.49902h72c-1.33301 -3.33301 -2.33301 -6.16602 -3 -8.49902s-1.66699 -4.83301 -3 -7.5h-75zM322.003 553.999c-5.33301 -1.33301 -10.167 -2.66797 -14.5 -4.00098l-13.5 -4h-132
c1.33301 0.666992 4.33301 3.33398 9 8.00098h151zM455.002 545.997l-13.501 4.00195c-4.33301 1.33301 -9.16602 2.66602 -14.499 3.99902h150c4.66699 -4.66699 7.66699 -7.33398 9 -8.00098h-131zM72.001 216.999c-1.33301 2.66699 -2.16797 5.16699 -2.50098 7.5
s-1.16602 4.83301 -2.49902 7.5h71l6 -15h-72zM679.999 231.999c-0.666992 -2.66699 -1.33203 -5.16699 -1.99902 -7.5s-1.33398 -4.83301 -2.00098 -7.5h-71l6 15h69zM130.001 256.999c0.666992 -2.66699 1.33203 -5.16699 1.99902 -7.5s1.33398 -4.83301 2.00098 -7.5h-69
l-3 15h68zM613.999 241.999c0.666992 1.33301 1.33203 3.33301 1.99902 6s1.33398 5.66699 2.00098 9h68l-3 -15h-69zM125.997 281.999c0 -2.66699 0.666992 -7.33301 2 -14h-68c-0.666992 1.33301 -1 3.33301 -1 6c0 3.33301 -0.333008 6 -1 8h68zM56.9971 293v14h67
c0 -7.33301 0.333008 -12 1 -14h-68zM620.997 268c0.666992 1.33301 1 3.33301 1 6c0 3.33301 0.333008 6 1 8h66c0 -2.66699 -0.166992 -5.16699 -0.5 -7.5s-0.5 -4.5 -0.5 -6.5h-67zM623.997 293c0 2 0.166992 4.16699 0.5 6.5s0.5 4.83301 0.5 7.5h66
c0 -7.33301 -0.333008 -12 -1 -14h-66zM124.997 331c-0.666992 -2 -1 -6.33301 -1 -13h-67v13h68zM255.997 529c-2 -1.33301 -4.16699 -2.66797 -6.5 -4.00098s-4.5 -2.66602 -6.5 -3.99902h-106c4 4 6.33301 6.66699 7 8h112zM143.997 405.998
c-1.33301 -2 -2.16797 -4 -2.50098 -6s-1.16602 -4 -2.49902 -6h-71l3 12h73zM505.995 520.998c-2 1.33301 -4.16699 2.66797 -6.5 4.00098s-4.5 2.66602 -6.5 3.99902h110l8 -8h-105zM624.995 318c0 2 -0.166992 4 -0.5 6s-0.5 4.33301 -0.5 7h66
c0.666992 -2 1 -6.33301 1 -13h-66zM192.995 480c-1.33301 -2 -4.33301 -5.33301 -9 -10h-84c3.33301 4 5.33301 7.33301 6 10h87zM608.995 394l-2.00195 6l-2 6h71c0.666992 -1.33301 1.33398 -3 2.00098 -5s1.33398 -4.33301 2.00098 -7h-71zM115.993 495
c4 5.33301 6.33301 8.33301 7 9h96c-1.33301 -1.33301 -3 -2.83301 -5 -4.5s-3.66699 -3.16699 -5 -4.5h-93zM564.993 470c-1.33301 1.33301 -3 2.83301 -5 4.5s-3.66699 3.5 -5 5.5h87c0.666992 -2.66699 2.66699 -6 6 -10h-83zM539.993 495
c-2 1.33301 -5.33301 4.33301 -10 9h95l6 -9h-91zM134.993 381l-2 -6l-2 -6h-69c0 1.33301 0.666992 5.33301 2 12h71zM74.9932 419c1.33301 1.33301 2.16797 3.00098 2.50098 5.00098s1.16602 4 2.49902 6h76c-1.33301 -2.66699 -2.5 -4.83398 -3.5 -6.50098
s-1.83301 -3.16699 -2.5 -4.5h-75zM616.995 369.001l-3 12h69l3 -12h-69zM667.995 430.001l1.99707 -6c0.666992 -2 1.33398 -3.66699 2.00098 -5h-74c-1.33301 1.33301 -2.16602 3 -2.49902 5s-1.16602 4 -2.49902 6h75zM57.9922 344.001c0.666992 1.33301 1 3.33301 1 6
s0.333008 4.66699 1 6h68c-0.666992 -1.33301 -1 -3.33301 -1 -6s-0.333008 -4.66699 -1 -6h-68zM687.992 356.001c0 -6 0.333008 -10 1 -12h-67c0 1.33301 -0.666992 5.33301 -2 12h68zM171.992 455.001c-2 -4 -4.33496 -7.33301 -7.00195 -10h-78
c0.666992 1.33301 1.33398 2.83301 2.00098 4.5s1.33398 3.5 2.00098 5.5h81zM583.99 445.001c-1.33301 1.33301 -2.49805 2.83301 -3.49805 4.5s-2.16699 3.5 -3.5 5.5h79c1.33301 -2 2.16602 -3.83301 2.49902 -5.5s1.16602 -3.16699 2.49902 -4.5h-77zM373.992 627.001
c9.33301 0 18.6689 -0.5 28.002 -1.5s18.666 -2.16699 27.999 -3.5h-113c9.33301 1.33301 18.666 2.5 27.999 3.5s19 1.5 29 1.5z" />
    <glyph glyph-name="P" unicode="P" horiz-adv-x="681" 
d="M565 579l8 -8h-503v8h495zM536 603c1.33301 -1.33301 2.83301 -2.5 4.5 -3.5s3.5 -2.16699 5.5 -3.5h-476v7h466zM565 307l-7.50098 -7.5c-2.33301 -2.33301 -5.16602 -4.5 -8.49902 -6.5h-187v14h203zM454.999 326c8 0 17.667 1.66699 29 5h101
c-1.33301 -2.66699 -3 -5 -5 -7s-3.66699 -4 -5 -6h-213v8h93zM533.999 282c-6 -3.33301 -11.668 -6.16797 -17.001 -8.50098s-10.666 -4.16602 -15.999 -5.49902h-139v14h172zM69.998 14.998v20h70v-20h-70zM69.998 39.998v19h70v-19h-70zM69.998 65.998v18h70v-18h-70z
M69.998 90.998v18h70v-18h-70zM69.998 115.998v18h70v-18h-70zM69.998 140.998v17h70v-17h-70zM69.998 191.998v16h70v-16h-70zM69.998 166.998v16h70v-16h-70zM69.998 216.998v15h70v-15h-70zM69.998 241.998v15h70v-15h-70zM505.998 343.998c4 2.66699 8 6.66699 12 12h81
l-6 -12h-87zM69.998 267.998v14h70v-14h-70zM69.998 292.998v14h70v-14h-70zM526.998 368.998l6.00195 12h76c-0.666992 -2.66699 -1.33398 -5 -2.00098 -7s-1.33398 -3.66699 -2.00098 -5h-78zM70 317.998v13h70v-13h-70zM538 393.998
c0.666992 1.33301 1.33203 3 1.99902 5s1.33398 4.33301 2.00098 7h74l-3 -12h-75zM69.998 393.998v12h70v-12h-70zM69.998 343.998v12h70v-12h-70zM69.998 368.998v12h70v-12h-70zM464.998 623.998c3.33301 0 6.83301 -0.166992 10.5 -0.5s7.16699 -0.833008 10.5 -1.5
h-416v2h395zM543.998 418.998c0 1.33301 0.166992 3 0.5 5s0.5 4 0.5 6h74c0 -2 -0.166992 -4 -0.5 -6s-0.5 -3.66699 -0.5 -5h-74zM496.998 545.998c-2.66699 1.33301 -5 2.66895 -7 4.00195s-4.33301 2.66602 -7 3.99902h102c2 -2.66699 3.66699 -5.33398 5 -8.00098h-93z
M69.998 419.001v11h70v-11h-70zM541.998 470.001c-0.666992 0.666992 -1 2 -1 4c0 2.66699 -0.333008 4.66699 -1 6h75c0.666992 -1.33301 1 -3.33301 1 -6c0 -2 0.333008 -3.33301 1 -4h-75zM545.998 445.001c0 1.33301 -0.166992 2.83301 -0.5 4.5s-0.5 3.5 -0.5 5.5h73
c0 -2 0.166992 -3.83301 0.5 -5.5s0.5 -3.16699 0.5 -4.5h-73zM534.998 495.001c-1.33301 1.33301 -2.16797 2.83301 -2.50098 4.5s-1.16602 3.16699 -2.49902 4.5h79l3 -9h-77zM69.9961 0.000976562v10h70v-10h-70zM69.9961 470.001v10h70v-10h-70zM69.9961 445.001v10h70
v-10h-70zM519.996 521.001c-1.33301 1.33301 -2.33301 2.66797 -3 4.00098s-1.66699 2.66602 -3 3.99902h85l2 -4l2 -4h-83zM69.9961 495.003v9h70v-9h-70zM69.9961 521.003v8h70v-8h-70zM69.9961 546.003v8h70v-8h-70z" />
    <glyph glyph-name="Q" unicode="Q" 
d="M213 40c-4.66699 2.66699 -9.33301 5.66797 -14 9.00098s-9.66699 6.66602 -15 9.99902h478l19 -19h-111l-14 14c-3.33301 -2.66699 -6.83301 -5.16699 -10.5 -7.5s-7.5 -4.5 -11.5 -6.5h-321zM267.001 15.001l-21 8.5c-7.33301 3 -15.333 6.83301 -24 11.5h304
c-7.33301 -4 -14.833 -7.66699 -22.5 -11s-15.5 -6.33301 -23.5 -9h-213zM404.001 66.001c22.667 2.66699 44.667 8.66699 66 18h167l18 -18h-251zM540.001 579.001c2.66699 -1.33301 5 -2.66699 7 -4l6 -4h-358l6 4l6 4h333zM175.001 66
c-8.66699 5.33301 -15.332 11.333 -19.999 18h122c21.333 -9.33301 43.666 -15.333 66.999 -18h-169zM486.003 91c10 4.66699 20 10.668 30 18.001h101c-0.666992 -0.666992 -1 -1.33398 -1 -2.00098l-1 -1l15 -15h-144zM147.003 91.001
c-2.66699 2.66699 -5.33203 5.5 -7.99902 8.5s-5.33398 6.16699 -8.00098 9.5h101c8.66699 -7.33301 18.667 -13.333 30 -18h-115zM493.005 603.001c2.66699 -1.33301 5.16699 -2.5 7.5 -3.5l8.5 -3.5h-270c2.66699 1.33301 5.16699 2.5 7.5 3.5l8.5 3.5h238z
M636.005 134.001c-2 -3.33301 -4.16699 -6.33301 -6.5 -9s-4.5 -5.66699 -6.5 -9h-98c8 4.66699 15 10.667 21 18h90zM125.005 116.001c-2 3.33301 -4.16797 6.33301 -6.50098 9s-4.5 5.66699 -6.5 9h90c4.66699 -6.66699 11.334 -12.667 20.001 -18h-97zM596.004 15.001
l-21 20h106l-26 -20h-59zM374.004 -2.99902c-34 0 -64 4.33301 -90 13h181c-26.667 -8.66699 -57 -13 -91 -13zM107.004 141.001c-1.33301 2.66699 -3 5.33398 -5 8.00098s-3.66699 5.66699 -5 9h82l7.5 -9c2.33301 -2.66699 4.83301 -5.33398 7.5 -8.00098h-87z
M651.004 158.001c-1.33301 -3.33301 -2.99902 -6.33301 -4.99902 -9s-3.66699 -5.33398 -5 -8.00098h-88c3.33301 2.66699 6.16602 5.33398 8.49902 8.00098l7.5 9h82zM92.0049 167.001c-2.66699 4.66699 -5.33301 9.99902 -8 15.999h77
c2 -3.33301 3.83301 -6.16602 5.5 -8.49902l5.5 -7.5h-80zM664.006 183c-2.66699 -6 -5.33301 -11.332 -8 -15.999h-80c2 2.66699 4 5.16699 6 7.5s3.66699 5.16602 5 8.49902h77zM80.0068 192.001c-1.33301 2.66699 -2.33301 5.16699 -3 7.5s-1.66699 5.16602 -3 8.49902
h73c1.33301 -3.33301 2.83301 -6.16602 4.5 -8.49902s3.16699 -4.83301 4.5 -7.5h-76zM674.007 208.001l-3.50098 -8.5c-1 -2.33301 -2.16699 -4.83301 -3.5 -7.5h-74c2.66699 4.66699 5.33398 10 8.00098 16h73zM163.006 546.001
c1.33301 1.33301 2.83301 2.66797 4.5 4.00098s3.16699 2.66602 4.5 3.99902h155l-15.5 -4l-15.5 -4h-133zM575.006 554.003c2 -1.33301 3.83301 -2.66797 5.5 -4.00098s3.16699 -2.66602 4.5 -3.99902h-132l-15.5 4l-15.5 4h153zM71.0059 217.001
c-0.666992 2.66699 -1.33203 5.16699 -1.99902 7.5s-1.33398 4.83301 -2.00098 7.5h70l6 -15h-72zM681.008 232.001c-0.666992 -1.33301 -1.33203 -3.33301 -1.99902 -6s-1.33398 -5.66699 -2.00098 -9h-72l6 15h70zM130.01 257.001
c0.666992 -2.66699 1.33203 -5.16699 1.99902 -7.5s1.33398 -4.83301 2.00098 -7.5h-70l-3 15h69zM614.008 242.001c1.33301 3.33301 2.33203 6.33301 2.99902 9s1.33398 4.66699 2.00098 6h67l-3 -15h-69zM60.0068 268.001c-0.666992 1.33301 -1 3.33398 -1 6.00098
c0 3.33301 -0.333008 6 -1 8h68c0 -2.66699 0.666992 -7.33398 2 -14.001h-68zM689.007 282.002c0 -2.66699 -0.166992 -5.16699 -0.5 -7.5s-0.5 -4.5 -0.5 -6.5h-67c0.666992 1.33301 1 3.33301 1 6c0 3.33301 0.333008 6 1 8h66zM57.0068 293.002v14h67v-14h-67z
M691.007 307.002c0 -7.33301 -0.333008 -12 -1 -14h-66c0 2 0.166992 4.16699 0.5 6.5s0.5 4.83301 0.5 7.5h66zM138.007 521.002c4 4 6.33301 6.66504 7 7.99805h113c-2 -1.33301 -4.16699 -2.66602 -6.5 -3.99902s-4.83301 -2.66602 -7.5 -3.99902h-106zM57.0068 318
c0 6.66699 0.333008 11 1 13h67c-0.666992 -2 -1 -6.33301 -1 -13h-67zM68.0068 394c0.666992 2.66699 1.33203 5 1.99902 7s1.33398 3.66699 2.00098 5h72l-2 -6l-2 -6h-72zM602.005 529l8 -7.99805h-105c-2.66699 1.33301 -5.16699 2.66602 -7.5 3.99902
s-4.5 2.66602 -6.5 3.99902h111zM100.005 470.002c1.33301 1.33301 2.5 2.83301 3.5 4.5s2.16699 3.5 3.5 5.5h87c-1.33301 -2 -4.33301 -5.33301 -9 -10h-85zM117.005 495.002l6 9h97c-1.33301 -1.33301 -3 -2.83301 -5 -4.5s-3.66699 -3.16699 -5 -4.5h-93z
M676.005 406.002l1.99805 -6l2 -6h-71c-1.33301 2 -2.16602 4 -2.49902 6s-1.16602 4 -2.49902 6h72zM690.003 331.002v-13h-65c0 2 -0.166992 4 -0.5 6s-0.5 4.33301 -0.5 7h66zM641.003 480.002c0.666992 -2.66699 2.66699 -6 6 -10h-83
c-1.33301 1.33301 -3 2.83301 -5 4.5s-3.66699 3.5 -5 5.5h87zM624.003 504.002c1.33301 -1.33301 2.5 -2.83301 3.5 -4.5s2.16699 -3.16699 3.5 -4.5h-92c-2 1.33301 -5.33301 4.33301 -10 9h95zM135.003 381.002l-3 -12h-70l3 12h70zM76.0029 419.002
c0.666992 1.33301 1.33105 3 1.99805 5l2 6h76c-1.33301 -2 -2.16602 -4 -2.49902 -6s-1.16602 -3.66699 -2.49902 -5h-75zM617 369.002l-3 12h69c0.666992 -1.33301 1 -3.33301 1 -6s0.333008 -4.66699 1 -6h-68zM667 430.002
c1.33301 -2 2.16797 -4.00098 2.50098 -6.00098s1.16602 -3.66699 2.49902 -5h-74c-0.666992 1.33301 -1.5 2.83301 -2.5 4.5s-2.16699 3.83398 -3.5 6.50098h75zM59.002 344.001c0 2 0.166992 4 0.5 6s0.5 4 0.5 6h68c-0.666992 -1.33301 -1 -3.33301 -1 -6
s-0.333008 -4.66699 -1 -6h-67zM687.002 356.001c0.666992 -1.33301 1 -3.33301 1 -6s0.333008 -4.66699 1 -6h-67c0 1.33301 -0.666992 5.33301 -2 12h67zM173.002 455.001c-1.33301 -2 -2.5 -3.83301 -3.5 -5.5s-2.16699 -3.16699 -3.5 -4.5h-79c1.33301 4 3 7.33301 5 10
h81zM583.002 445.001c-2.66699 2.66699 -5 6 -7 10h80c1.33301 -4 3 -7.33301 5 -10h-78zM622.002 -9.99902l-21 20h47zM374.002 626.001c18.667 0 35.668 -1.33301 51.001 -4h-103c15.333 2.66699 32.666 4 51.999 4z" />
    <glyph glyph-name="R" unicode="R" horiz-adv-x="681" 
d="M565 579l8 -8h-503v8h495zM536 603c1.33301 -1.33301 2.83301 -2.5 4.5 -3.5s3.5 -2.16699 5.5 -3.5h-476v7h466zM566 307l-7.50098 -7.5c-2.33301 -2.33301 -5.16602 -4.5 -8.49902 -6.5h-175l-7 14h198zM584.999 331c-3.33301 -5.33301 -6.66699 -9.66699 -10 -13h-212
l-4 8h96c8 0 17.667 1.66699 29 5h101zM533.998 281.999c-10 -6 -20.667 -10.667 -32 -14h-114l-7 14h153zM517.998 14.999l-10 20h75l10 -20h-75zM504.998 39.999l-10 19h75l10 -19h-75zM69.998 14.999v20h70v-20h-70zM465.998 115.999l-9 18h75l9 -18h-75zM478.998 90.999
l-9 18h75l9 -18h-75zM491.998 65.999l-10 18h75l10 -18h-75zM69.998 39.999v19h70v-19h-70zM452.998 140.999l-9 17h76l9 -17h-76zM69.998 65.999v18h70v-18h-70zM69.998 90.999v18h70v-18h-70zM69.998 115.999v18h70v-18h-70zM426.998 191.999l-9 16h77l8 -16h-76z
M439.998 166.999l-9 16h77l8 -16h-76zM69.998 140.999v17h70v-17h-70zM400.998 241.999l-8 15h78l7 -15h-77zM413.998 216.999l-8 15h77l8 -15h-77zM69.998 191.999v16h70v-16h-70zM69.998 166.999v16h70v-16h-70zM69.998 216.999v15h70v-15h-70zM69.998 241.999v15h70v-15
h-70zM599.998 355.999l-6 -12h-88c4 2.66699 8 6.66699 12 12h82zM69.998 292.999v14h70v-14h-70zM69.998 267.999v14h70v-14h-70zM609.998 380.999c-1.33301 -2 -2.16797 -4 -2.50098 -6s-1.16602 -4 -2.49902 -6h-78l6 12h77zM69.9961 317.999v13h70v-13h-70z
M615.996 405.999l-3.00195 -12h-75c0.666992 1.33301 1.33398 3 2.00098 5s1.33398 4.33301 2.00098 7h74zM69.9941 368.999v12h70v-12h-70zM69.9941 343.999v12h70v-12h-70zM69.9941 393.999v12h70v-12h-70zM464.994 623.999c3.33301 0 6.83301 -0.166992 10.5 -0.5
s7.16699 -0.833008 10.5 -1.5h-416v2h395zM543.994 418.999c0 1.33301 0.166992 3 0.5 5s0.5 4 0.5 6h74c0 -2 -0.166992 -4 -0.5 -6s-0.5 -3.66699 -0.5 -5h-74zM584.994 553.999c2 -2.66699 3.66699 -5.33105 5 -7.99805h-93c-2.66699 1.33301 -5 2.66602 -7 3.99902
s-4.33301 2.66602 -7 3.99902h102zM69.9941 419.002v11h70v-11h-70zM525.994 0.00195312l-5 10h75l5 -10h-75zM614.994 480.002c0.666992 -1.33301 1 -3.33301 1 -6c0 -2 0.333008 -3.33301 1 -4h-75c-0.666992 0.666992 -1 2 -1 4c0 2.66699 -0.333008 4.66699 -1 6h75z
M617.994 455.002c0 -2 0.166992 -3.83301 0.5 -5.5s0.5 -3.16699 0.5 -4.5h-73c0 1.33301 -0.166992 2.83301 -0.5 4.5s-0.5 3.5 -0.5 5.5h73zM534.994 495.002c-1.33301 1.33301 -2.16797 2.83301 -2.50098 4.5s-1.16602 3.16699 -2.49902 4.5h79l3 -9h-77z
M69.9922 445.002v10h70v-10h-70zM139.992 0.00195312h-70v10h70v-10zM69.9922 470.002v10h70v-10h-70zM598.992 529.002l2 -3.99805l2 -4h-83c-1.33301 1.33301 -2.33301 2.66602 -3 3.99902s-1.66699 2.66602 -3 3.99902h85zM69.9922 495.004v9h70v-9h-70zM69.9922 546.004
v8h70v-8h-70zM69.9922 521.004v8h70v-8h-70z" />
    <glyph glyph-name="S" unicode="S" horiz-adv-x="673" 
d="M574 59c-2.66699 -3.33301 -5.33301 -6.5 -8 -9.5s-5.66699 -6.16699 -9 -9.5h-485v19h502zM552.001 35c-5.33301 -4 -10.5 -7.66699 -15.5 -11s-10.167 -6.33301 -15.5 -9h-449v20h480zM457.001 0h-385v10h438c-15.333 -6.66699 -33 -10 -53 -10zM102.001 571
c1.33301 1.33301 2.5 2.66797 3.5 4.00098s2.16699 2.66602 3.5 3.99902h492v-8h-499zM129.001 596.002c2 1.33301 3.83301 2.5 5.5 3.5s3.16699 2.16699 4.5 3.5h462v-7h-472zM590.001 84.002c-3.33301 -8 -6.66602 -14 -9.99902 -18h-119
c15.333 2.66699 28.666 8.66699 39.999 18h89zM575.001 282.002c1.33301 -2.66699 2.83301 -5 4.5 -7s3.16699 -4.33301 4.5 -7h-95l-12.5 5c-5 2 -10.833 3.66699 -17.5 5v4h116zM601.001 109.002l-3.50098 -9l-3.5 -9h-85c6.66699 6.66699 11.334 12.667 14.001 18h78z
M552 307.002l14 -14h-107v14h93zM607 134.002c-0.666992 -3.33301 -1.16797 -6.33301 -1.50098 -9s-1.16602 -5.66699 -2.49902 -9h-76c1.33301 2.66699 2.33301 5.5 3 8.5s1.66699 6.16699 3 9.5h74zM118.999 318.002l-6 6c-2 2 -4 4.33301 -6 7h107v-13h-95z
M95.999 344.002l-4.00098 6l-4 6h94c10.667 -5.33301 21.334 -9 32.001 -11v-1h-118zM609.998 158.002v-9c0 -3.33301 -0.333008 -6 -1 -8h-74l2 8c0.666992 2.66699 1 5.66699 1 9h72zM589.998 257.002c1.33301 -2.66699 2.5 -5.16699 3.5 -7.5s2.16699 -4.83301 3.5 -7.5
h-77c-2 2.66699 -4 5.16699 -6 7.5s-4.66699 4.83301 -8 7.5h84zM606.998 208.002c0.666992 -2.66699 1.16699 -5.33398 1.5 -8.00098s0.833008 -5.33398 1.5 -8.00098h-72c-0.666992 2.66699 -1.16699 5.33398 -1.5 8.00098s-0.833008 5.33398 -1.5 8.00098h72z
M610.998 173.002v-6h-72v6v10h71c0 -2 0.166992 -3.83301 0.5 -5.5s0.5 -3.16699 0.5 -4.5zM600.998 232.002c0.666992 -2.66699 1.33203 -5.16699 1.99902 -7.5s1.33398 -4.83301 2.00098 -7.5h-72c-1.33301 2.66699 -2.5 5.16699 -3.5 7.5s-2.16699 4.83301 -3.5 7.5h75z
M155.996 293.002l-12 6c-4 2 -7.66699 4.66699 -11 8h81v-14h-58zM80.9961 369.002c-1.33301 2.66699 -2.33203 5 -2.99902 7s-1.33398 3.66699 -2.00098 5h77c1.33301 -2.66699 3 -5 5 -7l5 -5h-82zM515.997 331.002c9.33301 -4 16.667 -8.33301 22 -13h-79v13h57z
M70.998 394.002c-0.666992 1.33301 -1.33008 3 -1.99707 5s-1.33398 4.33301 -2.00098 7h73c1.33301 -2 2.16602 -4 2.49902 -6s1.16602 -4 2.49902 -6h-74zM197.002 554.002l-8 -4.00098c-2.66699 -1.33301 -5.66699 -2.66602 -9 -3.99902h-95l2 4l2 4h108z
M601.002 624.001v-2h-410c4 0.666992 8 1.16699 12 1.5s8.33301 0.5 13 0.5h385zM135.002 430.001c0 -2 0.666992 -5.66699 2 -11h-73c0 1.33301 -0.166992 3 -0.5 5s-0.5 4 -0.5 6h72zM62.002 470.001c0.666992 0.666992 1 1.99902 1 3.99902
c0 2.66699 0.333008 4.66699 1 6h73c-1.33301 -5.33301 -2 -8.66602 -2 -9.99902h-73zM62.002 445v6v4h72v-4v-6h-72zM66.002 495c0.666992 0.666992 1.00098 1.99902 1.00098 3.99902c0 2.66699 0.333008 4.33398 1 5.00098h76l-2 -4
c-0.666992 -1.33301 -1.33398 -3 -2.00098 -5h-74zM73.0029 520.999l2 4l2 4h83l-6 -8h-81zM214.003 279.999c-4 0 -7.83301 0.166992 -11.5 0.5s-7.16699 0.833008 -10.5 1.5h22v-2z" />
    <glyph glyph-name="T" unicode="T" horiz-adv-x="679" 
d="M67 571v8h545v-8h-545zM67 596v7h545v-7h-545zM304 15v20h70v-20h-70zM304 40v19h70v-19h-70zM304 116v18h70v-18h-70zM304 66v18h70v-18h-70zM304 91v18h70v-18h-70zM304 141v17h70v-17h-70zM304 192v16h70v-16h-70zM304 167v16h70v-16h-70zM67 624h545v-2h-545v2z
M304 242v15h70v-15h-70zM304 217v15h70v-15h-70zM304 293v14h70v-14h-70zM304 268v14h70v-14h-70zM304 318v13h70v-13h-70zM304 344v12h70v-12h-70zM304 369v12h70v-12h-70zM304 394v12h70v-12h-70zM304 419v11h70v-11h-70zM374 0h-70v10h70v-10zM304 445v10h70v-10h-70z
M304 470v10h70v-10h-70zM304 495v9h70v-9h-70zM304 546v8h70v-8h-70zM304 521v8h70v-8h-70z" />
    <glyph glyph-name="U" unicode="U" horiz-adv-x="775" 
d="M227 40l-15 9.5c-4.66699 3 -9.33398 6.16699 -14.001 9.5h379c-7.33301 -6.66699 -16.666 -13 -27.999 -19h-322zM281 15l-22.5 8.5c-7.66699 3 -15.167 6.83301 -22.5 11.5h304c-7.33301 -4 -14.833 -7.66699 -22.5 -11s-15.5 -6.33301 -23.5 -9h-213zM188 66
c-3.33301 2.66699 -6.66797 5.5 -10.001 8.5s-6.66602 6.16699 -9.99902 9.5h122c20.667 -8.66699 43 -14.667 67 -18h-169zM418.998 66c23.333 2.66699 45.668 8.66699 67.001 18h121c-4.66699 -6.66699 -11.334 -12.667 -20.001 -18h-168zM160 91
c-3.33301 3.33301 -6.16699 6.33301 -8.5 9l-7.5 9h101c10 -7.33301 20 -13.333 30 -18h-115zM630.999 109l-7.50195 -9c-2.33301 -2.66699 -5.16602 -5.66699 -8.49902 -9h-114c5.33301 2.66699 10.333 5.5 15 8.5s9.33398 6.16699 14.001 9.5h101zM137.997 116l-7.5 9
c-2.33301 2.66699 -4.5 5.66699 -6.5 9h91c6.66699 -7.33301 13.667 -13.333 21 -18h-98zM649.997 134c-2 -3.33301 -4.16699 -6.33301 -6.5 -9s-4.5 -5.66699 -6.5 -9h-98l11 8.5c4 3 7.66699 6.16699 11 9.5h89zM387.997 -3c-34 0 -64 4.33301 -90 13h180
c-26.667 -8.66699 -56.667 -13 -90 -13zM119.997 141c-4 4.66699 -7.33301 10.334 -10 17.001h82l7.5 -9c2.33301 -2.66699 4.83301 -5.33398 7.5 -8.00098h-87zM664.997 158c-1.33301 -3.33301 -3 -6.33301 -5 -9s-3.66699 -5.33398 -5 -8.00098h-87
c2.66699 2.66699 5.16699 5.33398 7.5 8.00098l7.5 9h82zM104.997 167c-2.66699 4.66699 -5.33301 9.99902 -8 15.999h78c1.33301 -3.33301 3 -6.16602 5 -8.49902s3.66699 -4.83301 5 -7.5h-80zM589.998 166.999c1.33301 2.66699 3 5.16699 5 7.5
s3.66699 5.16602 5 8.49902h77c-2 -7.33301 -4.33301 -12.666 -7 -15.999h-80zM160.998 207.999c2.66699 -6 5.33301 -11.332 8 -15.999h-76c-1.33301 2.66699 -2.33301 5.16699 -3 7.5s-1.66699 5.16602 -3 8.49902h74zM687.997 208l-3.50098 -8.5
c-1 -2.33301 -2.16699 -4.83301 -3.5 -7.5h-75c2.66699 4.66699 5.33398 10 8.00098 16h74zM150.996 232c0.666992 -5.33301 2.66504 -10.333 5.99805 -15h-73c-1.33301 2.66699 -2.16602 5.16699 -2.49902 7.5s-1.16602 4.83301 -2.49902 7.5h72zM617.994 217l6.00195 15
h71c-0.666992 -2.66699 -1.33398 -5.16699 -2.00098 -7.5s-1.33398 -4.83301 -2.00098 -7.5h-73zM626.996 242c0.666992 2.66699 1.33203 5.16699 1.99902 7.5s1.33398 4.83301 2.00098 7.5h69l-3 -15h-70zM143.994 257c0.666992 -3.33301 1.33203 -6.33301 1.99902 -9
s1.33398 -4.66699 2.00098 -6h-71l-3 15h70zM704.992 307c0 -7.33301 -0.333008 -12 -1 -14h-69v14h70zM69.9922 293v14h70v-14h-70zM702.992 282c0 -2.66699 -0.166992 -5.16797 -0.5 -7.50098s-0.5 -4.5 -0.5 -6.5h-69c0 0.666992 0.666992 4.33398 2 11.001v3h68z
M72.9922 267.999c-0.666992 1.33301 -1 3.33301 -1 6c0 3.33301 -0.333008 6 -1 8h69v-3c0 -2 0.666992 -5.66699 2 -11h-69zM634.992 317.999v13h70v-13h-70zM69.9922 317.999v13h70v-13h-70zM634.992 343.999v12h70v-12h-70zM634.992 368.999v12h70v-12h-70z
M634.992 393.999v12h70v-12h-70zM69.9922 343.999v12h70v-12h-70zM69.9922 393.999v12h70v-12h-70zM69.9922 368.999v12h70v-12h-70zM634.992 418.999v11h70v-11h-70zM69.9922 418.999v11h70v-11h-70zM634.992 444.999v10h70v-10h-70zM634.992 469.999v10h70v-10h-70z
M69.9922 444.999v10h70v-10h-70zM69.9922 469.999v10h70v-10h-70zM634.992 494.999v9h70v-9h-70zM69.9922 494.999v9h70v-9h-70zM634.992 520.999v8h70v-8h-70zM634.992 570.999v8h70v-8h-70zM69.9922 545.999v8h70v-8h-70zM69.9922 570.999v8h70v-8h-70zM69.9922 520.999v8
h70v-8h-70zM634.992 545.999v8h70v-8h-70zM69.9922 595.999v7h70v-7h-70zM634.992 595.999v7h70v-7h-70zM704.992 623.999v-2h-70v2h70zM139.992 623.999v-2h-70v2h70z" />
    <glyph glyph-name="V" unicode="V" horiz-adv-x="741" 
d="M361 134l8 -17l8 17h75l-9 -18h-147l-9 18h74zM308 91l-9 18h141l-9 -18h-123zM321 66l-9 18h115l-9 -18h-97zM333 40l-9 19h91l-10 -19h-72zM381 141l8 17h75l-8 -17h-75zM283 141l-8 17h74l8 -17h-74zM258 192l-8 16h75l8 -16h-75zM406 192l8 16h75l-8 -16h-75z
M394 167l8 16h75l-8 -16h-75zM270 167l-8 16h75l8 -16h-75zM345 15l-9 20h67l-10 -20h-48zM233 242l-8 15h77l7 -15h-76zM245 217l-7 15h76l7 -15h-76zM431 242l8 15h75l-8 -15h-75zM419 217l7 15h75l-7 -15h-75zM207 293l-7 14h78l6 -14h-77zM220 268l-7 14h77l6 -14h-76z
M444 268l7 14h75l-7 -14h-75zM457 293l7 14h75l-7 -14h-75zM195 318l-7 13h78l6 -13h-77zM469 318l7 13h75l-7 -13h-75zM157 394l-6 12h78l6 -12h-78zM169 369l-6 12h79l6 -12h-79zM182 344l-6 12h78l6 -12h-78zM495 369l6 12h75l-6 -12h-75zM482 344l6 12h75l-6 -12h-75z
M507 394l6 12h75l-6 -12h-75zM144 419l-5 11h78l6 -11h-79zM520 419l5 11h75l-5 -11h-75zM119 470l-5 10h79l5 -10h-79zM131 445l-5 10h79l5 -10h-79zM544 470l5 10h76l-5 -10h-76zM532 445l5 10h76l-5 -10h-76zM106 495l-4 9h79l4 -9h-79zM556 495l5 9h76l-4 -9h-77z
M358 -10l-10 20h42l-10 -20h-22zM81 546l-4 8h80l4 -8h-80zM68 571l-4 8h80l4 -8h-80zM93 521l-4 8h80l4 -8h-80zM581 546l4 8h78l-4 -8h-78zM593 571l4 8h78l-4 -8h-78zM569 521l4 8h77l-4 -8h-77zM56 596l-4 7h80l4 -7h-80zM605 596l4 7h79l-4 -7h-79zM699 624l-1 -2h-80
l1 2h80zM42 624h80l1 -2h-80zM369 -33l-9 18h18z" />
    <glyph glyph-name="W" unicode="W" horiz-adv-x="883" 
d="M739 59l4 -7v7h70v-19h-142l-9 19h77zM70 40v19h70v-2l1 2h78l-9 -19h-140zM683 15l-9 20h139v-20h-130zM70 15v20h137l-10 -20h-127zM144 66l9 18h79l-9 -18h-79zM157 91l9 18h78l-9 -18h-78zM169 116l9 18h78l-9 -18h-78zM659 66l-9 18h76l10 -18h-77zM647 91l-9 18h75
l10 -18h-76zM634 116l-8 18h74l10 -18h-76zM182 141l8 17h78l-9 -17h-77zM622 141l-8 17h74l9 -17h-75zM70 66v18h70v-18h-70zM70 91v18h70v-18h-70zM70 116v18h70v-18h-70zM743 66v18h70v-18h-70zM743 91v18h70v-18h-70zM743 116v18h70v-18h-70zM813 0h-122l-5 10h127v-10z
M195 167l8 16h77l-8 -16h-77zM207 192l8 16h77l-7 -16h-78zM190 0h-120v10h125zM70 141v17h70v-17h-70zM743 141v17h70v-17h-70zM610 167l-8 16h74l8 -16h-74zM598 192l-8 16h73l8 -16h-73zM220 217l7 15h77l-7 -15h-77zM232 242l8 15h76l-7 -15h-77zM70 167v16h70v-16h-70z
M70 192v16h70v-16h-70zM743 167v16h70v-16h-70zM743 192v16h70v-16h-70zM573 242l-8 15h74l7 -15h-73zM585 217l-7 15h73l8 -15h-74zM245 268l7 14h77l-7 -14h-77zM258 293l7 14h76l-7 -14h-76zM70 217v15h70v-15h-70zM70 242v15h70v-15h-70zM743 217v15h70v-15h-70z
M743 242v15h70v-15h-70zM372 521l4 8h127l4 -8h-135zM547 293l-7 14h74l7 -14h-74zM560 268l-7 14h73l7 -14h-73zM270 318l7 13h76l-7 -13h-76zM70 268v14h70v-14h-70zM70 293v14h70v-14h-70zM743 268v14h70v-14h-70zM743 293v14h70v-14h-70zM535 318l-7 13h74l6 -13h-73z
M70 318v13h70v-13h-70zM743 318v13h70v-13h-70zM283 344l6 12h76l-6 -12h-76zM296 369l6 12h75l-6 -12h-75zM308 394l6 12h75l-6 -12h-75zM509 369l-6 12h74l6 -12h-74zM497 394l-6 12h73l6 -12h-73zM522 344l-6 12h73l6 -12h-73zM384 546l4 8h102l4 -8h-110zM743 344v12h70
v-12h-70zM743 394v12h70v-12h-70zM70 344v12h70v-12h-70zM70 369v12h70v-12h-70zM70 394v12h70v-12h-70zM743 369v12h70v-12h-70zM321 419l5 11h74l-5 -11h-74zM484 419l-5 11h73l6 -11h-74zM70 419v11h70v-11h-70zM743 419v11h70v-11h-70zM334 445l5 10h73l-5 -10h-73z
M459 470l-5 10h73l5 -10h-73zM471 445l-5 10h74l5 -10h-74zM346 470l5 10h73l-5 -10h-73zM70 445v10h70v-10h-70zM70 470v10h70v-10h-70zM743 470v10h70v-10h-70zM743 445v10h70v-10h-70zM446 495l-4 9h73l5 -9h-74zM359 495l4 9h73l-5 -9h-72zM397 571l4 8h77l4 -8h-85z
M70 495v9h70v-9h-70zM743 495v9h70v-9h-70zM743 546v8h70v-8h-70zM70 571v8h70v-8h-70zM70 521v8h70v-8h-70zM70 546v8h70v-8h-70zM743 521v8h70v-8h-70zM743 571v8h70v-8h-70zM70 596v7h70v-7h-70zM743 596v7h70v-7h-70zM409 596l4 7h53l3 -7h-60zM422 622l3 6h28l3 -6h-34
zM743 622v2h70v-2h-70zM140 624v-2h-70v2h70zM434 647l3 6h4l3 -6h-10z" />
    <glyph glyph-name="X" unicode="X" horiz-adv-x="705" 
d="M574 15l-10 20h77l9 -20h-76zM54 15l10 20h76l-10 -20h-76zM561 40l-10 19h78l9 -19h-77zM67 40l9 19h76l-9 -19h-76zM522 116l-9 18h79l9 -18h-79zM535 91l-9 18h79l9 -18h-79zM548 66l-10 18h79l9 -18h-78zM80 66l9 18h76l-9 -18h-76zM92 91l9 18h76l-9 -18h-76z
M105 116l9 18h76l-9 -18h-76zM510 141l-9 17h79l9 -17h-79zM117 141l9 17h76l-9 -17h-76zM484 192l-8 16h79l8 -16h-79zM497 167l-8 16h79l8 -16h-79zM130 167l8 16h76l-8 -16h-76zM143 192l8 16h76l-8 -16h-76zM472 217l-8 15h79l8 -15h-79zM459 242l-7 15h79l7 -15h-79z
M168 242l7 15h77l-8 -15h-76zM155 217l8 15h76l-8 -15h-76zM434 293l-7 14h79l7 -14h-79zM446 268l-7 14h79l7 -14h-79zM192 293l7 14h79l-8 -14h-78zM180 268l7 14h78l-8 -14h-77zM195 318l-6 13h79l6 -13h-79zM430 318l7 13h79l-7 -13h-79zM468 394l6 12h79l-6 -12h-79z
M443 344l6 12h79l-6 -12h-79zM171 369l-6 12h79l6 -12h-79zM183 344l-6 12h79l6 -12h-79zM456 369l6 12h79l-6 -12h-79zM159 394l-6 12h79l6 -12h-79zM147 419l-6 11h79l5 -11h-78zM481 419l5 11h79l-6 -11h-78zM494 445l5 10h78l-5 -10h-78zM134 445l-5 10h78l5 -10h-78z
M506 470l5 10h78l-5 -10h-78zM122 470l-5 10h78l5 -10h-78zM123 0h-76l5 10h76zM582 0l-5 10h76l5 -10h-76zM110 495l-5 9h78l4 -9h-77zM519 495l4 9h77l-4 -9h-77zM97 521l-4 8h77l4 -8h-77zM85 546l-4 8h77l4 -8h-77zM73 571l-4 8h76l4 -8h-76zM532 521l4 8h76l-4 -8h-76z
M544 546l4 8h76l-4 -8h-76zM556 571l4 8h76l-4 -8h-76zM60 596l-3 7h76l4 -7h-77zM568 596l4 7h76l-4 -7h-76zM47 624h76l1 -2h-76zM582 624h76l-1 -2h-76z" />
    <glyph glyph-name="Y" unicode="Y" horiz-adv-x="695" 
d="M342 307l3 -4l3 4h90l-10 -14h-165l-10 14h89zM280 268l-10 14h151l-10 -14h-131zM297 242l-10 15h117l-10 -15h-97zM312 15v20h70v-20h-70zM312 40v19h70v-19h-70zM312 91v18h70v-18h-70zM312 66v18h70v-18h-70zM312 116v18h70v-18h-70zM312 141v17h70v-17h-70zM355 318
l9 13h90l-9 -13h-90zM246 318l-9 13h89l9 -13h-89zM312 192v16h70v-16h-70zM312 167v16h70v-16h-70zM382 225v-8h-70v3l-8 12h83zM373 344l9 12h89l-8 -12h-90zM391 369l8 12h89l-8 -12h-89zM408 394l9 12h88l-8 -12h-89zM229 344l-8 12h87l9 -12h-88zM212 369l-8 12h87
l8 -12h-87zM196 394l-8 12h86l8 -12h-86zM426 419l7 11h89l-8 -11h-88zM179 419l-7 11h86l7 -11h-86zM444 445l7 10h88l-7 -10h-88zM461 470l7 10h88l-7 -10h-88zM162 445l-7 10h86l7 -10h-86zM145 470l-6 10h85l7 -10h-86zM479 495l6 9h87l-6 -9h-87zM129 495l-6 9h85l6 -9
h-85zM312 0v10h70v-10h-70zM497 521l6 8h86l-6 -8h-86zM515 546l5 8h86l-6 -8h-85zM94 546l-5 8h85l5 -8h-85zM532 571l6 8h85l-6 -8h-85zM77 571l-5 8h85l5 -8h-85zM111 521l-5 8h85l5 -8h-85zM549 596l5 7h85l-5 -7h-85zM60 596l-4 7h84l5 -7h-85zM653 624l-2 -2h-84l2 2
h84zM42 624h84l1 -2h-84z" />
    <glyph glyph-name="Z" unicode="Z" horiz-adv-x="685" 
d="M78 15l15 20h524v-20h-539zM96 40l14 19h507v-19h-521zM67 0l7 10h543v-10h-550zM67 571v8h517l-6 -8h-511zM67 596v7h535l-5 -7h-530zM134 91l13 18h88l-14 -18h-87zM115 66l14 18h87l-13 -18h-88zM152 116l14 18h87l-13 -18h-88zM171 141l12 17h88l-13 -17h-87z
M190 167l12 16h87l-12 -16h-87zM208 192l12 16h88l-12 -16h-88zM227 217l11 15h87l-11 -15h-87zM245 242l12 15h87l-11 -15h-88zM265 268l10 14h87l-10 -14h-87zM284 293l10 14h87l-11 -14h-86zM302 318l10 13h86l-9 -13h-87zM618 624l-2 -2h-549v2h551zM322 344l9 12h86
l-9 -12h-86zM341 369l9 12h85l-9 -12h-85zM360 394l9 12h85l-9 -12h-85zM378 419l8 11h86l-8 -11h-86zM416 470l8 10h86l-8 -10h-86zM398 445l7 10h86l-8 -10h-85zM435 495l7 9h86l-7 -9h-86zM473 546l6 8h86l-6 -8h-86zM455 521l6 8h85l-6 -8h-85z" />
    <glyph glyph-name="bracketleft" unicode="[" horiz-adv-x="406" 
d="M70 -36v21h269v-21h-269zM70 -10v20h269v-20h-269zM140 26h199v-11h-269v20h70v-9zM70 647v6h269v-6h-269zM70 622v6h269v-6h-269zM339 598h-199v-2h-70v7h269v-5zM70 40v19h70v-19h-70zM70 116v18h70v-18h-70zM70 66v18h70v-18h-70zM70 91v18h70v-18h-70zM70 141v17h70
v-17h-70zM70 167v16h70v-16h-70zM70 192v16h70v-16h-70zM70 242v15h70v-15h-70zM70 217v15h70v-15h-70zM70 293v14h70v-14h-70zM70 268v14h70v-14h-70zM70 318v13h70v-13h-70zM70 369v12h70v-12h-70zM70 344v12h70v-12h-70zM70 394v12h70v-12h-70zM70 419v11h70v-11h-70z
M70 445v10h70v-10h-70zM70 470v10h70v-10h-70zM70 495v9h70v-9h-70zM70 546v8h70v-8h-70zM70 521v8h70v-8h-70zM70 571v8h70v-8h-70z" />
    <glyph glyph-name="backslash" unicode="\" horiz-adv-x="483" 
d="M353 15l-10 20h75l10 -20h-75zM340 40l-10 19h75l10 -19h-75zM301 116l-9 18h75l9 -18h-75zM314 91l-9 18h75l9 -18h-75zM327 66l-10 18h75l10 -18h-75zM288 141l-8 17h75l8 -17h-75zM263 192l-8 16h75l8 -16h-75zM275 167l-8 16h75l8 -16h-75zM238 242l-8 15h75l8 -15
h-75zM250 217l-7 15h75l7 -15h-75zM212 293l-7 14h75l7 -14h-75zM225 268l-7 14h75l7 -14h-75zM200 318l-7 13h75l7 -13h-75zM187 344l-6 12h75l6 -12h-75zM174 369l-6 12h75l6 -12h-75zM162 394l-6 12h75l6 -12h-75zM149 419l-5 11h75l5 -11h-75zM124 470l-5 10h75l5 -10
h-75zM361 0l-5 10h75l5 -10h-75zM136 445l-5 10h75l5 -10h-75zM111 495l-4 9h75l4 -9h-75zM86 546l-4 8h75l4 -8h-75zM73 571l-4 8h75l4 -8h-75zM98 521l-4 8h75l4 -8h-75zM61 596l-4 7h75l4 -7h-75zM47 624h75l1 -2h-75z" />
    <glyph glyph-name="bracketright" unicode="]" horiz-adv-x="406" 
d="M67 -36v21h269v-21h-269zM67 -10v20h269v-20h-269zM67 26h199v9h70v-20h-269v11zM67 622v6h269v-6h-269zM67 647v6h269v-6h-269zM266 598h-199v5h269v-7h-70v2zM266 40v19h70v-19h-70zM266 66v18h70v-18h-70zM266 91v18h70v-18h-70zM266 116v18h70v-18h-70zM266 141v17
h70v-17h-70zM266 192v16h70v-16h-70zM266 167v16h70v-16h-70zM266 217v15h70v-15h-70zM266 242v15h70v-15h-70zM266 293v14h70v-14h-70zM266 268v14h70v-14h-70zM266 318v13h70v-13h-70zM266 344v12h70v-12h-70zM266 394v12h70v-12h-70zM266 369v12h70v-12h-70zM266 419v11
h70v-11h-70zM266 470v10h70v-10h-70zM266 445v10h70v-10h-70zM266 495v9h70v-9h-70zM266 571v8h70v-8h-70zM266 546v8h70v-8h-70zM266 521v8h70v-8h-70z" />
    <glyph glyph-name="asciicircum" unicode="^" horiz-adv-x="741" 
d="M49 15l10 20h78l-10 -20h-78zM613 15l-9 20h77l10 -20h-78zM62 40l9 19h78l-9 -19h-78zM601 40l-9 19h76l10 -19h-77zM75 66l9 18h78l-9 -18h-78zM87 91l9 18h78l-9 -18h-78zM100 116l9 18h78l-9 -18h-78zM589 66l-9 18h75l10 -18h-76zM564 116l-9 18h75l9 -18h-75z
M577 91l-9 18h75l9 -18h-75zM112 141l9 17h78l-9 -17h-78zM552 141l-9 17h75l9 -17h-75zM125 167l8 16h78l-8 -16h-78zM138 192l8 16h78l-8 -16h-78zM526 192l-8 16h75l8 -16h-75zM539 167l-8 16h75l8 -16h-75zM150 217l8 15h78l-8 -15h-78zM163 242l7 15h78l-7 -15h-78z
M514 217l-8 15h75l8 -15h-75zM501 242l-7 15h75l7 -15h-75zM176 268l7 14h77l-7 -14h-77zM188 293l7 14h77l-6 -14h-78zM476 293l-7 14h75l7 -14h-75zM488 268l-7 14h75l7 -14h-75zM302 521l4 8h127l4 -8h-135zM201 318l6 13h77l-6 -13h-77zM463 318l-6 13h75l6 -13h-75z
M214 344l6 12h76l-6 -12h-76zM226 369l6 12h76l-6 -12h-76zM239 394l6 12h75l-6 -12h-75zM450 344l-6 12h75l6 -12h-75zM438 369l-6 12h75l6 -12h-75zM425 394l-6 12h75l6 -12h-75zM315 546l4 8h101l4 -8h-109zM251 419l6 11h75l-6 -11h-75zM413 419l-6 11h75l6 -11h-75z
M699 0h-78l-5 10h78zM120 0h-78l5 10h78zM387 470l-5 10h75l5 -10h-75zM400 445l-5 10h75l5 -10h-75zM264 445l5 10h75l-5 -10h-75zM277 470l5 10h74l-5 -10h-74zM375 495l-5 9h75l5 -9h-75zM289 495l5 9h73l-4 -9h-74zM327 571l4 8h77l4 -8h-85zM339 596l4 7h53l3 -7h-60z
M352 622l3 6h28l3 -6h-34zM364 647l3 6h4l3 -6h-10z" />
    <glyph glyph-name="underscore" unicode="_" horiz-adv-x="635" 
d="M62 15v20h511v-20h-511zM62 40v19h511v-19h-511zM62 0v10h511v-10h-511z" />
    <glyph glyph-name="grave" unicode="`" horiz-adv-x="176" 
d="M11 748l-5 4h111l4 -4h-110zM38 723l-4 4h109l4 -4h-109zM67 697l-6 5h71l-6 -5h-59zM22 773l3 3h68l3 -3h-74zM94 672l-6 5h14l-6 -5h-2zM52 799l3 2h13l2 -2h-18z" />
    <glyph glyph-name="a" unicode="a" horiz-adv-x="741" 
d="M262 15l14 20h406l9 -20h-429zM279 40l13 19h378l9 -19h-400zM699 0h-447l7 10h435zM49 15l10 20h78l-10 -20h-78zM62 40l9 19h78l-9 -19h-78zM587 66l-8 18h79l9 -18h-80zM575 91l-8 18h79l9 -18h-80zM563 116l-8 18h78l9 -18h-79zM75 66l9 18h78l-9 -18h-78zM87 91
l9 18h78l-9 -18h-78zM100 116l9 18h78l-9 -18h-78zM551 141l-8 17h78l9 -17h-79zM112 141l9 17h78l-9 -17h-78zM125 167l8 16h78l-8 -16h-78zM138 192l8 16h78l-8 -16h-78zM539 167l-8 16h78l8 -16h-78zM527 192l-8 16h77l8 -16h-77zM163 242l7 15h78l-7 -15h-78zM150 217
l8 15h78l-8 -15h-78zM515 217l-7 15h76l8 -15h-77zM503 242l-7 15h76l7 -15h-76zM176 268l7 14h78l-7 -14h-78zM188 293l7 14h78l-7 -14h-78zM302 521l4 8h130l4 -8h-138zM490 268l-6 14h75l7 -14h-76zM478 293l-6 14h75l7 -14h-76zM201 318l6 13h78l-6 -13h-78zM466 318
l-6 13h75l6 -13h-75zM214 344l6 12h78l-6 -12h-78zM226 369l6 12h78l-6 -12h-78zM239 394l6 12h78l-6 -12h-78zM441 369l-6 12h75l6 -12h-75zM453 344l-6 12h75l6 -12h-75zM428 394l-6 12h75l6 -12h-75zM315 546l4 8h104l4 -8h-112zM251 419l6 11h78l-6 -11h-78zM416 419
l-6 11h75l6 -11h-75zM42 0l5 10h78l-5 -10h-78zM264 445l5 10h78l-5 -10h-78zM277 470l5 10h77l-5 -10h-77zM403 445l-5 10h75l5 -10h-75zM390 470l-5 10h75l5 -10h-75zM289 495l5 9h76l-4 -9h-77zM378 495l-5 9h75l5 -9h-75zM327 571l4 8h80l4 -8h-88zM340 596l4 7h55l3 -7
h-62zM354 622l3 6h29l3 -6h-35zM367 647l3 6h4l3 -6h-10z" />
    <glyph glyph-name="b" unicode="b" horiz-adv-x="681" 
d="M578 59c-3.33301 -3.33301 -6.33301 -6.5 -9 -9.5s-5.66699 -6.16699 -9 -9.5h-490v19h508zM555 35c-5.33301 -4.66699 -10.333 -8.5 -15 -11.5s-9.66699 -5.83301 -15 -8.5h-455v20h485zM70 0l-0.000976562 10h444c-13.333 -6.66699 -29.666 -10 -48.999 -10h-395z
M564.999 579l8 -8h-503v8h495zM535.999 603c1.33301 -1.33301 2.83301 -2.5 4.5 -3.5s3.5 -2.16699 5.5 -3.5h-476v7h466zM560.999 307c2 -2.66699 4 -5 6 -7s4 -4.33301 6 -7h-211v14h199zM576.999 331c-2 -2.66699 -4 -5 -6 -7s-3.66699 -4 -5 -6h-204v13h215zM593.999 84
c-2 -3.33301 -4 -6.33301 -6 -9s-4 -5.66699 -6 -9h-107c12 3.33301 22.333 9.33301 31 18h88zM604.999 109c-1.33301 -3.33301 -2.66699 -6.33301 -4 -9s-2.66602 -5.66699 -3.99902 -9h-84l6.5 8.5c2.33301 3 4.16602 6.16699 5.49902 9.5h80zM580.998 282l5.5 -7.5
l4.5 -6.5h-89c-2.66699 2 -5.16699 4.16699 -7.5 6.5s-4.83301 4.5 -7.5 6.5h-125v1h219zM612.998 134c-1.33301 -3.33301 -2.16602 -6.33301 -2.49902 -9s-1.16602 -5.66699 -2.49902 -9h-79c1.33301 3.33301 2.66602 6.33301 3.99902 9s2.66602 5.66699 3.99902 9h76z
M616.998 158c0 -3.33301 -0.333984 -6.33301 -1.00098 -9l-2 -8h-75l2 8c0.666992 2.66699 1.33398 5.66699 2.00098 9h74zM69.9971 66v18h70v-18h-70zM69.9971 91v18h70v-18h-70zM69.9971 116v18h70v-18h-70zM597.997 257c1.33301 -2.66699 2.66797 -5.16699 4.00098 -7.5
s2.66602 -4.83301 3.99902 -7.5h-82l-12 15h86zM616.999 208c0.666992 -2 1.00098 -4.99902 1.00098 -8.99902c0 -2.66699 0.333008 -5 1 -7h-75c0 2.66699 -0.333008 5.16699 -1 7.5s-1.33398 5.16602 -2.00098 8.49902h76zM70 141.001v17h70v-17h-70zM619 183.001
c0 -8.66699 -0.333008 -14.002 -1 -16.002h-74c0 2.66699 0.166992 5.33398 0.5 8.00098s0.5 5.33398 0.5 8.00098h74zM610 231.999c0.666992 -1.33301 1.33008 -3.33301 1.99707 -6s1.33398 -5.66699 2.00098 -9h-76c-1.33301 2.66699 -2.66602 5.16699 -3.99902 7.5
s-2.66602 4.83301 -3.99902 7.5h80zM487.996 343.999c2.66699 1.33301 5.00098 3 7.00098 5l7 7h92c-0.666992 -2 -3.33398 -6 -8.00098 -12h-98zM69.9971 191.999v16h70v-16h-70zM69.9971 166.999v16h70v-16h-70zM69.9971 216.999v15h70v-15h-70zM69.9971 241.999v15h70
v-15h-70zM606.997 380.999l-6 -12h-87l9 12h84zM69.9971 292.999v14h70v-14h-70zM69.9971 267.999v14h70v-14h-70zM614.997 405.999l-3 -12h-81l6 12h78zM69.9971 317.999v13h70v-13h-70zM69.9971 343.999v12h70v-12h-70zM69.9971 393.999v12h70v-12h-70zM69.9971 368.999
v12h70v-12h-70zM541.997 418.999c0.666992 0.666992 1 2.33301 1 5s0.333008 4.66699 1 6h75c0 -2 -0.666992 -5.66699 -2 -11h-75zM464.997 623.998c3.33301 0 6.83301 -0.166992 10.5 -0.5s7.16699 -0.833008 10.5 -1.5h-416v2h395zM584.997 553.998
c2 -2.66699 3.66699 -5.33105 5 -7.99805h-93c-2.66699 1.33301 -5 2.66602 -7 3.99902s-4.33301 2.66602 -7 3.99902h102zM69.9971 419.001v11h70v-11h-70zM614.997 480.001c0.666992 -1.33301 1 -3.33301 1 -6c0 -2 0.333008 -3.33301 1 -4h-75
c-0.666992 2.66699 -1.66699 6 -3 10h76zM617.997 455.001c0 -2 0.166992 -3.83301 0.5 -5.5s0.5 -3.16699 0.5 -4.5h-74c0 4.66699 -0.333008 8 -1 10h74zM533.997 495.001c-0.666992 1.33301 -1.33203 2.83301 -1.99902 4.5s-1.33398 3.16699 -2.00098 4.5h79l3 -9h-78z
M69.999 445.001v10h70v-10h-70zM69.999 470.001v10h70v-10h-70zM598.999 529.001l2 -3.99805l2 -4h-82c-1.33301 1.33301 -2.5 2.66602 -3.5 3.99902s-2.16699 2.66602 -3.5 3.99902h85zM69.999 495.003v9h70v-9h-70zM69.999 521.003v8h70v-8h-70zM69.999 546.003v8h70v-8
h-70z" />
    <glyph glyph-name="c" unicode="c" horiz-adv-x="724" 
d="M214 40l-14.998 9.5c-4.66699 3 -9.33398 6.16699 -14.001 9.5h379c-4.66699 -3.33301 -9.33398 -6.5 -14.001 -9.5l-15 -9.5h-321zM268.002 15l-22.5 8.5c-7.66699 3 -15.167 6.83301 -22.5 11.5h304c-8.66699 -4.66699 -16.667 -8.5 -24 -11.5l-21 -8.5h-214z
M541.002 579c6 -4.66699 10 -7.33301 12 -8h-360l6 4l6 4h336zM176.002 66.001c-3.33301 3.33301 -6.83203 6.33301 -10.499 9s-7.16699 5.66699 -10.5 9h122c21.333 -9.33301 43.666 -15.333 66.999 -18h-168zM594.003 84.001
c-7.33301 -7.33301 -14.332 -13.333 -20.999 -18h-168c23.333 2.66699 45.666 8.66699 66.999 18h122zM148.004 91.001c-3.33301 2.66699 -6.16699 5.5 -8.5 8.5l-7.5 9.5h101c8.66699 -7.33301 18.667 -13.333 30 -18h-115zM617.003 109.001
c-2.66699 -3.33301 -5.33203 -6.33301 -7.99902 -9s-5.33398 -5.66699 -8.00098 -9h-113c10.667 4.66699 20.667 10.667 30 18h99zM494.005 603.001c2.66699 -1.33301 5.16699 -2.5 7.5 -3.5l8.5 -3.5h-273c2.66699 1.33301 5.16699 2.5 7.5 3.5s4.83301 2.16699 7.5 3.5
h242zM126.005 116.001c-4 4 -8.33203 10 -12.999 18h89c3.33301 -3.33301 6.66602 -6.5 9.99902 -9.5s7 -5.83301 11 -8.5h-97zM636.006 134.001c-2 -3.33301 -4.16699 -6.33301 -6.5 -9s-4.5 -5.66699 -6.5 -9h-95c6.66699 4.66699 13.667 10.667 21 18h87z
M374.006 -2.99902c-34 0 -63.999 4.33301 -89.999 13h182c-26.667 -8.66699 -57.334 -13 -92.001 -13zM108.007 141.001c-3.33301 4 -7 9.66699 -11 17h83c2 -3.33301 4.33301 -6.33301 7 -9l8 -8h-87zM92.0068 167.001c-1.33301 2.66699 -2.5 5.16602 -3.5 7.49902
l-3.5 8.5h77c1.33301 -3.33301 3 -6.16602 5 -8.49902s4 -4.83301 6 -7.5h-81zM643.007 144c-1.33301 -1.33301 -1.99902 -2.33398 -1.99902 -3.00098h-85c3.33301 2.66699 6.16602 5.33398 8.49902 8.00098l7.5 9h57zM81.0078 191.999
c-1.33301 2.66699 -2.50098 5.16699 -3.50098 7.5l-3.5 8.5h74c2.66699 -6 5.33398 -11.333 8.00098 -16h-75zM322.007 553.999c-5.33301 -1.33301 -10.167 -2.66797 -14.5 -4.00098l-13.5 -4h-132c1.33301 0.666992 4.33301 3.33398 9 8.00098h151zM455.006 545.997
c-5.33301 1.33301 -10.333 2.66895 -15 4.00195s-9 2.66602 -13 3.99902h148c4.66699 -4.66699 7.66699 -7.33398 9 -8.00098h-129zM72.0059 217c-1.33301 2.66699 -2.16797 5.16699 -2.50098 7.5s-1.16602 4.83301 -2.49902 7.5h71l6 -15h-72zM130.004 257
c0.666992 -2.66699 1.33203 -5.16699 1.99902 -7.5s1.33398 -4.83301 2.00098 -7.5h-69l-3 15h68zM60.002 268c-0.666992 1.33301 -1 3.33398 -1 6.00098c0 3.33301 -0.333008 6 -1 8h68c0 -2.66699 0.666992 -7.33398 2 -14.001h-68zM57.002 293.001v14h67
c0 -7.33301 0.333008 -12 1 -14h-68zM125.002 331.001c-0.666992 -2 -1 -6.33301 -1 -13h-67v13h68zM256.002 529.001c-2 -1.33301 -4.16699 -2.66797 -6.5 -4.00098s-4.5 -2.66602 -6.5 -3.99902h-106c4 4 6.33301 6.66699 7 8h112zM144.002 405.999
c-1.33301 -2 -2.16797 -4 -2.50098 -6s-1.16602 -4 -2.49902 -6h-71l3 12h73zM193 479.999c-1.33301 -2 -4.33301 -5.33301 -9 -10h-84c3.33301 4 5.33301 7.33301 6 10h87zM116 494.999c4 5.33301 6.33301 8.33301 7 9h96c-1.33301 -1.33301 -3 -2.83301 -5 -4.5
s-3.66699 -3.16699 -5 -4.5h-93zM506 520.999c-2.66699 1.33301 -5 2.66797 -7 4.00098s-4.33301 2.66602 -7 3.99902h110c0.666992 -1.33301 3 -4 7 -8h-103zM641 480.001c0.666992 -2.66699 2.66699 -6 6 -10h-83c-1.33301 1.33301 -2.83301 3 -4.5 5
s-3.16699 3.66699 -4.5 5h86zM135 381.001l-2 -6l-2 -6h-69c0 1.33301 0.666992 5.33301 2 12h71zM75 419.001c1.33301 1.33301 2.16797 3.00098 2.50098 5.00098s1.16602 4 2.49902 6h76c-1.33301 -2.66699 -2.5 -4.83398 -3.5 -6.50098s-1.83301 -3.16699 -2.5 -4.5h-75z
M540.002 495.002c-1.33301 1.33301 -3 2.83301 -5 4.5s-3.66699 3.16699 -5 4.5h94l6 -9h-90zM58.002 344.002c0.666992 1.33301 1 3.33301 1 6s0.333008 4.66699 1 6h68c-0.666992 -1.33301 -1 -3.33301 -1 -6s-0.333008 -4.66699 -1 -6h-68zM172.002 455.002
c-2 -4 -4.33496 -7.33301 -7.00195 -10h-78c0.666992 1.33301 1.33398 2.83301 2.00098 4.5s1.33398 3.5 2.00098 5.5h81zM584 445.002c-1.33301 1.33301 -2.5 2.83301 -3.5 4.5s-2.16699 3.5 -3.5 5.5h78c2 -2.66699 3.66699 -6 5 -10h-76zM578 167.002
c2 2.66699 4 5.16797 6 7.50098s3.66699 5.16602 5 8.49902h16l15 -16h-42zM599 419.003c-0.666992 1.33301 -1.5 2.83203 -2.5 4.49902s-2.16699 3.83398 -3.5 6.50098h50l-17 -11h-27zM374 627.002c9.33301 0 18.6689 -0.5 28.002 -1.5s18.666 -2.16699 27.999 -3.5h-113
c9.33301 1.33301 18.666 2.5 27.999 3.5s19 1.5 29 1.5zM594.003 192.002c0.666992 0 1 0.333008 1 1l1 -1h-2z" />
    <glyph glyph-name="d" unicode="d" horiz-adv-x="704" 
d="M511 59l-15 -9.5l-15 -9.5h-411v19h441zM471 35c-8 -4.66699 -16 -8.5 -24 -11.5l-23 -8.5h-354v20h401zM494 579l6 -4l6 -4h-436v8h424zM70 0v10h337c-22.667 -6.66699 -47.667 -10 -75 -10h-262zM445 603c2.66699 -1.33301 5.33203 -2.5 7.99902 -3.5
s5.33398 -2.16699 8.00098 -3.5h-391v7h375zM357.998 66c22 3.33301 43.333 9.33301 64 18h120c-7.33301 -7.33301 -14.333 -13.333 -21 -18h-163zM436.998 91c10 4.66699 20.001 10.667 30.001 18h100c-2.66699 -3.33301 -5.33398 -6.33301 -8.00098 -9l-9 -9h-113z
M476.999 116l11 8.5c4 3 7.66699 6.16699 11 9.5h89l-15 -18h-96zM505.999 141l7.99902 8c2.66699 2.66699 5.33398 5.66699 8.00098 9h82l-11 -17h-87zM69.998 66v18h70v-18h-70zM69.998 91v18h70v-18h-70zM69.998 116v18h70v-18h-70zM528.998 167
c2 2.66699 4.00098 5.16797 6.00098 7.50098s4 5.16602 6 8.49902h76c-2.66699 -6 -5.33398 -11.333 -8.00098 -16h-80zM69.999 141.001v17h70v-17h-70zM545.999 192.001c1.33301 2.66699 2.83301 5.16699 4.5 7.5s3.16699 5.16602 4.5 8.49902h73
c-2 -7.33301 -4.33301 -12.666 -7 -15.999h-75zM406.999 546.001l-14 4.00195c-4.66699 1.33301 -9.66699 2.66602 -15 3.99902h152c4.66699 -4.66699 7.66699 -7.33398 9 -8.00098h-132zM69.999 192.003v16h70v-16h-70zM69.999 167.003v16h70v-16h-70zM635.999 232.003
c-1.33301 -2.66699 -2.16797 -5.16699 -2.50098 -7.5s-1.16602 -4.83301 -2.49902 -7.5h-71l6 15h70zM69.9971 242.003v15h70v-15h-70zM69.9971 217.003v15h70v-15h-70zM569.997 242.003c0.666992 2.66699 1.33398 5.16699 2.00098 7.5s1.33398 4.83301 2.00098 7.5h68
c-0.666992 -2.66699 -1.33398 -5.16699 -2.00098 -7.5s-1.33398 -4.83301 -2.00098 -7.5h-68zM69.9971 293.003v14h70v-14h-70zM69.9971 268.003v14h70v-14h-70zM576.997 268.003c1.33301 6.66699 2 11.333 2 14h66c0 -2.66699 -0.166992 -5.16699 -0.5 -7.5
s-0.5 -4.5 -0.5 -6.5h-67zM579.997 293.002c0.666992 2 1 6.66699 1 14h66c0 -7.33301 -0.333008 -12 -1 -14h-66zM69.9971 318.002v13h70v-13h-70zM556.997 529.002l8 -7.99805h-105c-2 1.33301 -4.16699 2.66602 -6.5 3.99902s-4.83301 2.66602 -7.5 3.99902h111z
M580.997 318.004c0 2 -0.166992 4 -0.5 6s-0.5 4.33301 -0.5 7h66v-13h-65zM564.997 394.004c-1.33301 2 -2.16797 4 -2.50098 6s-1.16602 4 -2.49902 6h72l3 -12h-70zM518.995 470.004c-1.33301 1.33301 -2.83301 3 -4.5 5s-3.16699 3.66699 -4.5 5h86
c1.33301 -2 2.5 -3.83301 3.5 -5.5s2.16699 -3.16699 3.5 -4.5h-84zM69.9951 344.004v12h70v-12h-70zM69.9951 394.004v12h70v-12h-70zM69.9951 369.004v12h70v-12h-70zM494.995 495.004c-2 1.33301 -3.83301 2.83203 -5.5 4.49902s-3.5 3.16699 -5.5 4.5h95
c1.33301 -1.33301 2.5 -2.66602 3.5 -3.99902s2.16699 -3 3.5 -5h-91zM572.995 369.003c-0.666992 2.66699 -1.33203 5 -1.99902 7s-1.33398 3.66699 -2.00098 5h70c0.666992 -1.33301 1 -3.33301 1 -6s0.333008 -4.66699 1 -6h-68zM552.997 419.003
c-0.666992 1.33301 -1.50098 2.83203 -2.50098 4.49902s-2.16699 3.83398 -3.5 6.50098h76l2 -6c0.666992 -2 1.33398 -3.66699 2.00098 -5h-74zM642.996 356.002c0.666992 -1.33301 1 -3.33301 1 -6s0.333008 -4.66699 1 -6h-67c-0.666992 1.33301 -1 3.33301 -1 6
s-0.333008 4.66699 -1 6h67zM537.996 445.002c-2 2.66699 -4.33105 6 -6.99805 10h80c1.33301 -1.33301 2.16602 -3 2.49902 -5s1.16602 -3.66699 2.49902 -5h-78zM69.998 419.002v11h70v-11h-70zM69.998 445.002v10h70v-10h-70zM69.998 470.002v10h70v-10h-70z
M69.998 495.002v9h70v-9h-70zM329.998 624.002c5.33301 0 11 -0.166992 17 -0.5s11.667 -0.833008 17 -1.5h-294v2h260zM69.998 546.002v8h70v-8h-70zM69.998 521.002v8h70v-8h-70z" />
    <glyph glyph-name="e" unicode="e" horiz-adv-x="615" 
d="M70 15v20h475v-20h-475zM70 40v19h475v-19h-475zM70 0v10h475v-10h-475zM238 268v14h299v-14h-299zM238 293v14h299v-14h-299zM70 571v8h475v-8h-475zM70 596v7h475v-7h-475zM537 326v-8h-299v8h299zM70 66v18h70v-18h-70zM70 91v18h70v-18h-70zM70 116v18h70v-18h-70z
M70 141v17h70v-17h-70zM70 192v16h70v-16h-70zM70 167v16h70v-16h-70zM70 217v15h70v-15h-70zM70 242v15h70v-15h-70zM70 293v14h70v-14h-70zM70 268v14h70v-14h-70zM70 622v2h475v-2h-475zM70 318v13h70v-13h-70zM70 344v12h70v-12h-70zM70 394v12h70v-12h-70zM70 369v12
h70v-12h-70zM70 419v11h70v-11h-70zM70 470v10h70v-10h-70zM70 445v10h70v-10h-70zM70 495v9h70v-9h-70zM70 521v8h70v-8h-70zM70 546v8h70v-8h-70z" />
    <glyph glyph-name="f" unicode="f" horiz-adv-x="615" 
d="M236 268v14h301v-14h-301zM236 293v14h301v-14h-301zM70 571v8h475v-8h-475zM70 596v7h475v-7h-475zM537 326v-8h-301v8h301zM70 15v20h70v-20h-70zM70 40v19h70v-19h-70zM70 66v18h70v-18h-70zM70 91v18h70v-18h-70zM70 116v18h70v-18h-70zM70 141v17h70v-17h-70z
M70 167v16h70v-16h-70zM70 192v16h70v-16h-70zM70 217v15h70v-15h-70zM70 242v15h70v-15h-70zM70 293v14h70v-14h-70zM70 268v14h70v-14h-70zM70 622v2h475v-2h-475zM70 318v13h70v-13h-70zM70 344v12h70v-12h-70zM70 394v12h70v-12h-70zM70 369v12h70v-12h-70zM70 419v11
h70v-11h-70zM70 0v10h70v-10h-70zM70 470v10h70v-10h-70zM70 445v10h70v-10h-70zM70 495v9h70v-9h-70zM70 546v8h70v-8h-70zM70 521v8h70v-8h-70z" />
    <glyph glyph-name="g" unicode="g" horiz-adv-x="724" 
d="M564 59c-4.66699 -3.33301 -9.33203 -6.5 -13.999 -9.5l-15 -9.5h-321l-15 9.5c-4.66699 3 -9.33398 6.16699 -14.001 9.5h379zM527.002 35c-8.66699 -4.66699 -16.667 -8.5 -24 -11.5l-21 -8.5h-214l-22.5 8.5c-7.66699 3 -15.167 6.83301 -22.5 11.5h304zM341.002 268
v14h299v-14h-299zM341.002 293v14h299v-14h-299zM193.002 571l6 4.00098l6 4h336c6 -4.66699 10 -7.33398 12 -8.00098h-360zM277.002 84.001c21.333 -9.33301 43.667 -15.333 67 -18h-168c-3.33301 3.33301 -6.83301 6.33301 -10.5 9s-7.16699 5.66699 -10.5 9h122z
M405.003 66.001c23.333 2.66699 45.667 8.66699 67 18h122c-7.33301 -7.33301 -14.333 -13.333 -21 -18h-168zM640.004 326.001v-8h-299v8h299zM233.004 109.001c8.66699 -7.33301 18.666 -13.333 29.999 -18h-115c-3.33301 2.66699 -6.16602 5.5 -8.49902 8.5l-7.5 9.5h101
zM488.003 91.001c10.667 4.66699 20.6689 10.667 30.002 18h99c-2.66699 -3.33301 -5.33398 -6.33301 -8.00098 -9s-5.33398 -5.66699 -8.00098 -9h-113zM237.005 596.001c2.66699 1.33301 5.16699 2.5 7.5 3.5s4.83301 2.16699 7.5 3.5h242
c2.66699 -1.33301 5.16699 -2.5 7.5 -3.5l8.5 -3.5h-273zM202.005 134.001c3.33301 -3.33301 6.66699 -6.5 10 -9.5s7 -5.83301 11 -8.5h-97c-4 4 -8.33301 10 -13 18h89zM528.006 116.001c6.66699 4.66699 13.667 10.667 21 18h87c-2 -3.33301 -4.16699 -6.33301 -6.5 -9
s-4.5 -5.66699 -6.5 -9h-95zM466.006 10.001c-26.667 -8.66699 -57.333 -13 -92 -13c-34 0 -64 4.33301 -90 13h182zM180.007 158.001c2 -3.33301 4.33301 -6.33301 7 -9l8 -8h-87c-3.33301 4 -7 9.66699 -11 17h83zM162.007 183.001c1.33301 -3.33301 3 -6.16699 5 -8.5
s4 -4.83301 6 -7.5h-81c-1.33301 2.66699 -2.5 5.16699 -3.5 7.5l-3.5 8.5h77zM556.007 141c3.33301 2.66699 6.16699 5.33301 8.5 8l7.5 9h57l14 -14c-1.33301 -1.33301 -2 -2.33301 -2 -3h-85zM81.0078 191.999c-1.33301 2.66699 -2.50098 5.16699 -3.50098 7.5l-3.5 8.5
h74c2.66699 -6 5.33398 -11.333 8.00098 -16h-75zM162.007 545.999c1.33301 0.666992 4.33203 3.33203 8.99902 7.99902h151c-5.33301 -1.33301 -10.166 -2.66602 -14.499 -3.99902l-13.5 -4h-132zM455.006 545.997c-5.33301 1.33301 -10.333 2.66895 -15 4.00195
s-9 2.66602 -13 3.99902h148c4.66699 -4.66699 7.66699 -7.33398 9 -8.00098h-129zM72.0059 217c-1.33301 2.66699 -2.16797 5.16699 -2.50098 7.5s-1.16602 4.83301 -2.49902 7.5h71l6 -15h-72zM130.004 257c0.666992 -2.66699 1.33203 -5.16699 1.99902 -7.5
s1.33398 -4.83301 2.00098 -7.5h-69l-3 15h68zM126.002 282c0 -2.66699 0.666992 -7.33301 2 -14h-68c-0.666992 1.33301 -1 3.33301 -1 6c0 3.33301 -0.333008 6 -1 8h68zM57.002 293.001v14h67c0 -7.33301 0.333008 -12 1 -14h-68zM57.002 318.001v13h68
c-0.666992 -2 -1 -6.33301 -1 -13h-67zM137.002 521.001c4 4 6.33301 6.66504 7 7.99805h112c-2 -1.33301 -4.16699 -2.66602 -6.5 -3.99902s-4.5 -2.66602 -6.5 -3.99902h-106zM68.002 393.999l2.99805 12h73c-1.33301 -2 -2.16602 -4 -2.49902 -6s-1.16602 -4 -2.49902 -6
h-71zM100 469.999c3.33301 4 5.33301 7.33301 6 10h87c-1.33301 -2 -4.33301 -5.33301 -9 -10h-84zM116 494.999c4 5.33301 6.33301 8.33301 7 9h96c-1.33301 -1.33301 -3 -2.83301 -5 -4.5s-3.66699 -3.16699 -5 -4.5h-93zM506 520.999
c-2.66699 1.33301 -5 2.66797 -7 4.00098s-4.33301 2.66602 -7 3.99902h110c0.666992 -1.33301 3 -4 7 -8h-103zM641 480.001c0.666992 -2.66699 2.66699 -6 6 -10h-83c-1.33301 1.33301 -2.83301 3 -4.5 5s-3.16699 3.66699 -4.5 5h86zM135 381.001l-2 -6l-2 -6h-69
c0 1.33301 0.666992 5.33301 2 12h71zM75 419.001c1.33301 1.33301 2.16797 3.00098 2.50098 5.00098s1.16602 4 2.49902 6h76c-1.33301 -2.66699 -2.5 -4.83398 -3.5 -6.50098s-1.83301 -3.16699 -2.5 -4.5h-75zM624.002 504.002l6 -9h-90
c-1.33301 1.33301 -3 2.83301 -5 4.5s-3.66699 3.16699 -5 4.5h94zM58.002 344.002c0.666992 1.33301 1 3.33301 1 6s0.333008 4.66699 1 6h68c-0.666992 -1.33301 -1 -3.33301 -1 -6s-0.333008 -4.66699 -1 -6h-68zM87.002 445.002
c0.666992 1.33301 1.33203 2.83301 1.99902 4.5s1.33398 3.5 2.00098 5.5h81c-2 -4 -4.33301 -7.33301 -7 -10h-78zM584 445.002c-1.33301 1.33301 -2.5 2.83301 -3.5 4.5s-2.16699 3.5 -3.5 5.5h78c2 -2.66699 3.66699 -6 5 -10h-76zM578 167.002
c2 2.66699 4 5.16797 6 7.50098s3.66699 5.16602 5 8.49902h16l15 -16h-42zM599 419.003c-0.666992 1.33301 -1.5 2.83203 -2.5 4.49902s-2.16699 3.83398 -3.5 6.50098h50l-17 -11h-27zM317 622.002c9.33301 1.33301 18.6689 2.5 28.002 3.5s19 1.5 29 1.5
c9.33301 0 18.666 -0.5 27.999 -1.5s18.666 -2.16699 27.999 -3.5h-113zM594.003 192.002c0.666992 0 1 0.333008 1 1l1 -1h-2z" />
    <glyph glyph-name="h" unicode="h" horiz-adv-x="717" 
d="M232 268v14h415v-14h-415zM232 293v14h415v-14h-415zM232 326h345v5h70v-13h-415v8zM70 15v20h70v-20h-70zM577 15v20h70v-20h-70zM70 40v19h70v-19h-70zM577 40v19h70v-19h-70zM577 66v18h70v-18h-70zM577 91v18h70v-18h-70zM577 116v18h70v-18h-70zM70 66v18h70v-18
h-70zM70 91v18h70v-18h-70zM70 116v18h70v-18h-70zM70 141v17h70v-17h-70zM577 141v17h70v-17h-70zM577 167v16h70v-16h-70zM577 192v16h70v-16h-70zM70 167v16h70v-16h-70zM70 192v16h70v-16h-70zM577 217v15h70v-15h-70zM70 217v15h70v-15h-70zM70 242v15h70v-15h-70z
M577 242v15h70v-15h-70zM70 268v14h70v-14h-70zM70 293v14h70v-14h-70zM70 318v13h70v-13h-70zM577 344v12h70v-12h-70zM577 369v12h70v-12h-70zM577 394v12h70v-12h-70zM70 394v12h70v-12h-70zM70 344v12h70v-12h-70zM70 369v12h70v-12h-70zM70 419v11h70v-11h-70zM577 419
v11h70v-11h-70zM577 445v10h70v-10h-70zM70 0v10h70v-10h-70zM70 445v10h70v-10h-70zM70 470v10h70v-10h-70zM577 0v10h70v-10h-70zM577 470v10h70v-10h-70zM70 495v9h70v-9h-70zM577 495v9h70v-9h-70zM577 546v8h70v-8h-70zM577 521v8h70v-8h-70zM577 571v8h70v-8h-70z
M70 546v8h70v-8h-70zM70 571v8h70v-8h-70zM70 521v8h70v-8h-70zM70 596v7h70v-7h-70zM577 596v7h70v-7h-70zM140 624v-2h-70v2h70zM647 624v-2h-70v2h70z" />
    <glyph glyph-name="i" unicode="i" horiz-adv-x="211" 
d="M70 15v20h71v-20h-71zM70 40v19h71v-19h-71zM70 66v18h71v-18h-71zM70 91v18h71v-18h-71zM70 116v18h71v-18h-71zM70 141v17h71v-17h-71zM70 167v16h71v-16h-71zM70 192v16h71v-16h-71zM70 217v15h71v-15h-71zM70 242v15h71v-15h-71zM70 268v14h71v-14h-71zM70 293v14h71
v-14h-71zM70 318v13h71v-13h-71zM70 344v12h71v-12h-71zM70 369v12h71v-12h-71zM70 394v12h71v-12h-71zM70 419v11h71v-11h-71zM70 445v10h71v-10h-71zM70 470v10h71v-10h-71zM70 0v10h71v-10h-71zM70 495v9h71v-9h-71zM70 521v8h71v-8h-71zM70 546v8h71v-8h-71zM70 571v8
h71v-8h-71zM70 596v7h71v-7h-71zM70 622v2h71v-2h-71z" />
    <glyph glyph-name="j" unicode="j" horiz-adv-x="718" 
d="M520 59c-7.33301 -6.66699 -16.666 -13 -27.999 -19h-323l-15 9.5c-4.66699 3 -9.33398 6.16699 -14.001 9.5h380zM483 35c-7.33301 -4 -14.833 -7.66699 -22.5 -11s-15.5 -6.33301 -23.5 -9h-213c-8 2.66699 -15.833 5.66699 -23.5 9s-15.167 7 -22.5 11h305zM230 84
c20 -8.66699 40.665 -14.667 61.998 -18h-161c-3.33301 2.66699 -6.66602 5.5 -9.99902 8.5s-6.66602 6.16699 -9.99902 9.5h119zM367.998 66c21.333 3.33301 42.001 9.33301 62.001 18h120c-4.66699 -6.66699 -11.334 -12.667 -20.001 -18h-162zM186.999 109
c4.66699 -3.33301 9.33105 -6.5 13.998 -9.5s9.66699 -5.83301 15 -8.5h-113c-3.33301 3.33301 -6.16602 6.33301 -8.49902 9s-5.16602 5.66699 -8.49902 9h101zM573.996 109l-7.50195 -9c-2.33301 -2.66699 -5.16602 -5.66699 -8.49902 -9h-113
c5.33301 2.66699 10.333 5.5 15 8.5s9.33398 6.16699 14.001 9.5h100zM156.994 134c4.66699 -6.66699 11.333 -12.667 20 -18h-96l-7 9l-7 9h90zM592.993 134c-2 -3.33301 -4.16699 -6.33301 -6.5 -9s-4.5 -5.66699 -6.5 -9h-97c8 4.66699 15 10.667 21 18h89zM330.993 -3
c-16 0 -31.832 1 -47.499 3s-30.834 5.33301 -45.501 10h183c-26.667 -8.66699 -56.667 -13 -90 -13zM607.994 158c-1.33301 -3.33301 -3 -6.33301 -5 -9s-3.66699 -5.33398 -5 -8.00098h-87c2.66699 2.66699 5.16699 5.33398 7.5 8.00098l7.5 9h82zM134.994 158
l7.49805 -8.99902c2.33301 -2.66699 4.83301 -5.33398 7.5 -8.00098h-88c-1.33301 1.33301 -2.16602 2.83301 -2.49902 4.5s-1.16602 3.16699 -2.49902 4.5l8 8h70zM532.992 167.001c1.33301 2.66699 3 5.16699 5 7.5s3.66699 5.16602 5 8.49902h77
c-2 -7.33301 -4.33301 -12.666 -7 -15.999h-80zM630.992 208.001l-3.50098 -8.5c-1 -2.33301 -2.16699 -4.83301 -3.5 -7.5h-75c2.66699 4.66699 5.33398 10 8.00098 16h74zM560.991 217.001l6.00195 15h71c-0.666992 -2.66699 -1.33398 -5.16699 -2.00098 -7.5
s-1.33398 -4.83301 -2.00098 -7.5h-73zM569.993 242.001c0.666992 2.66699 1.33203 5.16699 1.99902 7.5s1.33398 4.83301 2.00098 7.5h69l-3 -15h-70zM647.991 307.001c0 -7.33301 -0.333008 -12 -1 -14h-69v14h70zM645.991 282.001
c0 -2.66699 -0.166992 -5.16797 -0.5 -7.50098s-0.5 -4.5 -0.5 -6.5h-69c0 0.666992 0.666992 4.33398 2 11.001v3h68zM577.991 318v13h70v-13h-70zM577.991 394v12h70v-12h-70zM577.991 344v12h70v-12h-70zM577.991 369v12h70v-12h-70zM577.991 419v11h70v-11h-70z
M577.991 470v10h70v-10h-70zM577.991 445v10h70v-10h-70zM577.991 495v9h70v-9h-70zM116.991 183c2 -3.33301 3.83301 -6.16699 5.5 -8.5l5.5 -7.5h-53l18 16h24zM577.991 570.999v8h70v-8h-70zM577.991 520.999v8h70v-8h-70zM577.991 545.999v8h70v-8h-70zM577.991 595.999
v7h70v-7h-70zM647.991 623.999v-2h-70v2h70zM101.991 191.999l7 6l3 -6h-10z" />
    <glyph glyph-name="k" unicode="k" horiz-adv-x="732" 
d="M232 293v14h291l7 -14h-298zM232 318v13h301l-7 -13h-294zM459 278h-227v4h303l7 -14h-78zM591 15l-10 20h77l9 -20h-76zM578 40l-10 19h78l9 -19h-77zM540 116l-9 18h78l9 -18h-78zM552 91l-9 18h79l9 -18h-79zM565 66l-9 18h78l9 -18h-78zM70 15v20h70v-20h-70z
M527 141l-8 17h78l9 -17h-79zM70 40v19h70v-19h-70zM70 66v18h70v-18h-70zM70 91v18h70v-18h-70zM70 116v18h70v-18h-70zM502 192l-8 16h78l8 -16h-78zM514 167l-8 16h79l8 -16h-79zM70 141v17h70v-17h-70zM489 217l-7 15h78l8 -15h-79zM477 242l-8 15h79l7 -15h-78zM70 167
v16h70v-16h-70zM70 192v16h70v-16h-70zM70 217v15h70v-15h-70zM70 242v15h70v-15h-70zM70 293v14h70v-14h-70zM70 268v14h70v-14h-70zM473 369l6 12h79l-6 -12h-79zM485 394l6 12h79l-6 -12h-79zM460 344l6 12h79l-6 -12h-79zM70 318v13h70v-13h-70zM498 419l5 11h79l-6 -11
h-78zM70 394v12h70v-12h-70zM70 344v12h70v-12h-70zM70 369v12h70v-12h-70zM511 445l5 10h78l-5 -10h-78zM523 470l5 10h78l-5 -10h-78zM70 419v11h70v-11h-70zM599 0l-5 10h76l5 -10h-76zM70 445v10h70v-10h-70zM70 470v10h70v-10h-70zM140 0h-70v10h70v-10zM536 495l4 9
h77l-4 -9h-77zM70 495v9h70v-9h-70zM561 546l4 8h76l-4 -8h-76zM549 521l4 8h76l-4 -8h-76zM573 571l4 8h76l-4 -8h-76zM70 546v8h70v-8h-70zM70 521v8h70v-8h-70zM70 571v8h70v-8h-70zM585 596l4 7h76l-4 -7h-76zM70 596v7h70v-7h-70zM599 624h76l-1 -2h-76zM140 624v-2
h-70v2h70z" />
    <glyph glyph-name="l" unicode="l" horiz-adv-x="612" 
d="M70 15v20h475v-20h-475zM70 40v19h475v-19h-475zM70 0v10h475v-10h-475zM70 66v18h70v-18h-70zM70 91v18h70v-18h-70zM70 116v18h70v-18h-70zM70 141v17h70v-17h-70zM70 167v16h70v-16h-70zM70 192v16h70v-16h-70zM70 242v15h70v-15h-70zM70 217v15h70v-15h-70zM70 268
v14h70v-14h-70zM70 293v14h70v-14h-70zM70 318v13h70v-13h-70zM70 394v12h70v-12h-70zM70 369v12h70v-12h-70zM70 344v12h70v-12h-70zM70 419v11h70v-11h-70zM70 445v10h70v-10h-70zM70 470v10h70v-10h-70zM70 495v9h70v-9h-70zM70 571v8h70v-8h-70zM70 521v8h70v-8h-70z
M70 546v8h70v-8h-70zM70 596v7h70v-7h-70zM70 622v2h70v-2h-70z" />
    <glyph glyph-name="m" unicode="m" horiz-adv-x="883" 
d="M378 91l-9 18h141l-9 -18h-123zM390 66l-9 18h116l-9 -18h-98zM403 40l-9 19h91l-10 -19h-72zM70 15v20h70v-20h-70zM743 15v20h70v-20h-70zM70 40v19h70v-19h-70zM743 40v19h70v-19h-70zM440 116l9 18h73l-9 -18h-73zM365 116l-9 18h73l9 -18h-73zM743 91v18h70v-18h-70
zM743 116v18h70v-18h-70zM70 66v18h70v-18h-70zM70 91v18h70v-18h-70zM70 116v18h70v-18h-70zM743 66v18h70v-18h-70zM452 141l9 17h73l-8 -17h-74zM353 141l-9 17h74l8 -17h-73zM743 141v17h70v-17h-70zM70 141v17h70v-17h-70zM327 192l-8 16h75l7 -16h-74zM340 167l-8 16
h74l7 -16h-73zM465 167l8 16h74l-8 -16h-74zM478 192l8 16h73l-8 -16h-73zM743 572l-1 -1h-77l4 8h144v-8h-70v1zM70 571v8h142l4 -8h-146zM415 15l-9 20h67l-10 -20h-48zM302 242l-7 15h75l7 -15h-75zM315 217l-8 15h75l7 -15h-74zM743 192v16h70v-16h-70zM70 167v16h70
v-16h-70zM70 192v16h70v-16h-70zM743 167v16h70v-16h-70zM490 217l8 15h73l-7 -15h-74zM503 242l7 15h74l-8 -15h-73zM277 293l-7 14h76l7 -14h-76zM289 268l-7 14h76l7 -14h-76zM743 242v15h70v-15h-70zM70 217v15h70v-15h-70zM70 242v15h70v-15h-70zM743 217v15h70v-15
h-70zM516 268l7 14h73l-7 -14h-73zM528 293l7 14h74l-7 -14h-74zM264 318l-6 13h76l7 -13h-77zM70 268v14h70v-14h-70zM70 293v14h70v-14h-70zM743 268v14h70v-14h-70zM743 293v14h70v-14h-70zM541 318l6 13h74l-7 -13h-73zM677 596l4 7h132v-7h-136zM226 394l-6 12h78
l6 -12h-78zM239 369l-6 12h77l6 -12h-77zM70 596v7h130l4 -7h-134zM251 344l-6 12h77l6 -12h-77zM70 318v13h70v-13h-70zM743 318v13h70v-13h-70zM554 344l6 12h73l-6 -12h-73zM566 369l6 12h74l-6 -12h-74zM579 394l6 12h73l-6 -12h-73zM214 419l-6 11h78l6 -11h-78z
M70 344v12h70v-12h-70zM70 394v12h70v-12h-70zM743 344v12h70v-12h-70zM743 369v12h70v-12h-70zM743 394v12h70v-12h-70zM70 369v12h70v-12h-70zM591 419l6 11h73l-5 -11h-74zM188 470l-5 10h78l5 -10h-78zM201 445l-5 10h78l5 -10h-78zM743 419v11h70v-11h-70zM70 419v11
h70v-11h-70zM616 470l5 10h74l-5 -10h-74zM604 445l5 10h74l-5 -10h-74zM176 495l-5 9h78l5 -9h-78zM743 470v10h70v-10h-70zM743 445v10h70v-10h-70zM140 0h-70v10h70v-10zM813 0h-70v10h70v-10zM70 470v10h70v-10h-70zM70 445v10h70v-10h-70zM628 495l5 9h74l-4 -9h-75z
M428 -10l-10 20h42l-10 -20h-22zM743 495v9h70v-9h-70zM70 495v9h70v-9h-70zM163 521l-4 8h78l4 -8h-78zM150 546l-4 8h79l4 -8h-79zM653 546l4 8h76l-4 -8h-76zM641 521l4 8h75l-4 -8h-75zM70 546v8h70v-8h-70zM743 546v8h70v-8h-70zM70 521v8h70v-8h-70zM743 521v8h70v-8
h-70zM813 624v-2h-123l1 2h122zM70 624h120l1 -2h-121v2zM439 -33l-9 18h18z" />
    <glyph glyph-name="n" unicode="n" horiz-adv-x="722" 
d="M513 40l-13 19h152v-19h-139zM531 15l-14 20h135v-20h-121zM460 116l-13 18h83l12 -18h-82zM477 91l-12 18h82l13 -18h-83zM495 66l-13 18h83l12 -18h-82zM442 141l-12 17h83l12 -17h-83zM70 15v20h70v-20h-70zM405 192l-11 16h84l11 -16h-84zM423 167l-11 16h84l11 -16
h-84zM70 40v19h70v-19h-70zM370 242l-11 15h85l10 -15h-84zM387 217l-10 15h84l11 -15h-85zM70 66v18h70v-18h-70zM70 116v18h70v-18h-70zM582 66v18h70v-18h-70zM582 91v18h70v-18h-70zM582 116v18h70v-18h-70zM70 91v18h70v-18h-70zM70 571v8h149l5 -8h-154zM333 293
l-10 14h86l10 -14h-86zM351 268l-10 14h85l10 -14h-85zM70 141v17h70v-17h-70zM582 141v17h70v-17h-70zM542 0l-7 10h117v-10h-110zM582 192v16h70v-16h-70zM70 192v16h70v-16h-70zM70 167v16h70v-16h-70zM582 167v16h70v-16h-70zM315 318l-9 13h86l9 -13h-86zM70 242v15h70
v-15h-70zM70 217v15h70v-15h-70zM582 217v15h70v-15h-70zM582 242v15h70v-15h-70zM261 394l-8 12h87l8 -12h-87zM279 369l-8 12h86l9 -12h-87zM297 344l-9 12h87l8 -12h-86zM582 293v14h70v-14h-70zM70 268v14h70v-14h-70zM582 268v14h70v-14h-70zM70 293v14h70v-14h-70z
M243 419l-8 11h88l8 -11h-88zM70 596v7h132l5 -7h-137zM70 318v13h70v-13h-70zM582 318v13h70v-13h-70zM225 445l-7 10h88l7 -10h-88zM207 470l-7 10h88l7 -10h-88zM582 394v12h70v-12h-70zM70 344v12h70v-12h-70zM582 344v12h70v-12h-70zM582 369v12h70v-12h-70zM70 369v12
h70v-12h-70zM70 394v12h70v-12h-70zM190 495l-7 9h88l7 -9h-88zM582 419v11h70v-11h-70zM70 419v11h70v-11h-70zM154 546l-6 8h88l6 -8h-88zM171 521l-5 8h88l5 -8h-88zM582 470v10h70v-10h-70zM70 445v10h70v-10h-70zM70 470v10h70v-10h-70zM140 0h-70v10h70v-10zM582 445
v10h70v-10h-70zM582 495v9h70v-9h-70zM70 495v9h70v-9h-70zM582 521v8h70v-8h-70zM582 571v8h70v-8h-70zM582 546v8h70v-8h-70zM70 521v8h70v-8h-70zM70 546v8h70v-8h-70zM582 596v7h70v-7h-70zM70 624h117l1 -2h-118v2zM652 624v-2h-70v2h70z" />
    <glyph glyph-name="o" unicode="o" 
d="M542 579l6 -4l6 -4h-361l6 4l6 4h337zM144 91c-3.33301 2.66699 -6.16895 5.5 -8.50195 8.5l-7.5 9.5h100c4.66699 -3.33301 9.33398 -6.5 14.001 -9.5s9.33398 -5.83301 14.001 -8.5h-112zM489.997 91c4.66699 2.66699 9.33398 5.5 14.001 8.5
s9.33398 6.16699 14.001 9.5h99c-2.66699 -3.33301 -5.33398 -6.33301 -8.00098 -9s-5.33398 -5.66699 -8.00098 -9h-111zM494.997 603l8.5 -3.5c2.33301 -1 4.83301 -2.16699 7.5 -3.5h-274c2.66699 1.33301 5.16699 2.5 7.5 3.5s4.83301 2.16699 7.5 3.5h243zM169.997 66
c-3.33301 2.66699 -6.5 5.5 -9.5 8.5l-9.5 9.5h116l-15 -18h-82zM593.997 84c-7.33301 -7.33301 -14.333 -13.333 -21 -18h-80l-12 18h113zM121.997 116l-12 18h89l9.5 -9.5c3 -3 6.16699 -5.83301 9.5 -8.5h-96zM527.997 116c8.66699 5.33301 15.333 11.333 20 18h88
c-2 -3.33301 -4.16699 -6.33301 -6.5 -9s-4.5 -5.66699 -6.5 -9h-95zM104.996 141c-1.33301 2.66699 -2.83301 5.33398 -4.5 8.00098s-3.16699 5.66699 -4.5 9h81l7.5 -9c2.33301 -2.66699 4.83301 -5.33398 7.5 -8.00098h-87zM554.996 141
c2.66699 2.66699 5.16699 5.33398 7.5 8.00098l7.5 9h81c-1.33301 -3.33301 -3 -6.33301 -5 -9s-3.66699 -5.33398 -5 -8.00098h-86zM90.9961 167c-2.66699 4.66699 -5.33301 9.99902 -8 15.999h78c1.33301 -3.33301 3 -6.16602 5 -8.49902s3.66699 -4.83301 5 -7.5h-80z
M575.997 166.999c2 2.66699 4 5.16797 6 7.50098s3.66699 5.16602 5 8.49902h76l-3.5 -8.5c-1 -2.33301 -2.16699 -4.83301 -3.5 -7.5h-80zM146.997 208c2.66699 -6 5.33301 -11.332 8 -15.999h-75c-1.33301 2.66699 -2.33301 5.16699 -3 7.5s-1.66699 5.16602 -3 8.49902
h73zM592.996 192.001c2.66699 4.66699 5.33301 9.99902 8 15.999h72c-1.33301 -3.33301 -2.33301 -6.16602 -3 -8.49902s-1.66699 -4.83301 -3 -7.5h-74zM321.995 554c-5.33301 -1.33301 -10.167 -2.66797 -14.5 -4.00098l-13.5 -4h-132
c1.33301 0.666992 4.33301 3.33398 9 8.00098h151zM454.994 545.998l-13.501 4.00195c-4.33301 1.33301 -9.16602 2.66602 -14.499 3.99902h150c4.66699 -4.66699 7.66699 -7.33398 9 -8.00098h-131zM136.993 232l6.00195 -15h-72
c-0.666992 2.66699 -1.33398 5.16699 -2.00098 7.5s-1.33398 4.83301 -2.00098 7.5h70zM604.995 217l5.99805 15h70c-1.33301 -2.66699 -2.16602 -5.16699 -2.49902 -7.5s-1.16602 -4.83301 -2.49902 -7.5h-71zM129.993 257c0.666992 -3.33301 1.33203 -6.33301 1.99902 -9
s1.33398 -4.66699 2.00098 -6h-70c-0.666992 2 -1 4.33301 -1 7c0 3.33301 -0.333008 6 -1 8h68zM613.991 242c0.666992 1.33301 1.33203 3.33301 1.99902 6s1.33398 5.66699 2.00098 9h68l-3 -15h-69zM124.989 282c0.666992 -6 1.66699 -10.667 3 -14h-68
c-0.666992 1.33301 -1 3.33301 -1 6c0 3.33301 -0.333008 6 -1 8h67zM56.9893 293v14h67c0 -7.33301 0.333008 -12 1 -14h-68zM620.989 268c0.666992 1.33301 1 3.33301 1 6c0 3.33301 0.333008 6 1 8h66c0 -2.66699 -0.166992 -5.16699 -0.5 -7.5s-0.5 -4.5 -0.5 -6.5h-67z
M623.989 293c0 2 0.166992 4.16699 0.5 6.5s0.5 4.83301 0.5 7.5h66c0 -7.33301 -0.333008 -12 -1 -14h-66zM205.989 40l-13.5 9.5l-13.5 9.5h68l-15 -19h-26zM563.989 59c-7.33301 -6.66699 -16.667 -13 -28 -19h-26l-12 19h66zM124.988 331
c-0.666992 -2 -1 -6.33301 -1 -13h-67v13h68zM255.988 529c-2 -1.33301 -4.16699 -2.66797 -6.5 -4.00098s-4.5 -2.66602 -6.5 -3.99902h-106c4 4 6.33301 6.66699 7 8h112zM143.988 405.998c-1.33301 -2 -2.16797 -4 -2.50098 -6s-1.16602 -4 -2.49902 -6h-71l3 12h73z
M505.986 520.998c-2 1.33301 -4.16699 2.66797 -6.5 4.00098s-4.5 2.66602 -6.5 3.99902h110l8 -8h-105zM624.986 318c0 2 -0.166992 4 -0.5 6s-0.5 4.33301 -0.5 7h66c0.666992 -2 1 -6.33301 1 -13h-66zM192.986 480c-1.33301 -2 -4.33301 -5.33301 -9 -10h-84
c3.33301 4 5.33301 7.33301 6 10h87zM608.986 394l-2.00195 6l-2 6h71c0.666992 -1.33301 1.33398 -3 2.00098 -5s1.33398 -4.33301 2.00098 -7h-71zM115.984 495c4 5.33301 6.33301 8.33301 7 9h96c-1.33301 -1.33301 -3 -2.83301 -5 -4.5s-3.66699 -3.16699 -5 -4.5h-93z
M564.984 470c-1.33301 1.33301 -3 2.83301 -5 4.5s-3.66699 3.5 -5 5.5h87c0.666992 -2.66699 2.66699 -6 6 -10h-83zM539.984 495c-2 1.33301 -5.33301 4.33301 -10 9h95l6 -9h-91zM134.984 381l-2 -6l-2 -6h-69c0 1.33301 0.666992 5.33301 2 12h71zM74.9844 419
c1.33301 1.33301 2.16797 3.00098 2.50098 5.00098s1.16602 4 2.49902 6h76c-1.33301 -2.66699 -2.5 -4.83398 -3.5 -6.50098s-1.83301 -3.16699 -2.5 -4.5h-75zM616.986 369.001l-3 12h69l3 -12h-69zM667.986 430.001l1.99707 -6c0.666992 -2 1.33398 -3.66699 2.00098 -5
h-74c-1.33301 1.33301 -2.16602 3 -2.49902 5s-1.16602 4 -2.49902 6h75zM57.9834 344.001c0.666992 1.33301 1 3.33301 1 6s0.333008 4.66699 1 6h68c-0.666992 -1.33301 -1 -3.33301 -1 -6s-0.333008 -4.66699 -1 -6h-68zM687.983 356.001c0 -6 0.333008 -10 1 -12h-67
c0 1.33301 -0.666992 5.33301 -2 12h68zM171.983 455.001c-2 -4 -4.33496 -7.33301 -7.00195 -10h-78c0.666992 1.33301 1.33398 2.83301 2.00098 4.5s1.33398 3.5 2.00098 5.5h81zM583.981 445.001c-1.33301 1.33301 -2.49805 2.83301 -3.49805 4.5s-2.16699 3.5 -3.5 5.5
h79c1.33301 -2 2.16602 -3.83301 2.49902 -5.5s1.16602 -3.16699 2.49902 -4.5h-77zM373.983 627.001c9.33301 0 18.6689 -0.5 28.002 -1.5s18.666 -2.16699 27.999 -3.5h-113c9.33301 1.33301 18.666 2.5 27.999 3.5s19 1.5 29 1.5zM223.986 30.001l-4 2
c-1.33301 0.666992 -3 1.66699 -5 3h13zM516.986 30.001l-4 5h13c-2 -1.33301 -3.66699 -2.33301 -5 -3z" />
    <glyph glyph-name="p" unicode="p" horiz-adv-x="681" 
d="M565 579l8 -8h-503v8h495zM536 603c1.33301 -1.33301 2.83301 -2.5 4.5 -3.5s3.5 -2.16699 5.5 -3.5h-476v7h466zM565 307l-7.50098 -7.5c-2.33301 -2.33301 -5.16602 -4.5 -8.49902 -6.5h-187v14h203zM454.999 326c8 0 17.667 1.66699 29 5h101
c-1.33301 -2.66699 -3 -5 -5 -7s-3.66699 -4 -5 -6h-213v8h93zM533.999 282c-6 -3.33301 -11.668 -6.16797 -17.001 -8.50098s-10.666 -4.16602 -15.999 -5.49902h-139v14h172zM69.998 14.998v20h70v-20h-70zM69.998 39.998v19h70v-19h-70zM69.998 65.998v18h70v-18h-70z
M69.998 90.998v18h70v-18h-70zM69.998 115.998v18h70v-18h-70zM69.998 140.998v17h70v-17h-70zM69.998 191.998v16h70v-16h-70zM69.998 166.998v16h70v-16h-70zM69.998 216.998v15h70v-15h-70zM69.998 241.998v15h70v-15h-70zM505.998 343.998c4 2.66699 8 6.66699 12 12h81
l-6 -12h-87zM69.998 267.998v14h70v-14h-70zM69.998 292.998v14h70v-14h-70zM526.998 368.998l6.00195 12h76c-0.666992 -2.66699 -1.33398 -5 -2.00098 -7s-1.33398 -3.66699 -2.00098 -5h-78zM70 317.998v13h70v-13h-70zM538 393.998
c0.666992 1.33301 1.33203 3 1.99902 5s1.33398 4.33301 2.00098 7h74l-3 -12h-75zM69.998 393.998v12h70v-12h-70zM69.998 343.998v12h70v-12h-70zM69.998 368.998v12h70v-12h-70zM464.998 623.998c3.33301 0 6.83301 -0.166992 10.5 -0.5s7.16699 -0.833008 10.5 -1.5
h-416v2h395zM543.998 418.998c0 1.33301 0.166992 3 0.5 5s0.5 4 0.5 6h74c0 -2 -0.166992 -4 -0.5 -6s-0.5 -3.66699 -0.5 -5h-74zM496.998 545.998c-2.66699 1.33301 -5 2.66895 -7 4.00195s-4.33301 2.66602 -7 3.99902h102c2 -2.66699 3.66699 -5.33398 5 -8.00098h-93z
M69.998 419.001v11h70v-11h-70zM541.998 470.001c-0.666992 0.666992 -1 2 -1 4c0 2.66699 -0.333008 4.66699 -1 6h75c0.666992 -1.33301 1 -3.33301 1 -6c0 -2 0.333008 -3.33301 1 -4h-75zM545.998 445.001c0 1.33301 -0.166992 2.83301 -0.5 4.5s-0.5 3.5 -0.5 5.5h73
c0 -2 0.166992 -3.83301 0.5 -5.5s0.5 -3.16699 0.5 -4.5h-73zM534.998 495.001c-1.33301 1.33301 -2.16797 2.83301 -2.50098 4.5s-1.16602 3.16699 -2.49902 4.5h79l3 -9h-77zM69.9961 0.000976562v10h70v-10h-70zM69.9961 470.001v10h70v-10h-70zM69.9961 445.001v10h70
v-10h-70zM519.996 521.001c-1.33301 1.33301 -2.33301 2.66797 -3 4.00098s-1.66699 2.66602 -3 3.99902h85l2 -4l2 -4h-83zM69.9961 495.003v9h70v-9h-70zM69.9961 521.003v8h70v-8h-70zM69.9961 546.003v8h70v-8h-70z" />
    <glyph glyph-name="q" unicode="q" 
d="M213 40c-4.66699 2.66699 -9.33301 5.66797 -14 9.00098s-9.66699 6.66602 -15 9.99902h223l19 -19h-213zM267.001 15.001l-21 8.5c-7.33301 3 -15.333 6.83301 -24 11.5h209l21 -20h-185zM540.001 579.001c2.66699 -1.33301 5 -2.66699 7 -4l6 -4h-358l6 4l6 4h333z
M175.001 66c-8.66699 5.33301 -15.332 11.333 -19.999 18h122c21.333 -9.33301 43.666 -15.333 66.999 -18h-169zM567.003 40l-20 19h115l19 -19h-114zM539.003 66l-19 18h117l18 -18h-116zM504.003 99c2.66699 1.33301 5.16699 2.83398 7.5 4.50098l7.5 5.5h98
c-0.666992 -0.666992 -1 -1.33398 -1 -2.00098l-1 -1l15 -15h-118zM147.003 91.001c-2.66699 2.66699 -5.33203 5.5 -7.99902 8.5s-5.33398 6.16699 -8.00098 9.5h101c8.66699 -7.33301 18.667 -13.333 30 -18h-115zM493.005 603.001
c2.66699 -1.33301 5.16699 -2.5 7.5 -3.5l8.5 -3.5h-270c2.66699 1.33301 5.16699 2.5 7.5 3.5l8.5 3.5h238zM595.005 15.001l-22 20h108l-26 -20h-60zM125.005 116.001c-2 3.33301 -4.16797 6.33301 -6.50098 9s-4.5 5.66699 -6.5 9h90
c4.66699 -6.66699 11.334 -12.667 20.001 -18h-97zM528.004 116.001c8 4.66699 15 10.667 21 18h87c-2 -3.33301 -4.16699 -6.33301 -6.5 -9s-4.5 -5.66699 -6.5 -9h-95zM374.004 -2.99902c-34 0 -64.001 4.33301 -90.001 13h173l2 -2
c-13.333 -4 -27.166 -6.83301 -41.499 -8.5s-28.833 -2.5 -43.5 -2.5zM107.003 141.001c-1.33301 2.66699 -3 5.33398 -5 8.00098s-3.66699 5.66699 -5 9h82l7.5 -9c2.33301 -2.66699 4.83301 -5.33398 7.5 -8.00098h-87zM556.003 141.001l8 8.00098
c2.66699 2.66699 5 5.66699 7 9h80c-1.33301 -3.33301 -3 -6.33301 -5 -9s-3.66699 -5.33398 -5 -8.00098h-85zM92.0029 167.002c-2.66699 4.66699 -5.33301 9.99902 -8 15.999h77c2 -3.33301 3.83301 -6.16602 5.5 -8.49902l5.5 -7.5h-80zM578.004 167.001
c4 5.33301 7.66797 10.667 11.001 16h75c-2.66699 -6 -5.33398 -11.333 -8.00098 -16h-78zM80.0049 192.002c-1.33301 2.66699 -2.33301 5.16699 -3 7.5s-1.66699 5.16602 -3 8.49902h73c1.33301 -3.33301 2.83301 -6.16602 4.5 -8.49902s3.16699 -4.83301 4.5 -7.5h-76z
M594.005 192.002c2.66699 4.66699 5.33301 10 8 16h72l-3.5 -8.5c-1 -2.33301 -2.16699 -4.83301 -3.5 -7.5h-73zM327.004 554.002l-15.5 -3.99805l-15.5 -4h-133c1.33301 1.33301 2.83301 2.66602 4.5 3.99902s3.16699 2.66602 4.5 3.99902h155zM453.004 546.004
l-15.5 3.99805l-15.5 4h153c2 -1.33301 3.83301 -2.66602 5.5 -3.99902s3.16699 -2.66602 4.5 -3.99902h-132zM71.0039 217.002c-0.666992 2.66699 -1.33203 5.16699 -1.99902 7.5s-1.33398 4.83301 -2.00098 7.5h70l6 -15h-72zM606.006 217.002l6.00195 15h69
c-0.666992 -1.33301 -1.33398 -3.33301 -2.00098 -6s-1.33398 -5.66699 -2.00098 -9h-71zM130.008 257.002c0.666992 -2.66699 1.33203 -5.16699 1.99902 -7.5s1.33398 -4.83301 2.00098 -7.5h-70l-3 15h69zM615.006 242.002c0.666992 2.66699 1.33203 5.16699 1.99902 7.5
s1.33398 4.83301 2.00098 7.5h67l-3 -15h-68zM60.0039 268.002c-0.666992 1.33301 -1 3.33398 -1 6.00098c0 3.33301 -0.333008 6 -1 8h68c0 -2.66699 0.666992 -7.33398 2 -14.001h-68zM57.0039 293.003v14h67v-14h-67zM621.004 268.003c1.33301 6.66699 2 11.333 2 14h66
c0 -2.66699 -0.166992 -5.16699 -0.5 -7.5s-0.5 -4.5 -0.5 -6.5h-67zM624.004 293.002c0.666992 2 1 6.66699 1 14h66c0 -7.33301 -0.333008 -12 -1 -14h-66zM258.004 529.002c-2 -1.33301 -4.16699 -2.66797 -6.5 -4.00098s-4.83301 -2.66602 -7.5 -3.99902h-106
c4 4 6.33301 6.66699 7 8h113zM125.004 331c-0.666992 -2 -1 -6.33301 -1 -13h-67c0 6.66699 0.333008 11 1 13h67zM144.004 406l-2.00195 -6l-2 -6h-72c0.666992 2.66699 1.33398 5 2.00098 7s1.33398 3.66699 2.00098 5h72zM505.002 521
c-2.66699 1.33301 -5.16699 2.66797 -7.5 4.00098s-4.5 2.66602 -6.5 3.99902h111l8 -8h-105zM100.002 470.002c1.33301 1.33301 2.5 2.83301 3.5 4.5s2.16699 3.5 3.5 5.5h87c-1.33301 -2 -4.33301 -5.33301 -9 -10h-85zM220.002 504.002
c-1.33301 -1.33301 -3 -2.83301 -5 -4.5s-3.66699 -3.16699 -5 -4.5h-93l6 9h97zM609.002 394.002c-1.33301 2 -2.16797 4 -2.50098 6s-1.16602 4 -2.49902 6h72l2 -6l2 -6h-71zM625 318.002c0 2 -0.166992 4 -0.5 6s-0.5 4.33301 -0.5 7h66v-13h-65zM564 470.002
c-1.33301 1.33301 -3 2.83301 -5 4.5s-3.66699 3.5 -5 5.5h87c0.666992 -2.66699 2.66699 -6 6 -10h-83zM539 495.002c-2 1.33301 -5.33301 4.33301 -10 9h95c1.33301 -1.33301 2.5 -2.83301 3.5 -4.5s2.16699 -3.16699 3.5 -4.5h-92zM135 381.002l-3 -12h-70l3 12h70z
M76 419.002c0.666992 1.33301 1.33105 3 1.99805 5l2 6h76c-1.33301 -2 -2.16602 -4 -2.49902 -6s-1.16602 -3.66699 -2.49902 -5h-75zM616.997 369.002l-3 12h69c0.666992 -1.33301 1 -3.33301 1 -6s0.333008 -4.66699 1 -6h-68zM666.997 430.002
c1.33301 -2 2.16797 -4.00098 2.50098 -6.00098s1.16602 -3.66699 2.49902 -5h-74c-0.666992 1.33301 -1.5 2.83301 -2.5 4.5s-2.16699 3.83398 -3.5 6.50098h75zM58.999 344.001c0 2 0.166992 4 0.5 6s0.5 4 0.5 6h68c-0.666992 -1.33301 -1 -3.33301 -1 -6
s-0.333008 -4.66699 -1 -6h-67zM686.999 356.001c0.666992 -1.33301 1 -3.33301 1 -6s0.333008 -4.66699 1 -6h-67c0 1.33301 -0.666992 5.33301 -2 12h67zM172.999 455.001c-1.33301 -2 -2.5 -3.83301 -3.5 -5.5s-2.16699 -3.16699 -3.5 -4.5h-79c1.33301 4 3 7.33301 5 10
h81zM582.999 445.001c-2.66699 2.66699 -5 6 -7 10h80c1.33301 -4 3 -7.33301 5 -10h-78zM621.999 -9.99902l-22 20h48zM373.999 626.001c18.667 0 35.668 -1.33301 51.001 -4h-103c15.333 2.66699 32.666 4 51.999 4z" />
    <glyph glyph-name="r" unicode="r" horiz-adv-x="681" 
d="M565 579l8 -8h-503v8h495zM536 603c1.33301 -1.33301 2.83301 -2.5 4.5 -3.5s3.5 -2.16699 5.5 -3.5h-476v7h466zM566 307l-7.50098 -7.5c-2.33301 -2.33301 -5.16602 -4.5 -8.49902 -6.5h-175l-7 14h198zM584.999 331c-3.33301 -5.33301 -6.66699 -9.66699 -10 -13h-212
l-4 8h96c8 0 17.667 1.66699 29 5h101zM533.998 281.999c-10 -6 -20.667 -10.667 -32 -14h-114l-7 14h153zM517.998 14.999l-10 20h75l10 -20h-75zM504.998 39.999l-10 19h75l10 -19h-75zM69.998 14.999v20h70v-20h-70zM465.998 115.999l-9 18h75l9 -18h-75zM478.998 90.999
l-9 18h75l9 -18h-75zM491.998 65.999l-10 18h75l10 -18h-75zM69.998 39.999v19h70v-19h-70zM452.998 140.999l-9 17h76l9 -17h-76zM69.998 65.999v18h70v-18h-70zM69.998 90.999v18h70v-18h-70zM69.998 115.999v18h70v-18h-70zM426.998 191.999l-9 16h77l8 -16h-76z
M439.998 166.999l-9 16h77l8 -16h-76zM69.998 140.999v17h70v-17h-70zM400.998 241.999l-8 15h78l7 -15h-77zM413.998 216.999l-8 15h77l8 -15h-77zM69.998 191.999v16h70v-16h-70zM69.998 166.999v16h70v-16h-70zM69.998 216.999v15h70v-15h-70zM69.998 241.999v15h70v-15
h-70zM599.998 355.999l-6 -12h-88c4 2.66699 8 6.66699 12 12h82zM69.998 292.999v14h70v-14h-70zM69.998 267.999v14h70v-14h-70zM609.998 380.999c-1.33301 -2 -2.16797 -4 -2.50098 -6s-1.16602 -4 -2.49902 -6h-78l6 12h77zM69.9961 317.999v13h70v-13h-70z
M615.996 405.999l-3.00195 -12h-75c0.666992 1.33301 1.33398 3 2.00098 5s1.33398 4.33301 2.00098 7h74zM69.9941 368.999v12h70v-12h-70zM69.9941 343.999v12h70v-12h-70zM69.9941 393.999v12h70v-12h-70zM464.994 623.999c3.33301 0 6.83301 -0.166992 10.5 -0.5
s7.16699 -0.833008 10.5 -1.5h-416v2h395zM543.994 418.999c0 1.33301 0.166992 3 0.5 5s0.5 4 0.5 6h74c0 -2 -0.166992 -4 -0.5 -6s-0.5 -3.66699 -0.5 -5h-74zM584.994 553.999c2 -2.66699 3.66699 -5.33105 5 -7.99805h-93c-2.66699 1.33301 -5 2.66602 -7 3.99902
s-4.33301 2.66602 -7 3.99902h102zM69.9941 419.002v11h70v-11h-70zM525.994 0.00195312l-5 10h75l5 -10h-75zM614.994 480.002c0.666992 -1.33301 1 -3.33301 1 -6c0 -2 0.333008 -3.33301 1 -4h-75c-0.666992 0.666992 -1 2 -1 4c0 2.66699 -0.333008 4.66699 -1 6h75z
M617.994 455.002c0 -2 0.166992 -3.83301 0.5 -5.5s0.5 -3.16699 0.5 -4.5h-73c0 1.33301 -0.166992 2.83301 -0.5 4.5s-0.5 3.5 -0.5 5.5h73zM534.994 495.002c-1.33301 1.33301 -2.16797 2.83301 -2.50098 4.5s-1.16602 3.16699 -2.49902 4.5h79l3 -9h-77z
M69.9922 445.002v10h70v-10h-70zM139.992 0.00195312h-70v10h70v-10zM69.9922 470.002v10h70v-10h-70zM598.992 529.002l2 -3.99805l2 -4h-83c-1.33301 1.33301 -2.33301 2.66602 -3 3.99902s-1.66699 2.66602 -3 3.99902h85zM69.9922 495.004v9h70v-9h-70zM69.9922 546.004
v8h70v-8h-70zM69.9922 521.004v8h70v-8h-70z" />
    <glyph glyph-name="s" unicode="s" horiz-adv-x="673" 
d="M574 59c-2.66699 -3.33301 -5.33301 -6.5 -8 -9.5s-5.66699 -6.16699 -9 -9.5h-485v19h502zM552.001 35c-5.33301 -4 -10.5 -7.66699 -15.5 -11s-10.167 -6.33301 -15.5 -9h-449v20h480zM457.001 0h-385v10h438c-15.333 -6.66699 -33 -10 -53 -10zM102.001 571
c1.33301 1.33301 2.5 2.66797 3.5 4.00098s2.16699 2.66602 3.5 3.99902h492v-8h-499zM129.001 596.002c2 1.33301 3.83301 2.5 5.5 3.5s3.16699 2.16699 4.5 3.5h462v-7h-472zM590.001 84.002c-3.33301 -8 -6.66602 -14 -9.99902 -18h-119
c15.333 2.66699 28.666 8.66699 39.999 18h89zM575.001 282.002c1.33301 -2.66699 2.83301 -5 4.5 -7s3.16699 -4.33301 4.5 -7h-95l-12.5 5c-5 2 -10.833 3.66699 -17.5 5v4h116zM601.001 109.002l-3.50098 -9l-3.5 -9h-85c6.66699 6.66699 11.334 12.667 14.001 18h78z
M552 307.002l14 -14h-107v14h93zM607 134.002c-0.666992 -3.33301 -1.16797 -6.33301 -1.50098 -9s-1.16602 -5.66699 -2.49902 -9h-76c1.33301 2.66699 2.33301 5.5 3 8.5s1.66699 6.16699 3 9.5h74zM118.999 318.002l-6 6c-2 2 -4 4.33301 -6 7h107v-13h-95z
M95.999 344.002l-4.00098 6l-4 6h94c10.667 -5.33301 21.334 -9 32.001 -11v-1h-118zM609.998 158.002v-9c0 -3.33301 -0.333008 -6 -1 -8h-74l2 8c0.666992 2.66699 1 5.66699 1 9h72zM589.998 257.002c1.33301 -2.66699 2.5 -5.16699 3.5 -7.5s2.16699 -4.83301 3.5 -7.5
h-77c-2 2.66699 -4 5.16699 -6 7.5s-4.66699 4.83301 -8 7.5h84zM606.998 208.002c0.666992 -2.66699 1.16699 -5.33398 1.5 -8.00098s0.833008 -5.33398 1.5 -8.00098h-72c-0.666992 2.66699 -1.16699 5.33398 -1.5 8.00098s-0.833008 5.33398 -1.5 8.00098h72z
M610.998 173.002v-6h-72v6v10h71c0 -2 0.166992 -3.83301 0.5 -5.5s0.5 -3.16699 0.5 -4.5zM600.998 232.002c0.666992 -2.66699 1.33203 -5.16699 1.99902 -7.5s1.33398 -4.83301 2.00098 -7.5h-72c-1.33301 2.66699 -2.5 5.16699 -3.5 7.5s-2.16699 4.83301 -3.5 7.5h75z
M155.996 293.002l-12 6c-4 2 -7.66699 4.66699 -11 8h81v-14h-58zM80.9961 369.002c-1.33301 2.66699 -2.33203 5 -2.99902 7s-1.33398 3.66699 -2.00098 5h77c1.33301 -2.66699 3 -5 5 -7l5 -5h-82zM515.997 331.002c9.33301 -4 16.667 -8.33301 22 -13h-79v13h57z
M70.998 394.002c-0.666992 1.33301 -1.33008 3 -1.99707 5s-1.33398 4.33301 -2.00098 7h73c1.33301 -2 2.16602 -4 2.49902 -6s1.16602 -4 2.49902 -6h-74zM197.002 554.002l-8 -4.00098c-2.66699 -1.33301 -5.66699 -2.66602 -9 -3.99902h-95l2 4l2 4h108z
M601.002 624.001v-2h-410c4 0.666992 8 1.16699 12 1.5s8.33301 0.5 13 0.5h385zM135.002 430.001c0 -2 0.666992 -5.66699 2 -11h-73c0 1.33301 -0.166992 3 -0.5 5s-0.5 4 -0.5 6h72zM62.002 470.001c0.666992 0.666992 1 1.99902 1 3.99902
c0 2.66699 0.333008 4.66699 1 6h73c-1.33301 -5.33301 -2 -8.66602 -2 -9.99902h-73zM62.002 445v6v4h72v-4v-6h-72zM66.002 495c0.666992 0.666992 1.00098 1.99902 1.00098 3.99902c0 2.66699 0.333008 4.33398 1 5.00098h76l-2 -4
c-0.666992 -1.33301 -1.33398 -3 -2.00098 -5h-74zM73.0029 520.999l2 4l2 4h83l-6 -8h-81zM214.003 279.999c-4 0 -7.83301 0.166992 -11.5 0.5s-7.16699 0.833008 -10.5 1.5h22v-2z" />
    <glyph glyph-name="t" unicode="t" horiz-adv-x="669" 
d="M67 571v8h535v-8h-535zM67 596v7h535v-7h-535zM299 15v20h70v-20h-70zM299 40v19h70v-19h-70zM299 116v18h70v-18h-70zM299 66v18h70v-18h-70zM299 91v18h70v-18h-70zM299 141v17h70v-17h-70zM299 192v16h70v-16h-70zM299 167v16h70v-16h-70zM67 624h535v-2h-535v2z
M299 242v15h70v-15h-70zM299 217v15h70v-15h-70zM299 293v14h70v-14h-70zM299 268v14h70v-14h-70zM299 318v13h70v-13h-70zM299 344v12h70v-12h-70zM299 369v12h70v-12h-70zM299 394v12h70v-12h-70zM299 419v11h70v-11h-70zM369 0h-70v10h70v-10zM299 445v10h70v-10h-70z
M299 470v10h70v-10h-70zM299 495v9h70v-9h-70zM299 546v8h70v-8h-70zM299 521v8h70v-8h-70z" />
    <glyph glyph-name="u" unicode="u" horiz-adv-x="775" 
d="M227 40l-15 9.5c-4.66699 3 -9.33398 6.16699 -14.001 9.5h379c-7.33301 -6.66699 -16.666 -13 -27.999 -19h-322zM281 15l-22.5 8.5c-7.66699 3 -15.167 6.83301 -22.5 11.5h304c-7.33301 -4 -14.833 -7.66699 -22.5 -11s-15.5 -6.33301 -23.5 -9h-213zM188 66
c-3.33301 2.66699 -6.66797 5.5 -10.001 8.5s-6.66602 6.16699 -9.99902 9.5h122c20.667 -8.66699 43 -14.667 67 -18h-169zM418.998 66c23.333 2.66699 45.668 8.66699 67.001 18h121c-4.66699 -6.66699 -11.334 -12.667 -20.001 -18h-168zM160 91
c-3.33301 3.33301 -6.16699 6.33301 -8.5 9l-7.5 9h101c10 -7.33301 20 -13.333 30 -18h-115zM630.999 109l-7.50195 -9c-2.33301 -2.66699 -5.16602 -5.66699 -8.49902 -9h-114c5.33301 2.66699 10.333 5.5 15 8.5s9.33398 6.16699 14.001 9.5h101zM137.997 116l-7.5 9
c-2.33301 2.66699 -4.5 5.66699 -6.5 9h91c6.66699 -7.33301 13.667 -13.333 21 -18h-98zM649.997 134c-2 -3.33301 -4.16699 -6.33301 -6.5 -9s-4.5 -5.66699 -6.5 -9h-98l11 8.5c4 3 7.66699 6.16699 11 9.5h89zM387.997 -3c-34 0 -64 4.33301 -90 13h180
c-26.667 -8.66699 -56.667 -13 -90 -13zM119.997 141c-4 4.66699 -7.33301 10.334 -10 17.001h82l7.5 -9c2.33301 -2.66699 4.83301 -5.33398 7.5 -8.00098h-87zM664.997 158c-1.33301 -3.33301 -3 -6.33301 -5 -9s-3.66699 -5.33398 -5 -8.00098h-87
c2.66699 2.66699 5.16699 5.33398 7.5 8.00098l7.5 9h82zM104.997 167c-2.66699 4.66699 -5.33301 9.99902 -8 15.999h78c1.33301 -3.33301 3 -6.16602 5 -8.49902s3.66699 -4.83301 5 -7.5h-80zM589.998 166.999c1.33301 2.66699 3 5.16699 5 7.5
s3.66699 5.16602 5 8.49902h77c-2 -7.33301 -4.33301 -12.666 -7 -15.999h-80zM160.998 207.999c2.66699 -6 5.33301 -11.332 8 -15.999h-76c-1.33301 2.66699 -2.33301 5.16699 -3 7.5s-1.66699 5.16602 -3 8.49902h74zM687.997 208l-3.50098 -8.5
c-1 -2.33301 -2.16699 -4.83301 -3.5 -7.5h-75c2.66699 4.66699 5.33398 10 8.00098 16h74zM150.996 232c0.666992 -5.33301 2.66504 -10.333 5.99805 -15h-73c-1.33301 2.66699 -2.16602 5.16699 -2.49902 7.5s-1.16602 4.83301 -2.49902 7.5h72zM617.994 217l6.00195 15
h71c-0.666992 -2.66699 -1.33398 -5.16699 -2.00098 -7.5s-1.33398 -4.83301 -2.00098 -7.5h-73zM626.996 242c0.666992 2.66699 1.33203 5.16699 1.99902 7.5s1.33398 4.83301 2.00098 7.5h69l-3 -15h-70zM143.994 257c0.666992 -3.33301 1.33203 -6.33301 1.99902 -9
s1.33398 -4.66699 2.00098 -6h-71l-3 15h70zM704.992 307c0 -7.33301 -0.333008 -12 -1 -14h-69v14h70zM69.9922 293v14h70v-14h-70zM702.992 282c0 -2.66699 -0.166992 -5.16797 -0.5 -7.50098s-0.5 -4.5 -0.5 -6.5h-69c0 0.666992 0.666992 4.33398 2 11.001v3h68z
M72.9922 267.999c-0.666992 1.33301 -1 3.33301 -1 6c0 3.33301 -0.333008 6 -1 8h69v-3c0 -2 0.666992 -5.66699 2 -11h-69zM634.992 317.999v13h70v-13h-70zM69.9922 317.999v13h70v-13h-70zM634.992 343.999v12h70v-12h-70zM634.992 368.999v12h70v-12h-70z
M634.992 393.999v12h70v-12h-70zM69.9922 343.999v12h70v-12h-70zM69.9922 393.999v12h70v-12h-70zM69.9922 368.999v12h70v-12h-70zM634.992 418.999v11h70v-11h-70zM69.9922 418.999v11h70v-11h-70zM634.992 444.999v10h70v-10h-70zM634.992 469.999v10h70v-10h-70z
M69.9922 444.999v10h70v-10h-70zM69.9922 469.999v10h70v-10h-70zM634.992 494.999v9h70v-9h-70zM69.9922 494.999v9h70v-9h-70zM634.992 520.999v8h70v-8h-70zM634.992 570.999v8h70v-8h-70zM69.9922 545.999v8h70v-8h-70zM69.9922 570.999v8h70v-8h-70zM69.9922 520.999v8
h70v-8h-70zM634.992 545.999v8h70v-8h-70zM69.9922 595.999v7h70v-7h-70zM634.992 595.999v7h70v-7h-70zM704.992 623.999v-2h-70v2h70zM139.992 623.999v-2h-70v2h70z" />
    <glyph glyph-name="v" unicode="v" horiz-adv-x="741" 
d="M361 134l8 -17l8 17h75l-9 -18h-147l-9 18h74zM308 91l-9 18h141l-9 -18h-123zM321 66l-9 18h115l-9 -18h-97zM333 40l-9 19h91l-10 -19h-72zM381 141l8 17h75l-8 -17h-75zM283 141l-8 17h74l8 -17h-74zM258 192l-8 16h75l8 -16h-75zM406 192l8 16h75l-8 -16h-75z
M394 167l8 16h75l-8 -16h-75zM270 167l-8 16h75l8 -16h-75zM345 15l-9 20h67l-10 -20h-48zM233 242l-8 15h77l7 -15h-76zM245 217l-7 15h76l7 -15h-76zM431 242l8 15h75l-8 -15h-75zM419 217l7 15h75l-7 -15h-75zM207 293l-7 14h78l6 -14h-77zM220 268l-7 14h77l6 -14h-76z
M444 268l7 14h75l-7 -14h-75zM457 293l7 14h75l-7 -14h-75zM195 318l-7 13h78l6 -13h-77zM469 318l7 13h75l-7 -13h-75zM157 394l-6 12h78l6 -12h-78zM169 369l-6 12h79l6 -12h-79zM182 344l-6 12h78l6 -12h-78zM495 369l6 12h75l-6 -12h-75zM482 344l6 12h75l-6 -12h-75z
M507 394l6 12h75l-6 -12h-75zM144 419l-5 11h78l6 -11h-79zM520 419l5 11h75l-5 -11h-75zM119 470l-5 10h79l5 -10h-79zM131 445l-5 10h79l5 -10h-79zM544 470l5 10h76l-5 -10h-76zM532 445l5 10h76l-5 -10h-76zM106 495l-4 9h79l4 -9h-79zM556 495l5 9h76l-4 -9h-77z
M358 -10l-10 20h42l-10 -20h-22zM81 546l-4 8h80l4 -8h-80zM68 571l-4 8h80l4 -8h-80zM93 521l-4 8h80l4 -8h-80zM581 546l4 8h78l-4 -8h-78zM593 571l4 8h78l-4 -8h-78zM569 521l4 8h77l-4 -8h-77zM56 596l-4 7h80l4 -7h-80zM605 596l4 7h79l-4 -7h-79zM699 624l-1 -2h-80
l1 2h80zM42 624h80l1 -2h-80zM369 -33l-9 18h18z" />
    <glyph glyph-name="w" unicode="w" horiz-adv-x="955" 
d="M338 158l7 -14l6 14h79l-8 -17h-153l-8 17h77zM598 158l7 -14l6 14h77l-8 -17h-153l-8 17h79zM281 116l-9 18h146l-8 -18h-129zM539 116l-8 18h145l-8 -18h-129zM476 253l-5 -11h-79l7 15h152l7 -15h-77zM293 91l-9 18h122l-8 -18h-105zM551 91l-8 18h121l-8 -18h-105z
M404 268l7 14h128l6 -14h-141zM305 66l-9 18h98l-8 -18h-81zM563 66l-8 18h97l-8 -18h-81zM416 293l7 14h104l6 -14h-117zM515 167l-7 16h78l8 -16h-79zM356 167l7 16h79l-8 -16h-78zM368 192l7 16h79l-8 -16h-78zM504 192l-8 16h78l8 -16h-78zM244 192l-7 16h77l8 -16h-78z
M256 167l-7 16h77l8 -16h-78zM317 40l-9 19h74l-9 -19h-56zM576 40l-9 19h73l-9 -19h-55zM616 167l7 16h77l-8 -16h-76zM628 192l7 16h77l-8 -16h-76zM380 217l7 15h79l-8 -15h-78zM492 217l-7 15h78l7 -15h-78zM220 242l-7 15h78l7 -15h-78zM232 217l-7 15h78l7 -15h-78z
M640 217l7 15h76l-7 -15h-76zM652 242l7 15h76l-7 -15h-76zM428 318l6 13h81l6 -13h-93zM208 268l-7 14h78l6 -14h-77zM676 293l7 14h77l-7 -14h-77zM196 293l-6 14h77l6 -14h-77zM664 268l7 14h77l-7 -14h-77zM688 318l7 13h77l-7 -13h-77zM185 318l-6 13h77l6 -13h-77z
M173 344l-6 12h77l6 -12h-77zM725 394l6 12h77l-6 -12h-77zM161 369l-5 12h77l5 -12h-77zM701 344l6 12h77l-6 -12h-77zM150 394l-6 12h77l6 -12h-77zM713 369l6 12h77l-6 -12h-77zM737 419l6 11h77l-6 -11h-77zM138 419l-5 11h77l5 -11h-77zM329 15l-9 20h51l-10 -20h-32z
M587 15l-9 20h51l-10 -20h-32zM115 470l-5 10h77l5 -10h-77zM762 470l5 10h77l-5 -10h-77zM126 445l-4 10h77l4 -10h-77zM750 445l5 10h77l-5 -10h-77zM441 344l6 12h57l5 -12h-68zM774 495l4 9h77l-4 -9h-77zM103 495l-4 9h77l4 -9h-77zM67 571l-4 8h77l4 -8h-77zM810 571
l4 8h77l-4 -8h-77zM798 546l4 8h77l-4 -8h-77zM91 521l-4 8h77l4 -8h-77zM79 546l-4 8h77l4 -8h-77zM786 521l4 8h77l-4 -8h-77zM55 596l-3 7h77l3 -7h-77zM822 596l4 7h77l-4 -7h-77zM453 369l5 12h34l6 -12h-45zM599 -10l-9 20h27l-10 -20h-8zM341 -10l-9 20h27l-10 -20
h-8zM465 394l5 12h11l5 -12h-21zM836 624h77l-1 -2h-77zM42 624h77l1 -2h-77zM603 -19l-2 4h4zM345 -19l-2 4h4z" />
    <glyph glyph-name="x" unicode="x" horiz-adv-x="705" 
d="M574 15l-10 20h77l9 -20h-76zM54 15l10 20h76l-10 -20h-76zM561 40l-10 19h78l9 -19h-77zM67 40l9 19h76l-9 -19h-76zM522 116l-9 18h79l9 -18h-79zM535 91l-9 18h79l9 -18h-79zM548 66l-10 18h79l9 -18h-78zM80 66l9 18h76l-9 -18h-76zM92 91l9 18h76l-9 -18h-76z
M105 116l9 18h76l-9 -18h-76zM510 141l-9 17h79l9 -17h-79zM117 141l9 17h76l-9 -17h-76zM484 192l-8 16h79l8 -16h-79zM497 167l-8 16h79l8 -16h-79zM130 167l8 16h76l-8 -16h-76zM143 192l8 16h76l-8 -16h-76zM472 217l-8 15h79l8 -15h-79zM459 242l-7 15h79l7 -15h-79z
M168 242l7 15h77l-8 -15h-76zM155 217l8 15h76l-8 -15h-76zM434 293l-7 14h79l7 -14h-79zM446 268l-7 14h79l7 -14h-79zM192 293l7 14h79l-8 -14h-78zM180 268l7 14h78l-8 -14h-77zM195 318l-6 13h79l6 -13h-79zM430 318l7 13h79l-7 -13h-79zM468 394l6 12h79l-6 -12h-79z
M443 344l6 12h79l-6 -12h-79zM171 369l-6 12h79l6 -12h-79zM183 344l-6 12h79l6 -12h-79zM456 369l6 12h79l-6 -12h-79zM159 394l-6 12h79l6 -12h-79zM147 419l-6 11h79l5 -11h-78zM481 419l5 11h79l-6 -11h-78zM494 445l5 10h78l-5 -10h-78zM134 445l-5 10h78l5 -10h-78z
M506 470l5 10h78l-5 -10h-78zM122 470l-5 10h78l5 -10h-78zM123 0h-76l5 10h76zM582 0l-5 10h76l5 -10h-76zM110 495l-5 9h78l4 -9h-77zM519 495l4 9h77l-4 -9h-77zM97 521l-4 8h77l4 -8h-77zM85 546l-4 8h77l4 -8h-77zM73 571l-4 8h76l4 -8h-76zM532 521l4 8h76l-4 -8h-76z
M544 546l4 8h76l-4 -8h-76zM556 571l4 8h76l-4 -8h-76zM60 596l-3 7h76l4 -7h-77zM568 596l4 7h76l-4 -7h-76zM47 624h76l1 -2h-76zM582 624h76l-1 -2h-76z" />
    <glyph glyph-name="y" unicode="y" horiz-adv-x="695" 
d="M342 307l3 -4l3 4h90l-10 -14h-165l-10 14h89zM280 268l-10 14h151l-10 -14h-131zM297 242l-10 15h117l-10 -15h-97zM312 15v20h70v-20h-70zM312 40v19h70v-19h-70zM312 91v18h70v-18h-70zM312 66v18h70v-18h-70zM312 116v18h70v-18h-70zM312 141v17h70v-17h-70zM355 318
l9 13h90l-9 -13h-90zM246 318l-9 13h89l9 -13h-89zM312 192v16h70v-16h-70zM312 167v16h70v-16h-70zM382 225v-8h-70v3l-8 12h83zM373 344l9 12h89l-8 -12h-90zM391 369l8 12h89l-8 -12h-89zM408 394l9 12h88l-8 -12h-89zM229 344l-8 12h87l9 -12h-88zM212 369l-8 12h87
l8 -12h-87zM196 394l-8 12h86l8 -12h-86zM426 419l7 11h89l-8 -11h-88zM179 419l-7 11h86l7 -11h-86zM444 445l7 10h88l-7 -10h-88zM461 470l7 10h88l-7 -10h-88zM162 445l-7 10h86l7 -10h-86zM145 470l-6 10h85l7 -10h-86zM479 495l6 9h87l-6 -9h-87zM129 495l-6 9h85l6 -9
h-85zM312 0v10h70v-10h-70zM497 521l6 8h86l-6 -8h-86zM515 546l5 8h86l-6 -8h-85zM94 546l-5 8h85l5 -8h-85zM532 571l6 8h85l-6 -8h-85zM77 571l-5 8h85l5 -8h-85zM111 521l-5 8h85l5 -8h-85zM549 596l5 7h85l-5 -7h-85zM60 596l-4 7h84l5 -7h-85zM653 624l-2 -2h-84l2 2
h84zM42 624h84l1 -2h-84z" />
    <glyph glyph-name="z" unicode="z" horiz-adv-x="685" 
d="M78 15l15 20h524v-20h-539zM96 40l14 19h507v-19h-521zM67 0l7 10h543v-10h-550zM67 571v8h517l-6 -8h-511zM67 596v7h535l-5 -7h-530zM115 66l14 18h87l-13 -18h-88zM134 91l13 18h88l-14 -18h-87zM153 116l13 18h87l-13 -18h-87zM171 141l13 17h87l-13 -17h-87z
M191 167l12 16h86l-12 -16h-86zM210 192l12 16h86l-12 -16h-86zM228 217l12 15h85l-11 -15h-86zM247 242l11 15h86l-11 -15h-86zM267 268l10 14h85l-10 -14h-85zM67 622v2h551l-2 -2h-549zM360 394l9 12h86l-9 -12h-86zM342 369l9 12h86l-9 -12h-86zM379 419l8 11h86l-8 -11
h-86zM398 445l7 10h86l-7 -10h-86zM416 470l8 10h86l-8 -10h-86zM435 495l7 9h86l-7 -9h-86zM473 546l6 8h86l-6 -8h-86zM455 521l6 8h85l-6 -8h-85z" />
    <glyph glyph-name="braceleft" unicode="{" horiz-adv-x="673" 
d="M574 59c-2.66699 -3.33301 -5.33301 -6.5 -8 -9.5s-5.66699 -6.16699 -9 -9.5h-485v19h502zM552.001 35c-5.33301 -4 -10.5 -7.66699 -15.5 -11s-10.167 -6.33301 -15.5 -9h-449v20h480zM552.001 307l14 -14h-410l-12 6c-4 2 -7.66699 4.66699 -11 8h419zM516.001 331
c9.33301 -4 16.667 -8.33301 22 -13h-419l-6 6c-2 2 -4 4.33301 -6 7h409zM510.002 10c-15.333 -6.66699 -33 -10 -53 -10h-385v10h438zM102.002 571c1.33301 1.33301 2.5 2.66797 3.5 4.00098s2.16699 2.66602 3.5 3.99902h492v-8h-499zM129.002 596.002
c2 1.33301 3.83301 2.5 5.5 3.5s3.16699 2.16699 4.5 3.5h462v-7h-472zM575.002 282.002c1.33301 -2.66699 2.83301 -5 4.5 -7s3.16699 -4.33301 4.5 -7h-92c-10 4.66699 -21 8.66699 -33 12h-245c-4 0 -7.83301 0.166992 -11.5 0.5s-7.16699 0.833008 -10.5 1.5h383z
M590.002 84.002c-3.33301 -8 -6.66602 -14 -9.99902 -18h-119c15.333 2.66699 28.666 8.66699 39.999 18h89zM601.002 109.002l-3.50098 -9l-3.5 -9h-85c6.66699 6.66699 11.334 12.667 14.001 18h78zM607.001 134.002c-0.666992 -3.33301 -1.16797 -6.33301 -1.50098 -9
s-1.16602 -5.66699 -2.49902 -9h-76c1.33301 2.66699 2.33301 5.5 3 8.5s1.66699 6.16699 3 9.5h74zM610 158.002v-9c0 -3.33301 -0.333008 -6 -1 -8h-74l2 8c0.666992 2.66699 1 5.66699 1 9h72zM180 356.002c9.33301 -6 20.667 -10 34 -12h-118l-4 6l-4 6h92z
M590.001 257.002c1.33301 -2.66699 2.5 -5.16699 3.5 -7.5s2.16699 -4.83301 3.5 -7.5h-77c-2 2.66699 -4 5.16699 -6 7.5s-4.33301 4.83301 -7 7.5h83zM607.001 208.002c0.666992 -2.66699 1.16699 -5.33398 1.5 -8.00098s0.833008 -5.33398 1.5 -8.00098h-72
c-0.666992 2.66699 -1.16699 5.33398 -1.5 8.00098s-0.833008 5.33398 -1.5 8.00098h72zM610.001 183.002c0 -2 0.166992 -3.83301 0.5 -5.5s0.5 -3.16699 0.5 -4.5v-6h-72v6v10h71zM601.001 232.002c0.666992 -2.66699 1.33203 -5.16699 1.99902 -7.5
s1.33398 -4.83301 2.00098 -7.5h-72c-1.33301 2.66699 -2.5 5.16699 -3.5 7.5s-2.16699 4.83301 -3.5 7.5h75zM151.999 381.002c3.33301 -5.33301 7.00098 -9.33301 11.001 -12h-82c-1.33301 2.66699 -2.33301 5 -3 7s-1.33398 3.66699 -2.00098 5h76zM140 406.002
c1.33301 -2 2.16992 -4 2.50293 -6s1.16602 -4 2.49902 -6h-74c-0.666992 1.33301 -1.33398 3 -2.00098 5s-1.33398 4.33301 -2.00098 7h73zM197.004 554.002l-8 -4.00098c-2.66699 -1.33301 -5.66699 -2.66602 -9 -3.99902h-95l2 4l2 4h108zM601.004 624.001v-2h-410
c4 0.666992 8 1.16699 12 1.5s8.33301 0.5 13 0.5h385zM135.004 430.001c0 -2 0.666992 -5.66699 2 -11h-73c0 1.33301 -0.166992 3 -0.5 5s-0.5 4 -0.5 6h72zM137.004 480.001c-1.33301 -5.33301 -2 -8.66699 -2 -10h-73c0.666992 0.666992 1 2 1 4
c0 2.66699 0.333008 4.66699 1 6h73zM134.004 451v-6h-72v6v4h72v-4zM144.004 504l-1.99902 -4.00098c-0.666992 -1.33301 -1.33398 -3 -2.00098 -5h-74c0.666992 0.666992 1 2 1 4c0 2.66699 0.333008 4.33398 1 5.00098h76zM160.005 528.999l-6 -8h-81l2 4l2 4h83z" />
    <glyph glyph-name="bar" unicode="|" horiz-adv-x="210" 
d="M70 -162v24h70v-24h-70zM70 -137v23h70v-23h-70zM70 -111v22h70v-22h-70zM70 -86v22h70v-22h-70zM70 -61v22h70v-22h-70zM70 -36v21h70v-21h-70zM70 -10v20h70v-20h-70zM70 15v20h70v-20h-70zM70 40v19h70v-19h-70zM70 66v18h70v-18h-70zM70 91v18h70v-18h-70zM70 116v18
h70v-18h-70zM70 141v17h70v-17h-70zM70 167v16h70v-16h-70zM70 192v16h70v-16h-70zM70 217v15h70v-15h-70zM70 242v15h70v-15h-70zM70 268v14h70v-14h-70zM70 293v14h70v-14h-70zM70 318v13h70v-13h-70zM70 344v12h70v-12h-70zM70 369v12h70v-12h-70zM70 394v12h70v-12h-70z
M70 419v11h70v-11h-70zM70 -174v11h70v-11h-70zM70 445v10h70v-10h-70zM70 470v10h70v-10h-70zM70 495v9h70v-9h-70zM70 521v8h70v-8h-70zM70 546v8h70v-8h-70zM70 571v8h70v-8h-70zM70 596v7h70v-7h-70zM70 622v6h70v-6h-70zM70 647v6h70v-6h-70zM70 672v5h70v-5h-70z
M70 697v5h70v-5h-70zM70 723v4h70v-4h-70zM70 748v4h70v-4h-70zM70 773v3h70v-3h-70z" />
    <glyph glyph-name="braceright" unicode="}" 
d="M193 571l6 4l6 4h337l6 -4l6 -4h-361zM228 109c4.66699 -3.33301 9.33105 -6.5 13.998 -9.5s9.33398 -5.83301 14.001 -8.5h-112c-3.33301 2.66699 -6.16602 5.5 -8.49902 8.5l-7.5 9.5h100zM616.997 109c-2.66699 -3.33301 -5.33398 -6.33301 -8.00098 -9
s-5.33398 -5.66699 -8.00098 -9h-111c4.66699 2.66699 9.33398 5.5 14.001 8.5s9.33398 6.16699 14.001 9.5h99zM236.997 596c2.66699 1.33301 5.16699 2.5 7.5 3.5s4.83301 2.16699 7.5 3.5h243l8.5 -3.5c2.33301 -1 4.83301 -2.16699 7.5 -3.5h-274zM169.997 66
c-3.33301 2.66699 -6.5 5.5 -9.5 8.5l-9.5 9.5h116l-15 -18h-82zM593.997 84c-7.33301 -7.33301 -14.333 -13.333 -21 -18h-80l-12 18h113zM198.997 134l9.5 -9.5c3 -3 6.16699 -5.83301 9.5 -8.5h-96l-12 18h89zM635.997 134c-2 -3.33301 -4.16797 -6.33301 -6.50098 -9
s-4.5 -5.66699 -6.5 -9h-95c8.66699 5.33301 15.334 11.333 20.001 18h88zM176.996 158l7.5 -9c2.33301 -2.66699 4.83301 -5.33398 7.5 -8.00098h-87c-1.33301 2.66699 -2.83301 5.33398 -4.5 8.00098s-3.16699 5.66699 -4.5 9h81zM554.996 141
c2.66699 2.66699 5.16699 5.33398 7.5 8.00098l7.5 9h81c-1.33301 -3.33301 -3 -6.33301 -5 -9s-3.66699 -5.33398 -5 -8.00098h-86zM341.996 -61v22h63v-22h-63zM341.996 -36v21h63v-21h-63zM341.996 -10v20h63v-20h-63zM341.996 15v20h63v-20h-63zM160.996 183
c1.33301 -3.33301 3.00098 -6.16699 5.00098 -8.5s3.66699 -4.83301 5 -7.5h-80c-2.66699 4.66699 -5.33398 10 -8.00098 16h78zM662.997 182.999l-3.5 -8.49902c-1 -2.33301 -2.16699 -4.83301 -3.5 -7.5h-80c2 2.66699 4 5.16699 6 7.5s3.66699 5.16602 5 8.49902h76z
M341.997 40v19h63v-19h-63zM146.997 208c2.66699 -6 5.33301 -11.332 8 -15.999h-75c-1.33301 2.66699 -2.33301 5.16699 -3 7.5s-1.66699 5.16602 -3 8.49902h73zM672.996 208.001c-1.33301 -3.33301 -2.33398 -6.16699 -3.00098 -8.5s-1.66699 -4.83301 -3 -7.5h-74
c2.66699 4.66699 5.33398 10 8.00098 16h72zM341.995 66v18h63v-18h-63zM341.995 116v18h63v-18h-63zM341.995 91v18h63v-18h-63zM161.995 546c1.33301 0.666992 4.33203 3.33203 8.99902 7.99902h151c-5.33301 -1.33301 -10.166 -2.66602 -14.499 -3.99902l-13.5 -4h-132z
M576.994 553.998c4.66699 -4.66699 7.66602 -7.33203 8.99902 -7.99902h-131l-13.5 4c-4.33301 1.33301 -9.16602 2.66602 -14.499 3.99902h150zM341.993 141v17h63v-17h-63zM136.993 232l6.00195 -15h-72c-0.666992 2.66699 -1.33398 5.16699 -2.00098 7.5
s-1.33398 4.83301 -2.00098 7.5h70zM680.995 232c-1.33301 -2.66699 -2.16797 -5.16699 -2.50098 -7.5s-1.16602 -4.83301 -2.49902 -7.5h-71l6 15h70zM129.993 257c0.666992 -3.33301 1.33203 -6.33301 1.99902 -9s1.33398 -4.66699 2.00098 -6h-70
c-0.666992 2 -1 4.33301 -1 7c0 3.33301 -0.333008 6 -1 8h68zM685.991 257l-3.00195 -15h-69c0.666992 1.33301 1.33398 3.33301 2.00098 6s1.33398 5.66699 2.00098 9h68zM341.989 167v16h63v-16h-63zM341.989 192v16h63v-16h-63zM341.989 217v15h63v-15h-63zM341.989 242
v15h63v-15h-63zM124.989 282c0.666992 -6 1.66699 -10.667 3 -14h-68c-0.666992 1.33301 -1 3.33301 -1 6c0 3.33301 -0.333008 6 -1 8h67zM56.9893 293v14h67c0 -7.33301 0.333008 -12 1 -14h-68zM620.989 268c0.666992 1.33301 1 3.33301 1 6c0 3.33301 0.333008 6 1 8h66
c0 -2.66699 -0.166992 -5.16699 -0.5 -7.5s-0.5 -4.5 -0.5 -6.5h-67zM690.989 307c0 -7.33301 -0.333008 -12 -1 -14h-66c0.666992 2 1 6.66699 1 14h66zM205.989 40l-13.5 9.5l-13.5 9.5h68l-15 -19h-26zM563.989 59c-7.33301 -6.66699 -16.667 -13 -28 -19h-26l-12 19h66z
M341.988 268v14h63v-14h-63zM56.9883 318v13h68c-0.666992 -2 -1 -6.33301 -1 -13h-67zM136.988 521c4 4 6.33301 6.66504 7 7.99805h112c-2 -1.33301 -4.16699 -2.66602 -6.5 -3.99902s-4.5 -2.66602 -6.5 -3.99902h-106zM67.9883 393.998l2.99805 12h73
c-1.33301 -2 -2.16602 -4 -2.49902 -6s-1.16602 -4 -2.49902 -6h-71zM602.986 528.998l8 -7.99805h-105c-2 1.33301 -4.16699 2.66602 -6.5 3.99902s-4.5 2.66602 -6.5 3.99902h110zM689.986 331c0.666992 -2 1 -6.33301 1 -13h-66c0 2 -0.166992 4 -0.5 6
s-0.5 4.33301 -0.5 7h66zM99.9863 470c3.33301 4 5.33301 7.33301 6 10h87c-1.33301 -2 -4.33301 -5.33301 -9 -10h-84zM675.986 406c0.666992 -1.33301 1.33203 -3 1.99902 -5s1.33398 -4.33301 2.00098 -7h-71l-2 6l-2 6h71zM115.984 495c4 5.33301 6.33301 8.33301 7 9
h96c-1.33301 -1.33301 -3 -2.83301 -5 -4.5s-3.66699 -3.16699 -5 -4.5h-93zM641.984 480c0.666992 -2.66699 2.66699 -6 6 -10h-83c-1.33301 1.33301 -3 2.83301 -5 4.5s-3.66699 3.5 -5 5.5h87zM624.984 504l6 -9h-91c-2 1.33301 -5.33301 4.33301 -10 9h95zM134.984 381
l-2 -6l-2 -6h-69c0 1.33301 0.666992 5.33301 2 12h71zM74.9844 419c1.33301 1.33301 2.16797 3.00098 2.50098 5.00098s1.16602 4 2.49902 6h76c-1.33301 -2.66699 -2.5 -4.83398 -3.5 -6.50098s-1.83301 -3.16699 -2.5 -4.5h-75zM616.986 369.001l-3 12h69l3 -12h-69z
M667.986 430.001l1.99707 -6c0.666992 -2 1.33398 -3.66699 2.00098 -5h-74c-1.33301 1.33301 -2.16602 3 -2.49902 5s-1.16602 4 -2.49902 6h75zM57.9834 344.001c0.666992 1.33301 1 3.33301 1 6s0.333008 4.66699 1 6h68c-0.666992 -1.33301 -1 -3.33301 -1 -6
s-0.333008 -4.66699 -1 -6h-68zM687.983 356.001c0 -6 0.333008 -10 1 -12h-67c0 1.33301 -0.666992 5.33301 -2 12h68zM86.9834 445.001c0.666992 1.33301 1.33203 2.83301 1.99902 4.5s1.33398 3.5 2.00098 5.5h81c-2 -4 -4.33301 -7.33301 -7 -10h-78zM655.981 455.001
c1.33301 -2 2.16797 -3.83301 2.50098 -5.5s1.16602 -3.16699 2.49902 -4.5h-77c-1.33301 1.33301 -2.5 2.83301 -3.5 4.5s-2.16699 3.5 -3.5 5.5h79zM341.983 301.001h63v-8h-63v8zM316.983 622.001c9.33301 1.33301 18.6689 2.5 28.002 3.5s19 1.5 29 1.5
c9.33301 0 18.666 -0.5 27.999 -1.5s18.666 -2.16699 27.999 -3.5h-113zM223.986 30.001l-4 2c-1.33301 0.666992 -3 1.66699 -5 3h13zM516.986 30.001l-4 5h13c-2 -1.33301 -3.66699 -2.33301 -5 -3z" />
    <glyph glyph-name="asciitilde" unicode="~" horiz-adv-x="437" 
d="M68 318l20 13h269l-21 -13h-268zM107 344l18 12h110l17 -12h-145zM211 293l-21 14h129l-22 -14h-86zM385 349l-8 -5h-122l19 12h102zM71 293l-19 14h119l-21 -14h-79zM145 369l18 12h36l17 -12h-71zM294 369l18 12h31l16 -12h-65zM249 268l-21 14h52l-22 -14h-9zM105 268
l-19 14h47l-22 -14h-6z" />
    <glyph glyph-name="FL0127" horiz-adv-x="191" 
 />
    <glyph glyph-name="FL00A1h" unicode="&#xa1;" horiz-adv-x="210" 
d="M70 15v20h70v-20h-70zM70 40v19h70v-19h-70zM70 66v18h70v-18h-70zM70 91v18h70v-18h-70zM70 116v18h70v-18h-70zM70 141v17h70v-17h-70zM70 192v16h70v-16h-70zM70 167v16h70v-16h-70zM70 217v15h70v-15h-70zM70 242v15h70v-15h-70zM70 268v14h70v-14h-70zM70 293v14h70
v-14h-70zM70 318v13h70v-13h-70zM50 572v6.99902h109c0.666992 -1.33301 1 -3.66602 1 -6.99902v-1h-110v1zM70 368.999v12h70v-12h-70zM70 343.999v12h70v-12h-70zM70 393.999v12h70v-12h-70zM56 545.999l-2 4l-2 4h105c-0.666992 -3.33301 -2 -6 -4 -8h-97z
M140 -0.000976562h-70v10h70v-10zM150 602.999c2.66699 -2.66699 4.33105 -5 4.99805 -7h-100c0.666992 1.33301 1.33398 2.5 2.00098 3.5s1.33398 2.16699 2.00098 3.5h91zM85.9971 520.999c-6.66699 2 -11.667 4.66699 -15 8h68c-2.66699 -2 -5.16699 -3.5 -7.5 -4.5
s-4.83301 -2.16699 -7.5 -3.5h-38zM139.997 424.999v-6h-70v6h70zM104.997 625.999c8 0 15 -1.33301 21 -4h-43c6 2.66699 13.333 4 22 4z" />
    </font>
</defs>
</svg>
